<?xml version="1.0" encoding="utf-8" standalone="no"?>
<!DOCTYPE svg PUBLIC "-//W3C//DTD SVG 1.1//EN"
  "http://www.w3.org/Graphics/SVG/1.1/DTD/svg11.dtd">
<!-- Created with matplotlib (http://matplotlib.org/) -->
<svg height="1008pt" version="1.1" viewBox="0 0 3240 1008" width="3240pt" xmlns="http://www.w3.org/2000/svg" xmlns:xlink="http://www.w3.org/1999/xlink">
 <defs>
  <style type="text/css">
*{stroke-linecap:butt;stroke-linejoin:round;}
  </style>
 </defs>
 <g id="figure_1">
  <g id="patch_1">
   <path d="M 0 1008 
L 3240 1008 
L 3240 0 
L 0 0 
z
" style="fill:#ffffff;"/>
  </g>
  <g id="axes_1">
   <g id="patch_2">
    <path d="M 405 882 
L 2916 882 
L 2916 120.96 
L 405 120.96 
z
" style="fill:#eaeaf2;"/>
   </g>
   <g id="matplotlib.axis_1">
    <g id="xtick_1">
     <g id="line2d_1">
      <path clip-path="url(#p7684c2c283)" d="M 405 882 
L 405 120.96 
" style="fill:none;stroke:#ffffff;stroke-linecap:round;"/>
     </g>
     <g id="text_1">
      <!-- 0 -->
      <defs>
       <path d="M 27.4375 71.875 
Q 37.84375 71.875 43.703125 64.453125 
Q 50.6875 55.671875 50.6875 35.296875 
Q 50.6875 14.984375 43.65625 6.109375 
Q 37.84375 -1.21875 27.4375 -1.21875 
Q 17 -1.21875 10.59375 6.8125 
Q 4.203125 14.84375 4.203125 35.453125 
Q 4.203125 55.671875 11.234375 64.546875 
Q 17.046875 71.875 27.4375 71.875 
z
M 27.4375 60.5 
Q 24.953125 60.5 23 58.90625 
Q 21.046875 57.328125 19.96875 53.21875 
Q 18.5625 47.90625 18.5625 35.296875 
Q 18.5625 22.703125 19.828125 17.984375 
Q 21.09375 13.28125 23.015625 11.71875 
Q 24.953125 10.15625 27.4375 10.15625 
Q 29.9375 10.15625 31.890625 11.734375 
Q 33.84375 13.328125 34.90625 17.4375 
Q 36.328125 22.703125 36.328125 35.296875 
Q 36.328125 47.90625 35.0625 52.609375 
Q 33.796875 57.328125 31.859375 58.90625 
Q 29.9375 60.5 27.4375 60.5 
z
" id="Arial-BoldMT-30"/>
      </defs>
      <g style="fill:#262626;" transform="translate(398.882969 907.247187)scale(0.22 -0.22)">
       <use xlink:href="#Arial-BoldMT-30"/>
      </g>
     </g>
    </g>
    <g id="xtick_2">
     <g id="line2d_2">
      <path clip-path="url(#p7684c2c283)" d="M 823.5 882 
L 823.5 120.96 
" style="fill:none;stroke:#ffffff;stroke-linecap:round;"/>
     </g>
     <g id="text_2">
      <!-- 500 -->
      <defs>
       <path d="M 4.4375 18.40625 
L 18.109375 19.828125 
Q 18.703125 15.1875 21.578125 12.46875 
Q 24.46875 9.765625 28.21875 9.765625 
Q 32.515625 9.765625 35.5 13.25 
Q 38.484375 16.75 38.484375 23.78125 
Q 38.484375 30.375 35.515625 33.671875 
Q 32.5625 36.96875 27.828125 36.96875 
Q 21.921875 36.96875 17.234375 31.734375 
L 6.109375 33.34375 
L 13.140625 70.609375 
L 49.421875 70.609375 
L 49.421875 57.765625 
L 23.53125 57.765625 
L 21.390625 45.609375 
Q 25.984375 47.90625 30.765625 47.90625 
Q 39.890625 47.90625 46.234375 41.265625 
Q 52.59375 34.625 52.59375 24.03125 
Q 52.59375 15.1875 47.46875 8.25 
Q 40.484375 -1.21875 28.078125 -1.21875 
Q 18.171875 -1.21875 11.921875 4.09375 
Q 5.671875 9.421875 4.4375 18.40625 
z
" id="Arial-BoldMT-35"/>
      </defs>
      <g style="fill:#262626;" transform="translate(805.148906 907.247187)scale(0.22 -0.22)">
       <use xlink:href="#Arial-BoldMT-35"/>
       <use x="55.615234" xlink:href="#Arial-BoldMT-30"/>
       <use x="111.230469" xlink:href="#Arial-BoldMT-30"/>
      </g>
     </g>
    </g>
    <g id="xtick_3">
     <g id="line2d_3">
      <path clip-path="url(#p7684c2c283)" d="M 1242 882 
L 1242 120.96 
" style="fill:none;stroke:#ffffff;stroke-linecap:round;"/>
     </g>
     <g id="text_3">
      <!-- 1000 -->
      <defs>
       <path d="M 39.359375 0 
L 25.640625 0 
L 25.640625 51.703125 
Q 18.109375 44.671875 7.90625 41.3125 
L 7.90625 53.765625 
Q 13.28125 55.515625 19.578125 60.421875 
Q 25.875 65.328125 28.21875 71.875 
L 39.359375 71.875 
z
" id="Arial-BoldMT-31"/>
      </defs>
      <g style="fill:#262626;" transform="translate(1217.531875 907.247187)scale(0.22 -0.22)">
       <use xlink:href="#Arial-BoldMT-31"/>
       <use x="55.615234" xlink:href="#Arial-BoldMT-30"/>
       <use x="111.230469" xlink:href="#Arial-BoldMT-30"/>
       <use x="166.845703" xlink:href="#Arial-BoldMT-30"/>
      </g>
     </g>
    </g>
    <g id="xtick_4">
     <g id="line2d_4">
      <path clip-path="url(#p7684c2c283)" d="M 1660.5 882 
L 1660.5 120.96 
" style="fill:none;stroke:#ffffff;stroke-linecap:round;"/>
     </g>
     <g id="text_4">
      <!-- 1500 -->
      <g style="fill:#262626;" transform="translate(1636.031875 907.247187)scale(0.22 -0.22)">
       <use xlink:href="#Arial-BoldMT-31"/>
       <use x="55.615234" xlink:href="#Arial-BoldMT-35"/>
       <use x="111.230469" xlink:href="#Arial-BoldMT-30"/>
       <use x="166.845703" xlink:href="#Arial-BoldMT-30"/>
      </g>
     </g>
    </g>
    <g id="xtick_5">
     <g id="line2d_5">
      <path clip-path="url(#p7684c2c283)" d="M 2079 882 
L 2079 120.96 
" style="fill:none;stroke:#ffffff;stroke-linecap:round;"/>
     </g>
     <g id="text_5">
      <!-- 2000 -->
      <defs>
       <path d="M 50.59375 12.75 
L 50.59375 0 
L 2.484375 0 
Q 3.265625 7.234375 7.171875 13.703125 
Q 11.078125 20.171875 22.609375 30.859375 
Q 31.890625 39.5 33.984375 42.578125 
Q 36.8125 46.828125 36.8125 50.984375 
Q 36.8125 55.5625 34.34375 58.03125 
Q 31.890625 60.5 27.546875 60.5 
Q 23.25 60.5 20.703125 57.90625 
Q 18.171875 55.328125 17.78125 49.3125 
L 4.109375 50.6875 
Q 5.328125 62.015625 11.765625 66.9375 
Q 18.21875 71.875 27.875 71.875 
Q 38.484375 71.875 44.53125 66.15625 
Q 50.59375 60.453125 50.59375 51.953125 
Q 50.59375 47.125 48.859375 42.75 
Q 47.125 38.375 43.359375 33.59375 
Q 40.875 30.421875 34.375 24.453125 
Q 27.875 18.5 26.140625 16.546875 
Q 24.421875 14.59375 23.34375 12.75 
z
" id="Arial-BoldMT-32"/>
      </defs>
      <g style="fill:#262626;" transform="translate(2054.531875 907.247187)scale(0.22 -0.22)">
       <use xlink:href="#Arial-BoldMT-32"/>
       <use x="55.615234" xlink:href="#Arial-BoldMT-30"/>
       <use x="111.230469" xlink:href="#Arial-BoldMT-30"/>
       <use x="166.845703" xlink:href="#Arial-BoldMT-30"/>
      </g>
     </g>
    </g>
    <g id="xtick_6">
     <g id="line2d_6">
      <path clip-path="url(#p7684c2c283)" d="M 2497.5 882 
L 2497.5 120.96 
" style="fill:none;stroke:#ffffff;stroke-linecap:round;"/>
     </g>
     <g id="text_6">
      <!-- 2500 -->
      <g style="fill:#262626;" transform="translate(2473.031875 907.247187)scale(0.22 -0.22)">
       <use xlink:href="#Arial-BoldMT-32"/>
       <use x="55.615234" xlink:href="#Arial-BoldMT-35"/>
       <use x="111.230469" xlink:href="#Arial-BoldMT-30"/>
       <use x="166.845703" xlink:href="#Arial-BoldMT-30"/>
      </g>
     </g>
    </g>
    <g id="xtick_7">
     <g id="line2d_7">
      <path clip-path="url(#p7684c2c283)" d="M 2916 882 
L 2916 120.96 
" style="fill:none;stroke:#ffffff;stroke-linecap:round;"/>
     </g>
     <g id="text_7">
      <!-- 3000 -->
      <defs>
       <path d="M 3.765625 19 
L 17.046875 20.609375 
Q 17.671875 15.53125 20.453125 12.84375 
Q 23.25 10.15625 27.203125 10.15625 
Q 31.453125 10.15625 34.34375 13.375 
Q 37.25 16.609375 37.25 22.078125 
Q 37.25 27.25 34.46875 30.265625 
Q 31.6875 33.296875 27.6875 33.296875 
Q 25.046875 33.296875 21.390625 32.28125 
L 22.90625 43.453125 
Q 28.46875 43.3125 31.390625 45.875 
Q 34.328125 48.4375 34.328125 52.6875 
Q 34.328125 56.296875 32.171875 58.4375 
Q 30.03125 60.59375 26.46875 60.59375 
Q 22.953125 60.59375 20.453125 58.15625 
Q 17.96875 55.71875 17.4375 51.03125 
L 4.78125 53.171875 
Q 6.109375 59.671875 8.765625 63.546875 
Q 11.421875 67.4375 16.1875 69.65625 
Q 20.953125 71.875 26.859375 71.875 
Q 36.96875 71.875 43.0625 65.4375 
Q 48.09375 60.15625 48.09375 53.515625 
Q 48.09375 44.09375 37.796875 38.484375 
Q 43.953125 37.15625 47.625 32.5625 
Q 51.3125 27.984375 51.3125 21.484375 
Q 51.3125 12.0625 44.421875 5.421875 
Q 37.546875 -1.21875 27.296875 -1.21875 
Q 17.578125 -1.21875 11.171875 4.375 
Q 4.78125 9.96875 3.765625 19 
z
" id="Arial-BoldMT-33"/>
      </defs>
      <g style="fill:#262626;" transform="translate(2891.531875 907.247187)scale(0.22 -0.22)">
       <use xlink:href="#Arial-BoldMT-33"/>
       <use x="55.615234" xlink:href="#Arial-BoldMT-30"/>
       <use x="111.230469" xlink:href="#Arial-BoldMT-30"/>
       <use x="166.845703" xlink:href="#Arial-BoldMT-30"/>
      </g>
     </g>
    </g>
    <g id="text_8">
     <!-- time (ms) -->
     <defs>
      <path d="M 25.78125 7.859375 
L 27.046875 0.09375 
Q 23.34375 -0.6875 20.40625 -0.6875 
Q 15.625 -0.6875 12.984375 0.828125 
Q 10.359375 2.34375 9.28125 4.8125 
Q 8.203125 7.28125 8.203125 15.1875 
L 8.203125 45.015625 
L 1.765625 45.015625 
L 1.765625 51.859375 
L 8.203125 51.859375 
L 8.203125 64.703125 
L 16.9375 69.96875 
L 16.9375 51.859375 
L 25.78125 51.859375 
L 25.78125 45.015625 
L 16.9375 45.015625 
L 16.9375 14.703125 
Q 16.9375 10.9375 17.40625 9.859375 
Q 17.875 8.796875 18.921875 8.15625 
Q 19.96875 7.515625 21.921875 7.515625 
Q 23.390625 7.515625 25.78125 7.859375 
z
" id="ArialMT-74"/>
      <path d="M 6.640625 61.46875 
L 6.640625 71.578125 
L 15.4375 71.578125 
L 15.4375 61.46875 
z
M 6.640625 0 
L 6.640625 51.859375 
L 15.4375 51.859375 
L 15.4375 0 
z
" id="ArialMT-69"/>
      <path d="M 6.59375 0 
L 6.59375 51.859375 
L 14.453125 51.859375 
L 14.453125 44.578125 
Q 16.890625 48.390625 20.9375 50.703125 
Q 25 53.03125 30.171875 53.03125 
Q 35.9375 53.03125 39.625 50.640625 
Q 43.3125 48.25 44.828125 43.953125 
Q 50.984375 53.03125 60.84375 53.03125 
Q 68.5625 53.03125 72.703125 48.75 
Q 76.859375 44.484375 76.859375 35.59375 
L 76.859375 0 
L 68.109375 0 
L 68.109375 32.671875 
Q 68.109375 37.9375 67.25 40.25 
Q 66.40625 42.578125 64.15625 43.984375 
Q 61.921875 45.40625 58.890625 45.40625 
Q 53.421875 45.40625 49.796875 41.765625 
Q 46.1875 38.140625 46.1875 30.125 
L 46.1875 0 
L 37.40625 0 
L 37.40625 33.6875 
Q 37.40625 39.546875 35.25 42.46875 
Q 33.109375 45.40625 28.21875 45.40625 
Q 24.515625 45.40625 21.359375 43.453125 
Q 18.21875 41.5 16.796875 37.734375 
Q 15.375 33.984375 15.375 26.90625 
L 15.375 0 
z
" id="ArialMT-6d"/>
      <path d="M 42.09375 16.703125 
L 51.171875 15.578125 
Q 49.03125 7.625 43.21875 3.21875 
Q 37.40625 -1.171875 28.375 -1.171875 
Q 17 -1.171875 10.328125 5.828125 
Q 3.65625 12.84375 3.65625 25.484375 
Q 3.65625 38.578125 10.390625 45.796875 
Q 17.140625 53.03125 27.875 53.03125 
Q 38.28125 53.03125 44.875 45.953125 
Q 51.46875 38.875 51.46875 26.03125 
Q 51.46875 25.25 51.421875 23.6875 
L 12.75 23.6875 
Q 13.234375 15.140625 17.578125 10.59375 
Q 21.921875 6.0625 28.421875 6.0625 
Q 33.25 6.0625 36.671875 8.59375 
Q 40.09375 11.140625 42.09375 16.703125 
z
M 13.234375 30.90625 
L 42.1875 30.90625 
Q 41.609375 37.453125 38.875 40.71875 
Q 34.671875 45.796875 27.984375 45.796875 
Q 21.921875 45.796875 17.796875 41.75 
Q 13.671875 37.703125 13.234375 30.90625 
z
" id="ArialMT-65"/>
      <path id="ArialMT-20"/>
      <path d="M 23.390625 -21.046875 
Q 16.109375 -11.859375 11.078125 0.4375 
Q 6.0625 12.75 6.0625 25.921875 
Q 6.0625 37.546875 9.8125 48.1875 
Q 14.203125 60.546875 23.390625 72.796875 
L 29.6875 72.796875 
Q 23.78125 62.640625 21.875 58.296875 
Q 18.890625 51.5625 17.1875 44.234375 
Q 15.09375 35.109375 15.09375 25.875 
Q 15.09375 2.390625 29.6875 -21.046875 
z
" id="ArialMT-28"/>
      <path d="M 3.078125 15.484375 
L 11.765625 16.84375 
Q 12.5 11.625 15.84375 8.84375 
Q 19.1875 6.0625 25.203125 6.0625 
Q 31.25 6.0625 34.171875 8.515625 
Q 37.109375 10.984375 37.109375 14.3125 
Q 37.109375 17.28125 34.515625 19 
Q 32.71875 20.171875 25.53125 21.96875 
Q 15.875 24.421875 12.140625 26.203125 
Q 8.40625 27.984375 6.46875 31.125 
Q 4.546875 34.28125 4.546875 38.09375 
Q 4.546875 41.546875 6.125 44.5 
Q 7.71875 47.46875 10.453125 49.421875 
Q 12.5 50.921875 16.03125 51.96875 
Q 19.578125 53.03125 23.640625 53.03125 
Q 29.734375 53.03125 34.34375 51.265625 
Q 38.96875 49.515625 41.15625 46.5 
Q 43.359375 43.5 44.1875 38.484375 
L 35.59375 37.3125 
Q 35.015625 41.3125 32.203125 43.546875 
Q 29.390625 45.796875 24.265625 45.796875 
Q 18.21875 45.796875 15.625 43.796875 
Q 13.03125 41.796875 13.03125 39.109375 
Q 13.03125 37.40625 14.109375 36.03125 
Q 15.1875 34.625 17.484375 33.6875 
Q 18.796875 33.203125 25.25 31.453125 
Q 34.578125 28.953125 38.25 27.359375 
Q 41.9375 25.78125 44.03125 22.75 
Q 46.140625 19.734375 46.140625 15.234375 
Q 46.140625 10.84375 43.578125 6.953125 
Q 41.015625 3.078125 36.171875 0.953125 
Q 31.34375 -1.171875 25.25 -1.171875 
Q 15.140625 -1.171875 9.84375 3.03125 
Q 4.546875 7.234375 3.078125 15.484375 
z
" id="ArialMT-73"/>
      <path d="M 12.359375 -21.046875 
L 6.0625 -21.046875 
Q 20.65625 2.390625 20.65625 25.875 
Q 20.65625 35.0625 18.5625 44.09375 
Q 16.890625 51.421875 13.921875 58.15625 
Q 12.015625 62.546875 6.0625 72.796875 
L 12.359375 72.796875 
Q 21.53125 60.546875 25.921875 48.1875 
Q 29.6875 37.546875 29.6875 25.921875 
Q 29.6875 12.75 24.625 0.4375 
Q 19.578125 -11.859375 12.359375 -21.046875 
z
" id="ArialMT-29"/>
     </defs>
     <g style="fill:#262626;" transform="translate(1581.350156 943.251562)scale(0.38 -0.38)">
      <use xlink:href="#ArialMT-74"/>
      <use x="27.783203" xlink:href="#ArialMT-69"/>
      <use x="50" xlink:href="#ArialMT-6d"/>
      <use x="133.300781" xlink:href="#ArialMT-65"/>
      <use x="188.916016" xlink:href="#ArialMT-20"/>
      <use x="216.699219" xlink:href="#ArialMT-28"/>
      <use x="250" xlink:href="#ArialMT-6d"/>
      <use x="333.300781" xlink:href="#ArialMT-73"/>
      <use x="383.300781" xlink:href="#ArialMT-29"/>
     </g>
    </g>
   </g>
   <g id="matplotlib.axis_2">
    <g id="ytick_1">
     <g id="line2d_8">
      <path clip-path="url(#p7684c2c283)" d="M 405 847.407273 
L 2916 847.407273 
" style="fill:none;stroke:#ffffff;stroke-linecap:round;"/>
     </g>
     <g id="text_9">
      <!-- 0 -->
      <g style="fill:#262626;" transform="translate(383.265938 855.280866)scale(0.22 -0.22)">
       <use xlink:href="#Arial-BoldMT-30"/>
      </g>
     </g>
    </g>
    <g id="ytick_2">
     <g id="line2d_9">
      <path clip-path="url(#p7684c2c283)" d="M 405 733.13207 
L 2916 733.13207 
" style="fill:none;stroke:#ffffff;stroke-linecap:round;"/>
     </g>
     <g id="text_10">
      <!-- 10 -->
      <g style="fill:#262626;" transform="translate(371.031875 741.005664)scale(0.22 -0.22)">
       <use xlink:href="#Arial-BoldMT-31"/>
       <use x="55.615234" xlink:href="#Arial-BoldMT-30"/>
      </g>
     </g>
    </g>
    <g id="ytick_3">
     <g id="line2d_10">
      <path clip-path="url(#p7684c2c283)" d="M 405 618.856868 
L 2916 618.856868 
" style="fill:none;stroke:#ffffff;stroke-linecap:round;"/>
     </g>
     <g id="text_11">
      <!-- 20 -->
      <g style="fill:#262626;" transform="translate(371.031875 626.730462)scale(0.22 -0.22)">
       <use xlink:href="#Arial-BoldMT-32"/>
       <use x="55.615234" xlink:href="#Arial-BoldMT-30"/>
      </g>
     </g>
    </g>
    <g id="ytick_4">
     <g id="line2d_11">
      <path clip-path="url(#p7684c2c283)" d="M 405 504.581666 
L 2916 504.581666 
" style="fill:none;stroke:#ffffff;stroke-linecap:round;"/>
     </g>
     <g id="text_12">
      <!-- 30 -->
      <g style="fill:#262626;" transform="translate(371.031875 512.455259)scale(0.22 -0.22)">
       <use xlink:href="#Arial-BoldMT-33"/>
       <use x="55.615234" xlink:href="#Arial-BoldMT-30"/>
      </g>
     </g>
    </g>
    <g id="ytick_5">
     <g id="line2d_12">
      <path clip-path="url(#p7684c2c283)" d="M 405 390.306463 
L 2916 390.306463 
" style="fill:none;stroke:#ffffff;stroke-linecap:round;"/>
     </g>
     <g id="text_13">
      <!-- 40 -->
      <defs>
       <path d="M 31.15625 0 
L 31.15625 14.40625 
L 1.859375 14.40625 
L 1.859375 26.421875 
L 32.90625 71.875 
L 44.4375 71.875 
L 44.4375 26.46875 
L 53.328125 26.46875 
L 53.328125 14.40625 
L 44.4375 14.40625 
L 44.4375 0 
z
M 31.15625 26.46875 
L 31.15625 50.921875 
L 14.703125 26.46875 
z
" id="Arial-BoldMT-34"/>
      </defs>
      <g style="fill:#262626;" transform="translate(371.031875 398.180057)scale(0.22 -0.22)">
       <use xlink:href="#Arial-BoldMT-34"/>
       <use x="55.615234" xlink:href="#Arial-BoldMT-30"/>
      </g>
     </g>
    </g>
    <g id="ytick_6">
     <g id="line2d_13">
      <path clip-path="url(#p7684c2c283)" d="M 405 276.031261 
L 2916 276.031261 
" style="fill:none;stroke:#ffffff;stroke-linecap:round;"/>
     </g>
     <g id="text_14">
      <!-- 50 -->
      <g style="fill:#262626;" transform="translate(371.031875 283.904855)scale(0.22 -0.22)">
       <use xlink:href="#Arial-BoldMT-35"/>
       <use x="55.615234" xlink:href="#Arial-BoldMT-30"/>
      </g>
     </g>
    </g>
    <g id="ytick_7">
     <g id="line2d_14">
      <path clip-path="url(#p7684c2c283)" d="M 405 161.756059 
L 2916 161.756059 
" style="fill:none;stroke:#ffffff;stroke-linecap:round;"/>
     </g>
     <g id="text_15">
      <!-- 60 -->
      <defs>
       <path d="M 50.734375 54.046875 
L 37.453125 52.59375 
Q 36.96875 56.6875 34.90625 58.640625 
Q 32.859375 60.59375 29.59375 60.59375 
Q 25.25 60.59375 22.234375 56.6875 
Q 19.234375 52.78125 18.453125 40.4375 
Q 23.578125 46.484375 31.203125 46.484375 
Q 39.796875 46.484375 45.921875 39.9375 
Q 52.046875 33.40625 52.046875 23.046875 
Q 52.046875 12.0625 45.59375 5.421875 
Q 39.15625 -1.21875 29.046875 -1.21875 
Q 18.21875 -1.21875 11.234375 7.203125 
Q 4.25 15.625 4.25 34.8125 
Q 4.25 54.5 11.515625 63.1875 
Q 18.796875 71.875 30.421875 71.875 
Q 38.578125 71.875 43.921875 67.3125 
Q 49.265625 62.75 50.734375 54.046875 
z
M 19.625 24.125 
Q 19.625 17.4375 22.703125 13.796875 
Q 25.78125 10.15625 29.734375 10.15625 
Q 33.546875 10.15625 36.078125 13.125 
Q 38.625 16.109375 38.625 22.90625 
Q 38.625 29.890625 35.890625 33.125 
Q 33.15625 36.375 29.046875 36.375 
Q 25.09375 36.375 22.359375 33.265625 
Q 19.625 30.171875 19.625 24.125 
z
" id="Arial-BoldMT-36"/>
      </defs>
      <g style="fill:#262626;" transform="translate(371.031875 169.629652)scale(0.22 -0.22)">
       <use xlink:href="#Arial-BoldMT-36"/>
       <use x="55.615234" xlink:href="#Arial-BoldMT-30"/>
      </g>
     </g>
    </g>
    <g id="text_16">
     <!-- rate (Hz) -->
     <defs>
      <path d="M 6.5 0 
L 6.5 51.859375 
L 14.40625 51.859375 
L 14.40625 44 
Q 17.4375 49.515625 20 51.265625 
Q 22.5625 53.03125 25.640625 53.03125 
Q 30.078125 53.03125 34.671875 50.203125 
L 31.640625 42.046875 
Q 28.421875 43.953125 25.203125 43.953125 
Q 22.3125 43.953125 20.015625 42.21875 
Q 17.71875 40.484375 16.75 37.40625 
Q 15.28125 32.71875 15.28125 27.15625 
L 15.28125 0 
z
" id="ArialMT-72"/>
      <path d="M 40.4375 6.390625 
Q 35.546875 2.25 31.03125 0.53125 
Q 26.515625 -1.171875 21.34375 -1.171875 
Q 12.796875 -1.171875 8.203125 3 
Q 3.609375 7.171875 3.609375 13.671875 
Q 3.609375 17.484375 5.34375 20.625 
Q 7.078125 23.78125 9.890625 25.6875 
Q 12.703125 27.59375 16.21875 28.5625 
Q 18.796875 29.25 24.03125 29.890625 
Q 34.671875 31.15625 39.703125 32.90625 
Q 39.75 34.71875 39.75 35.203125 
Q 39.75 40.578125 37.25 42.78125 
Q 33.890625 45.75 27.25 45.75 
Q 21.046875 45.75 18.09375 43.578125 
Q 15.140625 41.40625 13.71875 35.890625 
L 5.125 37.0625 
Q 6.296875 42.578125 8.984375 45.96875 
Q 11.671875 49.359375 16.75 51.1875 
Q 21.828125 53.03125 28.515625 53.03125 
Q 35.15625 53.03125 39.296875 51.46875 
Q 43.453125 49.90625 45.40625 47.53125 
Q 47.359375 45.171875 48.140625 41.546875 
Q 48.578125 39.3125 48.578125 33.453125 
L 48.578125 21.734375 
Q 48.578125 9.46875 49.140625 6.21875 
Q 49.703125 2.984375 51.375 0 
L 42.1875 0 
Q 40.828125 2.734375 40.4375 6.390625 
z
M 39.703125 26.03125 
Q 34.90625 24.078125 25.34375 22.703125 
Q 19.921875 21.921875 17.671875 20.9375 
Q 15.4375 19.96875 14.203125 18.09375 
Q 12.984375 16.21875 12.984375 13.921875 
Q 12.984375 10.40625 15.640625 8.0625 
Q 18.3125 5.71875 23.4375 5.71875 
Q 28.515625 5.71875 32.46875 7.9375 
Q 36.421875 10.15625 38.28125 14.015625 
Q 39.703125 17 39.703125 22.796875 
z
" id="ArialMT-61"/>
      <path d="M 8.015625 0 
L 8.015625 71.578125 
L 17.484375 71.578125 
L 17.484375 42.1875 
L 54.6875 42.1875 
L 54.6875 71.578125 
L 64.15625 71.578125 
L 64.15625 0 
L 54.6875 0 
L 54.6875 33.734375 
L 17.484375 33.734375 
L 17.484375 0 
z
" id="ArialMT-48"/>
      <path d="M 1.953125 0 
L 1.953125 7.125 
L 34.96875 45.015625 
Q 29.34375 44.734375 25.046875 44.734375 
L 3.90625 44.734375 
L 3.90625 51.859375 
L 46.296875 51.859375 
L 46.296875 46.046875 
L 18.21875 13.140625 
L 12.796875 7.125 
Q 18.703125 7.5625 23.875 7.5625 
L 47.859375 7.5625 
L 47.859375 0 
z
" id="ArialMT-7a"/>
     </defs>
     <g style="fill:#262626;" transform="translate(359.034063 575.369219)rotate(-90)scale(0.38 -0.38)">
      <use xlink:href="#ArialMT-72"/>
      <use x="33.300781" xlink:href="#ArialMT-61"/>
      <use x="88.916016" xlink:href="#ArialMT-74"/>
      <use x="116.699219" xlink:href="#ArialMT-65"/>
      <use x="172.314453" xlink:href="#ArialMT-20"/>
      <use x="200.097656" xlink:href="#ArialMT-28"/>
      <use x="233.398438" xlink:href="#ArialMT-48"/>
      <use x="305.615234" xlink:href="#ArialMT-7a"/>
      <use x="355.615234" xlink:href="#ArialMT-29"/>
     </g>
    </g>
   </g>
   <g id="line2d_15">
    <path clip-path="url(#p7684c2c283)" d="M 405 847.407273 
L 431.784 847.407273 
L 433.458 846.841582 
L 438.48 843.67804 
L 440.154 842.707488 
L 441.828 841.211143 
L 445.176 837.312906 
L 446.85 834.917503 
L 450.198 829.333169 
L 453.546 824.205967 
L 455.22 821.805214 
L 456.894 818.942944 
L 461.916 808.917595 
L 465.264 801.13184 
L 470.286 790.13053 
L 473.634 781.79192 
L 478.656 770.095261 
L 482.004 761.375452 
L 483.678 757.319713 
L 485.352 752.892633 
L 487.026 748.121711 
L 490.374 737.587319 
L 493.722 727.498946 
L 500.418 708.478919 
L 503.766 699.028634 
L 505.44 694.665354 
L 508.788 684.960816 
L 512.136 675.719407 
L 513.81 671.468101 
L 517.158 662.001397 
L 520.506 653.014835 
L 522.18 648.896798 
L 525.528 639.707308 
L 528.876 631.010924 
L 532.224 623.315852 
L 535.572 616.556939 
L 540.594 607.474394 
L 543.942 600.64196 
L 547.29 594.714223 
L 550.638 589.630739 
L 552.312 587.387624 
L 553.986 585.334415 
L 555.66 583.46447 
L 557.334 581.771337 
L 559.008 580.248746 
L 560.682 578.890608 
L 562.356 577.691007 
L 564.03 576.644196 
L 565.704 575.744595 
L 567.378 574.986786 
L 569.052 574.365504 
L 570.726 573.875641 
L 572.4 573.512235 
L 574.074 573.270471 
L 575.748 572.579983 
L 577.422 571.469838 
L 579.096 570.511415 
L 580.77 569.699142 
L 582.444 569.027605 
L 584.118 568.49155 
L 585.792 568.085875 
L 587.466 567.239936 
L 589.14 565.982529 
L 590.814 564.88477 
L 592.488 563.94083 
L 594.162 563.145047 
L 595.836 562.491924 
L 597.51 561.976124 
L 599.184 561.592464 
L 600.858 560.770223 
L 602.532 559.538121 
L 604.206 558.467202 
L 605.88 557.551566 
L 607.554 556.785483 
L 609.228 556.163388 
L 610.902 555.679881 
L 612.576 555.329717 
L 614.25 555.107804 
L 615.924 554.44351 
L 617.598 553.365643 
L 619.272 552.445332 
L 620.946 551.676759 
L 622.62 551.054275 
L 624.294 550.572398 
L 625.968 550.225801 
L 627.642 550.009318 
L 629.316 549.917931 
L 630.99 549.94677 
L 634.338 550.346367 
L 637.686 551.171963 
L 641.034 552.389537 
L 644.382 553.967079 
L 647.73 555.874489 
L 651.078 558.083473 
L 654.426 560.567449 
L 657.774 563.301454 
L 661.122 566.262062 
L 666.144 571.080166 
L 667.818 572.776568 
L 669.492 573.948443 
L 671.166 574.627101 
L 672.84 574.820412 
L 674.514 574.558533 
L 676.188 573.848213 
L 677.862 572.718517 
L 679.536 571.17513 
L 681.21 569.246079 
L 682.884 566.936041 
L 684.558 564.272063 
L 686.232 561.257865 
L 692.928 547.674362 
L 697.95 535.320044 
L 702.972 522.191745 
L 713.016 495.182701 
L 716.364 486.23801 
L 719.712 476.905776 
L 723.06 468.294982 
L 724.734 463.630077 
L 726.408 459.298562 
L 729.756 451.024833 
L 733.104 441.800424 
L 734.778 436.862058 
L 736.452 432.2783 
L 739.8 423.560829 
L 741.474 418.871827 
L 744.822 409.971688 
L 746.496 405.204611 
L 748.17 400.797839 
L 751.518 392.450265 
L 753.192 387.953619 
L 754.866 383.813437 
L 756.54 380.017365 
L 759.888 372.844186 
L 763.236 364.755913 
L 766.584 355.835337 
L 769.932 346.160164 
L 773.28 335.803285 
L 774.954 330.393589 
L 778.302 320.238702 
L 779.976 314.933213 
L 783.324 304.99255 
L 784.998 299.796843 
L 788.346 290.080526 
L 790.02 284.999173 
L 791.694 280.337579 
L 793.368 276.081112 
L 795.042 272.215556 
L 796.716 268.7271 
L 798.39 265.602323 
L 800.064 262.828193 
L 801.738 260.392047 
L 803.412 258.281587 
L 805.086 256.484872 
L 806.76 254.990303 
L 808.434 253.78662 
L 810.108 252.862887 
L 811.782 252.208492 
L 813.456 251.813128 
L 815.13 251.666795 
L 816.804 251.759785 
L 818.478 252.082678 
L 820.152 252.626332 
L 821.826 253.381879 
L 823.5 254.340713 
L 825.174 255.494487 
L 826.848 256.835106 
L 828.522 258.354718 
L 830.196 260.045708 
L 833.544 263.912516 
L 836.892 268.379135 
L 841.914 275.523005 
L 845.262 279.112515 
L 848.61 283.299786 
L 851.958 288.032422 
L 855.306 293.261216 
L 858.654 298.939984 
L 862.002 305.025398 
L 865.35 311.476837 
L 870.372 321.757705 
L 875.394 332.658688 
L 880.416 344.072696 
L 888.786 363.41204 
L 893.808 372.583226 
L 897.156 379.022054 
L 898.83 381.76195 
L 900.504 384.022501 
L 902.178 385.810413 
L 905.526 388.626776 
L 907.2 390.220997 
L 908.874 391.366276 
L 910.548 392.09097 
L 912.222 392.400083 
L 913.896 392.320991 
L 915.57 391.857746 
L 917.244 391.036793 
L 918.918 390.426969 
L 920.592 390.020236 
L 922.266 389.243098 
L 923.94 388.121586 
L 925.614 387.224131 
L 927.288 386.5423 
L 928.962 386.067906 
L 930.636 385.793002 
L 932.31 385.709871 
L 933.984 385.811029 
L 935.658 386.089208 
L 937.332 386.537359 
L 939.006 387.148642 
L 940.68 387.91642 
L 942.354 388.834255 
L 944.028 389.895905 
L 947.376 392.42661 
L 950.724 395.462263 
L 954.072 398.959376 
L 957.42 402.877091 
L 960.768 407.17705 
L 964.116 411.823251 
L 967.464 416.781933 
L 972.486 424.737173 
L 975.834 430.34294 
L 977.508 432.660579 
L 979.182 434.495471 
L 980.856 435.854625 
L 984.204 437.805321 
L 985.878 438.963182 
L 987.552 439.670099 
L 989.226 439.95468 
L 990.9 440.387861 
L 992.574 440.963646 
L 994.248 441.676218 
L 995.922 442.519933 
L 999.27 444.579069 
L 1002.618 447.099226 
L 1005.966 450.041085 
L 1009.314 453.367701 
L 1012.662 457.044378 
L 1016.01 461.038549 
L 1019.358 465.319663 
L 1024.38 472.217192 
L 1029.402 479.607159 
L 1032.75 484.767181 
L 1034.424 486.843128 
L 1037.772 490.084739 
L 1041.12 493.626496 
L 1044.468 497.439876 
L 1046.142 498.87431 
L 1049.49 500.893646 
L 1051.164 501.481279 
L 1052.838 501.627015 
L 1054.512 501.902615 
L 1056.186 502.302878 
L 1059.534 503.457365 
L 1062.882 505.051904 
L 1066.23 507.050208 
L 1069.578 509.418164 
L 1072.926 512.12371 
L 1076.274 515.136732 
L 1079.622 518.428957 
L 1082.97 521.973857 
L 1087.992 527.710986 
L 1093.014 533.88357 
L 1098.036 540.421437 
L 1104.732 549.597988 
L 1111.428 559.178109 
L 1119.798 571.545105 
L 1133.19 591.797554 
L 1151.604 619.615512 
L 1161.648 634.411692 
L 1170.018 646.414901 
L 1178.388 658.062467 
L 1186.758 669.313379 
L 1195.128 680.13765 
L 1201.824 688.47571 
L 1208.52 696.520397 
L 1215.216 704.267533 
L 1221.912 711.71532 
L 1228.608 718.863993 
L 1235.304 725.715523 
L 1236.978 726.816659 
L 1238.652 727.367413 
L 1240.326 727.377948 
L 1243.674 726.450094 
L 1245.348 725.518164 
L 1248.696 722.81731 
L 1250.37 721.618318 
L 1252.044 719.949969 
L 1253.718 717.842523 
L 1255.392 715.302822 
L 1257.066 712.360012 
L 1258.74 709.019851 
L 1263.762 697.92288 
L 1268.784 685.358278 
L 1272.132 675.710993 
L 1282.176 643.740221 
L 1285.524 631.857387 
L 1288.872 619.589019 
L 1292.22 608.048462 
L 1295.568 596.132662 
L 1298.916 585.519319 
L 1302.264 575.558922 
L 1305.612 563.488278 
L 1308.96 550.585971 
L 1319.004 510.375829 
L 1322.352 498.581354 
L 1327.374 480.848021 
L 1330.722 470.502539 
L 1332.396 465.851245 
L 1334.07 461.531935 
L 1335.744 457.533287 
L 1337.418 453.844295 
L 1339.092 450.454263 
L 1340.766 447.352799 
L 1342.44 444.529803 
L 1344.114 441.975464 
L 1345.788 439.680248 
L 1347.462 437.634896 
L 1349.136 435.830413 
L 1350.81 434.25806 
L 1352.484 432.909352 
L 1354.158 431.77605 
L 1355.832 430.850151 
L 1357.506 430.123886 
L 1359.18 429.589712 
L 1360.854 429.240307 
L 1362.528 429.068562 
L 1364.202 429.067579 
L 1365.876 429.230662 
L 1367.55 429.551314 
L 1369.224 430.023232 
L 1370.898 430.640299 
L 1372.572 431.396581 
L 1374.246 432.286324 
L 1377.594 434.444032 
L 1380.942 437.070765 
L 1384.29 440.126425 
L 1387.638 443.573336 
L 1390.986 447.376117 
L 1394.334 451.501562 
L 1397.682 455.91852 
L 1402.704 463.027168 
L 1407.726 470.635548 
L 1412.748 478.661348 
L 1419.444 489.884163 
L 1426.14 501.560969 
L 1429.488 507.526334 
L 1431.162 509.968206 
L 1434.51 513.872206 
L 1436.184 515.339709 
L 1439.532 517.402223 
L 1441.206 518.000541 
L 1442.88 518.150068 
L 1444.554 518.42283 
L 1446.228 518.248199 
L 1447.902 517.654987 
L 1449.576 516.648638 
L 1451.25 515.256947 
L 1452.924 514.050059 
L 1454.598 513.0212 
L 1456.272 511.598103 
L 1457.946 509.807986 
L 1459.62 507.654739 
L 1461.294 505.164648 
L 1462.968 502.906385 
L 1464.642 500.306055 
L 1466.316 497.389292 
L 1467.99 494.724137 
L 1469.664 492.301768 
L 1471.338 489.547926 
L 1473.012 486.487887 
L 1474.686 483.689349 
L 1476.36 481.143153 
L 1478.034 478.840405 
L 1479.708 476.772461 
L 1481.382 474.365235 
L 1483.056 471.644175 
L 1484.73 469.177144 
L 1486.404 466.955147 
L 1488.078 464.969448 
L 1489.752 463.211561 
L 1491.426 461.673242 
L 1493.1 460.346485 
L 1494.774 459.223514 
L 1496.448 458.296779 
L 1498.122 457.55895 
L 1499.796 457.002908 
L 1501.47 456.621743 
L 1503.144 456.408748 
L 1504.818 456.357412 
L 1506.492 456.461417 
L 1508.166 456.714631 
L 1509.84 457.111104 
L 1511.514 457.645063 
L 1513.188 458.310908 
L 1516.536 460.01669 
L 1519.884 462.186926 
L 1523.232 464.782571 
L 1526.58 467.766926 
L 1529.928 471.105517 
L 1533.276 474.765978 
L 1536.624 478.717933 
L 1538.298 480.794248 
L 1539.972 482.367205 
L 1541.646 482.901435 
L 1543.32 483.003148 
L 1544.994 483.243753 
L 1546.668 483.052018 
L 1548.342 482.456174 
L 1550.016 482.026787 
L 1551.69 481.19181 
L 1553.364 479.978673 
L 1555.038 478.95717 
L 1556.712 478.120187 
L 1558.386 476.895127 
L 1560.06 475.308888 
L 1561.734 473.930743 
L 1563.408 472.753073 
L 1565.082 471.76848 
L 1566.756 470.969778 
L 1568.43 470.349992 
L 1570.104 469.90235 
L 1571.778 469.054586 
L 1573.452 467.833923 
L 1575.126 466.809951 
L 1576.8 465.975359 
L 1578.474 465.323048 
L 1580.148 464.846128 
L 1581.822 463.972216 
L 1583.496 462.162732 
L 1585.17 460.020762 
L 1586.844 458.114671 
L 1588.518 455.870267 
L 1590.192 453.312897 
L 1591.866 451.010324 
L 1593.54 448.38777 
L 1595.214 445.470011 
L 1596.888 442.824255 
L 1598.562 440.440875 
L 1600.236 438.310517 
L 1601.91 436.424096 
L 1603.584 434.772785 
L 1605.258 433.348015 
L 1606.932 432.14146 
L 1608.606 431.145037 
L 1610.28 430.350898 
L 1611.954 429.751422 
L 1613.628 429.339212 
L 1615.302 429.107086 
L 1616.976 429.048074 
L 1618.65 429.155411 
L 1620.324 429.422534 
L 1621.998 429.843071 
L 1623.672 430.410842 
L 1625.346 431.119852 
L 1627.02 431.964284 
L 1630.368 434.037023 
L 1633.716 436.585945 
L 1637.064 439.570521 
L 1640.412 442.952668 
L 1643.76 446.69662 
L 1647.108 450.768802 
L 1650.456 455.13772 
L 1655.478 462.183385 
L 1660.5 469.738766 
L 1665.522 477.720602 
L 1672.218 488.897354 
L 1678.914 500.54074 
L 1682.262 506.493607 
L 1683.936 508.930198 
L 1687.284 512.825454 
L 1688.958 514.289452 
L 1692.306 516.346582 
L 1693.98 516.942982 
L 1695.654 517.09108 
L 1697.328 516.797194 
L 1699.002 516.089973 
L 1700.676 515.540389 
L 1702.35 514.576786 
L 1704.024 513.226978 
L 1705.698 512.061126 
L 1707.372 511.072475 
L 1709.046 509.688773 
L 1710.72 507.937254 
L 1712.394 506.387517 
L 1714.068 505.032257 
L 1715.742 503.29869 
L 1717.416 501.21353 
L 1719.09 499.34587 
L 1720.764 497.122224 
L 1722.438 494.568623 
L 1724.112 492.253495 
L 1725.786 489.602708 
L 1727.46 486.641662 
L 1729.134 483.938175 
L 1730.808 481.483206 
L 1732.482 478.702283 
L 1734.156 475.620479 
L 1735.83 472.805289 
L 1737.504 470.247362 
L 1739.178 467.937615 
L 1740.852 465.867222 
L 1742.526 464.027609 
L 1744.2 462.410449 
L 1745.874 460.441962 
L 1747.548 458.147897 
L 1749.222 456.09641 
L 1750.896 454.278793 
L 1752.57 452.120897 
L 1754.244 449.648114 
L 1755.918 447.428248 
L 1757.592 444.886562 
L 1759.266 442.047873 
L 1760.94 439.47943 
L 1762.614 437.171641 
L 1764.288 434.549502 
L 1765.962 431.637568 
L 1767.636 429.002833 
L 1769.31 426.63546 
L 1770.984 424.525895 
L 1772.658 422.664855 
L 1774.332 420.477636 
L 1776.006 417.989085 
L 1777.68 415.766484 
L 1779.354 413.800275 
L 1781.028 412.081176 
L 1782.702 410.034482 
L 1784.376 407.685041 
L 1786.05 405.034444 
L 1787.724 402.10674 
L 1789.398 398.902741 
L 1791.072 395.445739 
L 1792.746 392.301498 
L 1799.442 378.906972 
L 1801.116 376.19669 
L 1802.79 373.777438 
L 1804.464 371.638752 
L 1806.138 369.770472 
L 1807.812 368.162725 
L 1809.486 366.805927 
L 1811.16 365.69077 
L 1812.834 364.808217 
L 1814.508 364.149492 
L 1816.182 363.706078 
L 1817.856 363.469707 
L 1819.53 363.432352 
L 1821.204 363.586224 
L 1822.878 363.358075 
L 1824.552 362.208484 
L 1826.226 360.739723 
L 1827.9 358.95368 
L 1829.574 356.874699 
L 1831.248 355.06957 
L 1832.922 352.962573 
L 1834.596 350.577571 
L 1836.27 348.480889 
L 1837.944 346.096354 
L 1839.618 343.447389 
L 1841.292 341.09989 
L 1842.966 339.042957 
L 1844.64 336.700313 
L 1846.314 334.095281 
L 1847.988 331.793659 
L 1849.662 329.218762 
L 1856.358 315.468098 
L 1859.706 306.75927 
L 1868.076 283.709068 
L 1871.424 274.922523 
L 1873.098 270.287839 
L 1876.446 261.662477 
L 1878.12 257.111439 
L 1881.468 248.65892 
L 1883.142 244.196868 
L 1884.816 240.14629 
L 1888.164 232.656096 
L 1896.534 210.148887 
L 1898.208 206.023275 
L 1901.556 198.43136 
L 1903.23 194.403897 
L 1904.904 190.79039 
L 1908.252 184.180723 
L 1909.926 180.624109 
L 1913.274 174.1334 
L 1914.948 170.638671 
L 1916.622 167.546328 
L 1918.296 164.841806 
L 1919.97 162.510959 
L 1921.644 160.540048 
L 1923.318 158.915734 
L 1924.992 157.625062 
L 1926.666 156.655457 
L 1928.34 155.994708 
L 1930.014 155.630966 
L 1931.688 155.552727 
L 1933.362 155.748827 
L 1935.036 156.208431 
L 1936.71 156.921029 
L 1938.384 157.876419 
L 1940.058 159.064708 
L 1941.732 160.476297 
L 1943.406 162.101878 
L 1945.08 163.932421 
L 1946.754 165.959174 
L 1950.102 170.567612 
L 1953.45 175.862356 
L 1956.798 181.782499 
L 1960.146 188.270858 
L 1963.494 195.273768 
L 1966.842 202.740904 
L 1970.19 210.625093 
L 1975.212 223.13747 
L 1980.234 236.352083 
L 1986.93 254.285294 
L 1988.604 257.941596 
L 1990.278 261.119966 
L 1993.626 266.700033 
L 1996.974 272.743902 
L 2000.322 279.206624 
L 2003.67 286.046058 
L 2008.692 296.925878 
L 2013.714 308.442299 
L 2018.736 320.484277 
L 2025.432 337.18592 
L 2033.802 358.809539 
L 2045.52 389.863824 
L 2050.542 403.279851 
L 2052.216 407.186048 
L 2055.564 413.967451 
L 2057.238 416.848243 
L 2058.912 419.230407 
L 2060.586 421.121359 
L 2063.934 424.090815 
L 2065.608 425.170714 
L 2067.282 425.819336 
L 2068.956 426.607826 
L 2070.63 427.530392 
L 2072.304 428.015723 
L 2073.978 428.091975 
L 2075.652 427.763957 
L 2077.326 426.49316 
L 2079 424.882739 
L 2080.674 423.501133 
L 2082.348 421.77422 
L 2084.022 419.727418 
L 2085.696 417.928563 
L 2087.37 415.802946 
L 2089.044 413.375416 
L 2090.718 411.213251 
L 2092.392 409.306894 
L 2094.066 407.081371 
L 2095.74 404.561272 
L 2097.414 402.313624 
L 2099.088 400.328626 
L 2100.762 398.596756 
L 2102.436 397.10877 
L 2104.11 395.289996 
L 2105.784 393.165319 
L 2107.458 390.736367 
L 2109.132 388.027223 
L 2110.806 385.038735 
L 2112.48 381.794229 
L 2114.154 378.859506 
L 2115.828 376.223569 
L 2117.502 373.310045 
L 2119.176 370.142163 
L 2120.85 367.285627 
L 2122.524 364.72935 
L 2124.198 362.46256 
L 2125.872 360.474796 
L 2127.546 358.755896 
L 2129.22 357.295991 
L 2130.894 356.085499 
L 2132.568 355.115114 
L 2134.242 354.375803 
L 2135.916 353.858795 
L 2137.59 353.555575 
L 2139.264 353.457881 
L 2140.938 353.557691 
L 2142.612 353.847222 
L 2144.286 354.318922 
L 2145.96 354.965462 
L 2147.634 355.779734 
L 2149.308 356.754841 
L 2150.982 357.884095 
L 2152.656 359.161009 
L 2156.004 362.132845 
L 2159.352 365.622289 
L 2162.7 369.584181 
L 2166.048 373.976106 
L 2169.396 378.758249 
L 2172.744 383.893256 
L 2176.092 389.346103 
L 2182.788 400.510431 
L 2186.136 404.576246 
L 2189.484 409.010304 
L 2192.832 413.777478 
L 2196.18 418.844826 
L 2201.202 426.941686 
L 2206.224 435.548911 
L 2211.246 444.579599 
L 2217.942 457.14466 
L 2226.312 473.465234 
L 2234.682 490.213778 
L 2236.356 493.028242 
L 2241.378 500.036081 
L 2246.4 507.42954 
L 2253.096 517.769609 
L 2254.77 520.425415 
L 2256.444 522.539602 
L 2258.118 524.14378 
L 2259.792 525.246115 
L 2263.14 526.609325 
L 2266.488 528.360943 
L 2269.836 530.468414 
L 2273.184 532.901138 
L 2276.532 535.630368 
L 2279.88 538.629112 
L 2283.228 541.872039 
L 2284.902 543.011895 
L 2286.576 543.67192 
L 2288.25 543.859466 
L 2289.924 543.604187 
L 2291.598 542.912347 
L 2293.272 541.812535 
L 2294.946 540.875668 
L 2296.62 539.530035 
L 2298.294 537.803392 
L 2299.968 536.265845 
L 2301.642 534.910582 
L 2303.316 533.730987 
L 2304.99 532.720635 
L 2306.664 531.873286 
L 2308.338 531.18288 
L 2310.012 530.643535 
L 2311.686 530.249538 
L 2313.36 529.995346 
L 2315.034 529.875575 
L 2316.708 529.885003 
L 2318.382 530.018559 
L 2320.056 530.271323 
L 2323.404 531.115529 
L 2326.752 532.381117 
L 2330.1 534.033745 
L 2333.448 536.041115 
L 2336.796 538.372866 
L 2340.144 541.000474 
L 2343.492 543.897153 
L 2346.84 547.037762 
L 2351.862 552.154861 
L 2356.884 557.694631 
L 2361.906 563.590489 
L 2366.928 569.782174 
L 2373.624 578.404594 
L 2378.646 585.083953 
L 2380.32 586.776545 
L 2383.668 589.1801 
L 2385.342 589.897071 
L 2388.69 590.459394 
L 2390.364 590.308614 
L 2392.038 589.710064 
L 2393.712 589.236024 
L 2395.386 588.881799 
L 2398.734 588.514689 
L 2400.408 588.493083 
L 2402.082 588.008152 
L 2403.756 587.089454 
L 2405.43 586.308848 
L 2407.104 585.661225 
L 2408.778 585.141624 
L 2410.452 584.745229 
L 2412.126 584.467365 
L 2415.474 584.249207 
L 2418.822 584.452419 
L 2422.17 585.044292 
L 2425.518 585.994034 
L 2428.866 587.272672 
L 2432.214 588.852951 
L 2435.562 590.709252 
L 2438.91 592.817499 
L 2442.258 595.15508 
L 2445.606 597.700768 
L 2450.628 601.866283 
L 2455.65 606.393484 
L 2460.672 611.226117 
L 2462.346 612.895922 
L 2464.02 614.026512 
L 2467.368 615.339888 
L 2469.042 615.52823 
L 2472.39 615.065112 
L 2474.064 614.417094 
L 2475.738 613.33135 
L 2477.412 612.379959 
L 2479.086 611.558024 
L 2480.76 610.860792 
L 2482.434 609.717957 
L 2484.108 608.15864 
L 2485.782 606.754272 
L 2487.456 605.499328 
L 2489.13 604.388442 
L 2490.804 602.850709 
L 2492.478 600.914672 
L 2494.152 599.151195 
L 2495.826 597.554204 
L 2497.5 595.552108 
L 2502.522 588.420646 
L 2507.544 579.744498 
L 2512.566 569.727761 
L 2515.914 562.403865 
L 2519.262 556.081242 
L 2520.936 553.274239 
L 2522.61 550.126938 
L 2525.958 543.456953 
L 2527.632 540.49376 
L 2529.306 537.767094 
L 2530.98 535.26875 
L 2532.654 532.990755 
L 2534.328 530.359671 
L 2536.002 527.401576 
L 2537.676 524.684941 
L 2539.35 521.635673 
L 2541.024 518.279212 
L 2542.698 515.183409 
L 2544.372 512.339256 
L 2546.046 509.738001 
L 2547.72 507.371141 
L 2549.394 505.230413 
L 2551.068 503.307788 
L 2552.742 501.59547 
L 2554.416 500.085883 
L 2556.09 498.771669 
L 2557.764 497.645684 
L 2559.438 496.700989 
L 2561.112 495.930845 
L 2562.786 494.763019 
L 2564.46 493.224764 
L 2566.134 491.320007 
L 2567.808 489.075066 
L 2569.482 486.492959 
L 2571.156 483.599121 
L 2572.83 480.961398 
L 2574.504 478.005091 
L 2576.178 474.755054 
L 2577.852 471.778566 
L 2579.526 469.06607 
L 2581.2 466.608277 
L 2582.874 463.830473 
L 2584.548 460.757496 
L 2586.222 457.956615 
L 2587.896 455.418259 
L 2589.57 453.133129 
L 2591.244 451.092193 
L 2592.918 449.286675 
L 2594.592 447.708052 
L 2596.266 446.348047 
L 2597.94 445.198621 
L 2599.614 444.251968 
L 2601.288 443.500507 
L 2602.962 442.936881 
L 2604.636 442.553945 
L 2606.31 442.344763 
L 2607.984 442.302606 
L 2609.658 442.42094 
L 2611.332 442.693427 
L 2613.006 442.548224 
L 2614.68 441.447276 
L 2616.354 439.994182 
L 2618.028 438.757808 
L 2619.702 437.16445 
L 2621.376 435.239933 
L 2623.05 433.552485 
L 2624.724 432.093473 
L 2626.398 430.288819 
L 2628.072 428.163987 
L 2629.746 425.721162 
L 2631.42 422.984973 
L 2633.094 420.522483 
L 2634.768 417.758237 
L 2636.442 414.716352 
L 2638.116 411.963395 
L 2639.79 409.489118 
L 2641.464 407.283562 
L 2643.138 404.771367 
L 2644.812 401.976741 
L 2646.486 399.466344 
L 2648.16 397.230015 
L 2649.834 395.257885 
L 2651.508 393.540367 
L 2653.182 392.068153 
L 2654.856 390.8322 
L 2656.53 389.823729 
L 2658.204 389.034215 
L 2659.878 388.455384 
L 2661.552 388.0792 
L 2663.226 387.897867 
L 2664.9 387.903813 
L 2666.574 388.089694 
L 2668.248 388.448382 
L 2669.922 388.972959 
L 2671.596 389.656717 
L 2673.27 390.493144 
L 2674.944 390.910237 
L 2676.618 390.935475 
L 2678.292 391.138702 
L 2679.966 391.51286 
L 2681.64 392.051101 
L 2683.314 392.746778 
L 2684.988 393.593446 
L 2686.662 394.584853 
L 2690.01 396.97781 
L 2693.358 399.879309 
L 2696.706 403.24579 
L 2700.054 407.036328 
L 2703.402 411.212492 
L 2706.75 415.738213 
L 2710.098 420.579657 
L 2716.794 430.519156 
L 2718.468 432.197842 
L 2720.142 433.407816 
L 2721.816 434.178183 
L 2723.49 435.080368 
L 2725.164 435.543156 
L 2726.838 435.594799 
L 2728.512 435.805885 
L 2730.186 435.604389 
L 2731.86 435.017769 
L 2733.534 434.615846 
L 2735.208 433.825845 
L 2736.882 432.674492 
L 2738.556 431.730899 
L 2740.23 430.987288 
L 2741.904 430.436109 
L 2743.578 430.070034 
L 2745.252 429.881948 
L 2746.926 429.299254 
L 2748.6 428.348856 
L 2750.274 427.600033 
L 2751.948 427.045176 
L 2753.622 426.676895 
L 2755.296 426.48802 
L 2756.97 426.47159 
L 2758.644 426.620851 
L 2760.318 426.929246 
L 2761.992 427.390414 
L 2763.666 427.998186 
L 2765.34 428.746574 
L 2767.014 429.629771 
L 2770.362 431.778233 
L 2773.71 434.400529 
L 2777.058 437.456199 
L 2780.406 440.907224 
L 2783.754 444.717903 
L 2787.102 448.854725 
L 2790.45 453.286255 
L 2795.472 460.422168 
L 2800.494 468.063565 
L 2805.516 476.127371 
L 2812.212 487.407433 
L 2818.908 499.147662 
L 2827.278 514.262464 
L 2842.344 542.038768 
L 2844.018 545.133703 
L 2845.692 547.660112 
L 2850.714 553.74507 
L 2855.736 560.13786 
L 2862.432 569.043601 
L 2870.802 580.625553 
L 2882.52 597.334016 
L 2894.238 614.230069 
L 2895.912 616.072794 
L 2899.26 618.725123 
L 2900.934 619.541976 
L 2904.282 620.258018 
L 2905.956 620.162212 
L 2909.304 619.158514 
L 2910.978 618.253556 
L 2912.652 616.919441 
L 2914.326 615.728011 
L 2914.326 615.728011 
" style="fill:none;stroke:#4c72b0;stroke-linecap:round;stroke-width:1.5;"/>
   </g>
   <g id="patch_3">
    <path d="M 405 882 
L 405 120.96 
" style="fill:none;stroke:#ffffff;stroke-linecap:square;stroke-linejoin:miter;stroke-width:1.25;"/>
   </g>
   <g id="patch_4">
    <path d="M 2916 882 
L 2916 120.96 
" style="fill:none;stroke:#ffffff;stroke-linecap:square;stroke-linejoin:miter;stroke-width:1.25;"/>
   </g>
   <g id="patch_5">
    <path d="M 405 882 
L 2916 882 
" style="fill:none;stroke:#ffffff;stroke-linecap:square;stroke-linejoin:miter;stroke-width:1.25;"/>
   </g>
   <g id="patch_6">
    <path d="M 405 120.96 
L 2916 120.96 
" style="fill:none;stroke:#ffffff;stroke-linecap:square;stroke-linejoin:miter;stroke-width:1.25;"/>
   </g>
   <g id="text_17">
    <!-- alpha window -->
    <defs>
     <path d="M 6.390625 0 
L 6.390625 71.578125 
L 15.1875 71.578125 
L 15.1875 0 
z
" id="ArialMT-6c"/>
     <path d="M 6.59375 -19.875 
L 6.59375 51.859375 
L 14.59375 51.859375 
L 14.59375 45.125 
Q 17.4375 49.078125 21 51.046875 
Q 24.5625 53.03125 29.640625 53.03125 
Q 36.28125 53.03125 41.359375 49.609375 
Q 46.4375 46.1875 49.015625 39.953125 
Q 51.609375 33.734375 51.609375 26.3125 
Q 51.609375 18.359375 48.75 11.984375 
Q 45.90625 5.609375 40.453125 2.21875 
Q 35.015625 -1.171875 29 -1.171875 
Q 24.609375 -1.171875 21.109375 0.6875 
Q 17.625 2.546875 15.375 5.375 
L 15.375 -19.875 
z
M 14.546875 25.640625 
Q 14.546875 15.625 18.59375 10.84375 
Q 22.65625 6.0625 28.421875 6.0625 
Q 34.28125 6.0625 38.453125 11.015625 
Q 42.625 15.96875 42.625 26.375 
Q 42.625 36.28125 38.546875 41.203125 
Q 34.46875 46.140625 28.8125 46.140625 
Q 23.1875 46.140625 18.859375 40.890625 
Q 14.546875 35.640625 14.546875 25.640625 
z
" id="ArialMT-70"/>
     <path d="M 6.59375 0 
L 6.59375 71.578125 
L 15.375 71.578125 
L 15.375 45.90625 
Q 21.53125 53.03125 30.90625 53.03125 
Q 36.671875 53.03125 40.921875 50.75 
Q 45.171875 48.484375 47 44.484375 
Q 48.828125 40.484375 48.828125 32.859375 
L 48.828125 0 
L 40.046875 0 
L 40.046875 32.859375 
Q 40.046875 39.453125 37.1875 42.453125 
Q 34.328125 45.453125 29.109375 45.453125 
Q 25.203125 45.453125 21.75 43.421875 
Q 18.3125 41.40625 16.84375 37.9375 
Q 15.375 34.46875 15.375 28.375 
L 15.375 0 
z
" id="ArialMT-68"/>
     <path d="M 16.15625 0 
L 0.296875 51.859375 
L 9.375 51.859375 
L 17.625 21.921875 
L 20.703125 10.796875 
Q 20.90625 11.625 23.390625 21.484375 
L 31.640625 51.859375 
L 40.671875 51.859375 
L 48.4375 21.78125 
L 51.03125 11.859375 
L 54 21.875 
L 62.890625 51.859375 
L 71.4375 51.859375 
L 55.21875 0 
L 46.09375 0 
L 37.84375 31.0625 
L 35.84375 39.890625 
L 25.34375 0 
z
" id="ArialMT-77"/>
     <path d="M 6.59375 0 
L 6.59375 51.859375 
L 14.5 51.859375 
L 14.5 44.484375 
Q 20.21875 53.03125 31 53.03125 
Q 35.6875 53.03125 39.625 51.34375 
Q 43.5625 49.65625 45.515625 46.921875 
Q 47.46875 44.1875 48.25 40.4375 
Q 48.734375 37.984375 48.734375 31.890625 
L 48.734375 0 
L 39.9375 0 
L 39.9375 31.546875 
Q 39.9375 36.921875 38.90625 39.578125 
Q 37.890625 42.234375 35.28125 43.8125 
Q 32.671875 45.40625 29.15625 45.40625 
Q 23.53125 45.40625 19.453125 41.84375 
Q 15.375 38.28125 15.375 28.328125 
L 15.375 0 
z
" id="ArialMT-6e"/>
     <path d="M 40.234375 0 
L 40.234375 6.546875 
Q 35.296875 -1.171875 25.734375 -1.171875 
Q 19.53125 -1.171875 14.328125 2.25 
Q 9.125 5.671875 6.265625 11.796875 
Q 3.421875 17.921875 3.421875 25.875 
Q 3.421875 33.640625 6 39.96875 
Q 8.59375 46.296875 13.765625 49.65625 
Q 18.953125 53.03125 25.34375 53.03125 
Q 30.03125 53.03125 33.6875 51.046875 
Q 37.359375 49.078125 39.65625 45.90625 
L 39.65625 71.578125 
L 48.390625 71.578125 
L 48.390625 0 
z
M 12.453125 25.875 
Q 12.453125 15.921875 16.640625 10.984375 
Q 20.84375 6.0625 26.5625 6.0625 
Q 32.328125 6.0625 36.34375 10.765625 
Q 40.375 15.484375 40.375 25.140625 
Q 40.375 35.796875 36.265625 40.765625 
Q 32.171875 45.75 26.171875 45.75 
Q 20.3125 45.75 16.375 40.96875 
Q 12.453125 36.1875 12.453125 25.875 
z
" id="ArialMT-64"/>
     <path d="M 3.328125 25.921875 
Q 3.328125 40.328125 11.328125 47.265625 
Q 18.015625 53.03125 27.640625 53.03125 
Q 38.328125 53.03125 45.109375 46.015625 
Q 51.90625 39.015625 51.90625 26.65625 
Q 51.90625 16.65625 48.90625 10.90625 
Q 45.90625 5.171875 40.15625 2 
Q 34.421875 -1.171875 27.640625 -1.171875 
Q 16.75 -1.171875 10.03125 5.8125 
Q 3.328125 12.796875 3.328125 25.921875 
z
M 12.359375 25.921875 
Q 12.359375 15.96875 16.703125 11.015625 
Q 21.046875 6.0625 27.640625 6.0625 
Q 34.1875 6.0625 38.53125 11.03125 
Q 42.875 16.015625 42.875 26.21875 
Q 42.875 35.84375 38.5 40.796875 
Q 34.125 45.75 27.640625 45.75 
Q 21.046875 45.75 16.703125 40.8125 
Q 12.359375 35.890625 12.359375 25.921875 
z
" id="ArialMT-6f"/>
    </defs>
    <g style="fill:#262626;" transform="translate(1545.374844 114.96)scale(0.38 -0.38)">
     <use xlink:href="#ArialMT-61"/>
     <use x="55.615234" xlink:href="#ArialMT-6c"/>
     <use x="77.832031" xlink:href="#ArialMT-70"/>
     <use x="133.447266" xlink:href="#ArialMT-68"/>
     <use x="189.0625" xlink:href="#ArialMT-61"/>
     <use x="244.677734" xlink:href="#ArialMT-20"/>
     <use x="272.460938" xlink:href="#ArialMT-77"/>
     <use x="344.677734" xlink:href="#ArialMT-69"/>
     <use x="366.894531" xlink:href="#ArialMT-6e"/>
     <use x="422.509766" xlink:href="#ArialMT-64"/>
     <use x="478.125" xlink:href="#ArialMT-6f"/>
     <use x="533.740234" xlink:href="#ArialMT-77"/>
    </g>
   </g>
  </g>
 </g>
 <defs>
  <clipPath id="p7684c2c283">
   <rect height="761.04" width="2511" x="405" y="120.96"/>
  </clipPath>
 </defs>
</svg>
