<?xml version="1.0" encoding="utf-8" standalone="no"?>
<!DOCTYPE svg PUBLIC "-//W3C//DTD SVG 1.1//EN"
  "http://www.w3.org/Graphics/SVG/1.1/DTD/svg11.dtd">
<!-- Created with matplotlib (http://matplotlib.org/) -->
<svg height="1008pt" version="1.1" viewBox="0 0 3240 1008" width="3240pt" xmlns="http://www.w3.org/2000/svg" xmlns:xlink="http://www.w3.org/1999/xlink">
 <defs>
  <style type="text/css">
*{stroke-linecap:butt;stroke-linejoin:round;}
  </style>
 </defs>
 <g id="figure_1">
  <g id="patch_1">
   <path d="M 0 1008 
L 3240 1008 
L 3240 0 
L 0 0 
z
" style="fill:#ffffff;"/>
  </g>
  <g id="axes_1">
   <g id="patch_2">
    <path d="M 405 882 
L 2916 882 
L 2916 120.96 
L 405 120.96 
z
" style="fill:#eaeaf2;"/>
   </g>
   <g id="matplotlib.axis_1">
    <g id="xtick_1">
     <g id="line2d_1">
      <path clip-path="url(#pd1b4800cbd)" d="M 405 882 
L 405 120.96 
" style="fill:none;stroke:#ffffff;stroke-linecap:round;"/>
     </g>
     <g id="text_1">
      <!-- 0 -->
      <defs>
       <path d="M 27.4375 71.875 
Q 37.84375 71.875 43.703125 64.453125 
Q 50.6875 55.671875 50.6875 35.296875 
Q 50.6875 14.984375 43.65625 6.109375 
Q 37.84375 -1.21875 27.4375 -1.21875 
Q 17 -1.21875 10.59375 6.8125 
Q 4.203125 14.84375 4.203125 35.453125 
Q 4.203125 55.671875 11.234375 64.546875 
Q 17.046875 71.875 27.4375 71.875 
z
M 27.4375 60.5 
Q 24.953125 60.5 23 58.90625 
Q 21.046875 57.328125 19.96875 53.21875 
Q 18.5625 47.90625 18.5625 35.296875 
Q 18.5625 22.703125 19.828125 17.984375 
Q 21.09375 13.28125 23.015625 11.71875 
Q 24.953125 10.15625 27.4375 10.15625 
Q 29.9375 10.15625 31.890625 11.734375 
Q 33.84375 13.328125 34.90625 17.4375 
Q 36.328125 22.703125 36.328125 35.296875 
Q 36.328125 47.90625 35.0625 52.609375 
Q 33.796875 57.328125 31.859375 58.90625 
Q 29.9375 60.5 27.4375 60.5 
z
" id="Arial-BoldMT-30"/>
      </defs>
      <g style="fill:#262626;" transform="translate(398.882969 907.247187)scale(0.22 -0.22)">
       <use xlink:href="#Arial-BoldMT-30"/>
      </g>
     </g>
    </g>
    <g id="xtick_2">
     <g id="line2d_2">
      <path clip-path="url(#pd1b4800cbd)" d="M 823.5 882 
L 823.5 120.96 
" style="fill:none;stroke:#ffffff;stroke-linecap:round;"/>
     </g>
     <g id="text_2">
      <!-- 500 -->
      <defs>
       <path d="M 4.4375 18.40625 
L 18.109375 19.828125 
Q 18.703125 15.1875 21.578125 12.46875 
Q 24.46875 9.765625 28.21875 9.765625 
Q 32.515625 9.765625 35.5 13.25 
Q 38.484375 16.75 38.484375 23.78125 
Q 38.484375 30.375 35.515625 33.671875 
Q 32.5625 36.96875 27.828125 36.96875 
Q 21.921875 36.96875 17.234375 31.734375 
L 6.109375 33.34375 
L 13.140625 70.609375 
L 49.421875 70.609375 
L 49.421875 57.765625 
L 23.53125 57.765625 
L 21.390625 45.609375 
Q 25.984375 47.90625 30.765625 47.90625 
Q 39.890625 47.90625 46.234375 41.265625 
Q 52.59375 34.625 52.59375 24.03125 
Q 52.59375 15.1875 47.46875 8.25 
Q 40.484375 -1.21875 28.078125 -1.21875 
Q 18.171875 -1.21875 11.921875 4.09375 
Q 5.671875 9.421875 4.4375 18.40625 
z
" id="Arial-BoldMT-35"/>
      </defs>
      <g style="fill:#262626;" transform="translate(805.148906 907.247187)scale(0.22 -0.22)">
       <use xlink:href="#Arial-BoldMT-35"/>
       <use x="55.615234" xlink:href="#Arial-BoldMT-30"/>
       <use x="111.230469" xlink:href="#Arial-BoldMT-30"/>
      </g>
     </g>
    </g>
    <g id="xtick_3">
     <g id="line2d_3">
      <path clip-path="url(#pd1b4800cbd)" d="M 1242 882 
L 1242 120.96 
" style="fill:none;stroke:#ffffff;stroke-linecap:round;"/>
     </g>
     <g id="text_3">
      <!-- 1000 -->
      <defs>
       <path d="M 39.359375 0 
L 25.640625 0 
L 25.640625 51.703125 
Q 18.109375 44.671875 7.90625 41.3125 
L 7.90625 53.765625 
Q 13.28125 55.515625 19.578125 60.421875 
Q 25.875 65.328125 28.21875 71.875 
L 39.359375 71.875 
z
" id="Arial-BoldMT-31"/>
      </defs>
      <g style="fill:#262626;" transform="translate(1217.531875 907.247187)scale(0.22 -0.22)">
       <use xlink:href="#Arial-BoldMT-31"/>
       <use x="55.615234" xlink:href="#Arial-BoldMT-30"/>
       <use x="111.230469" xlink:href="#Arial-BoldMT-30"/>
       <use x="166.845703" xlink:href="#Arial-BoldMT-30"/>
      </g>
     </g>
    </g>
    <g id="xtick_4">
     <g id="line2d_4">
      <path clip-path="url(#pd1b4800cbd)" d="M 1660.5 882 
L 1660.5 120.96 
" style="fill:none;stroke:#ffffff;stroke-linecap:round;"/>
     </g>
     <g id="text_4">
      <!-- 1500 -->
      <g style="fill:#262626;" transform="translate(1636.031875 907.247187)scale(0.22 -0.22)">
       <use xlink:href="#Arial-BoldMT-31"/>
       <use x="55.615234" xlink:href="#Arial-BoldMT-35"/>
       <use x="111.230469" xlink:href="#Arial-BoldMT-30"/>
       <use x="166.845703" xlink:href="#Arial-BoldMT-30"/>
      </g>
     </g>
    </g>
    <g id="xtick_5">
     <g id="line2d_5">
      <path clip-path="url(#pd1b4800cbd)" d="M 2079 882 
L 2079 120.96 
" style="fill:none;stroke:#ffffff;stroke-linecap:round;"/>
     </g>
     <g id="text_5">
      <!-- 2000 -->
      <defs>
       <path d="M 50.59375 12.75 
L 50.59375 0 
L 2.484375 0 
Q 3.265625 7.234375 7.171875 13.703125 
Q 11.078125 20.171875 22.609375 30.859375 
Q 31.890625 39.5 33.984375 42.578125 
Q 36.8125 46.828125 36.8125 50.984375 
Q 36.8125 55.5625 34.34375 58.03125 
Q 31.890625 60.5 27.546875 60.5 
Q 23.25 60.5 20.703125 57.90625 
Q 18.171875 55.328125 17.78125 49.3125 
L 4.109375 50.6875 
Q 5.328125 62.015625 11.765625 66.9375 
Q 18.21875 71.875 27.875 71.875 
Q 38.484375 71.875 44.53125 66.15625 
Q 50.59375 60.453125 50.59375 51.953125 
Q 50.59375 47.125 48.859375 42.75 
Q 47.125 38.375 43.359375 33.59375 
Q 40.875 30.421875 34.375 24.453125 
Q 27.875 18.5 26.140625 16.546875 
Q 24.421875 14.59375 23.34375 12.75 
z
" id="Arial-BoldMT-32"/>
      </defs>
      <g style="fill:#262626;" transform="translate(2054.531875 907.247187)scale(0.22 -0.22)">
       <use xlink:href="#Arial-BoldMT-32"/>
       <use x="55.615234" xlink:href="#Arial-BoldMT-30"/>
       <use x="111.230469" xlink:href="#Arial-BoldMT-30"/>
       <use x="166.845703" xlink:href="#Arial-BoldMT-30"/>
      </g>
     </g>
    </g>
    <g id="xtick_6">
     <g id="line2d_6">
      <path clip-path="url(#pd1b4800cbd)" d="M 2497.5 882 
L 2497.5 120.96 
" style="fill:none;stroke:#ffffff;stroke-linecap:round;"/>
     </g>
     <g id="text_6">
      <!-- 2500 -->
      <g style="fill:#262626;" transform="translate(2473.031875 907.247187)scale(0.22 -0.22)">
       <use xlink:href="#Arial-BoldMT-32"/>
       <use x="55.615234" xlink:href="#Arial-BoldMT-35"/>
       <use x="111.230469" xlink:href="#Arial-BoldMT-30"/>
       <use x="166.845703" xlink:href="#Arial-BoldMT-30"/>
      </g>
     </g>
    </g>
    <g id="xtick_7">
     <g id="line2d_7">
      <path clip-path="url(#pd1b4800cbd)" d="M 2916 882 
L 2916 120.96 
" style="fill:none;stroke:#ffffff;stroke-linecap:round;"/>
     </g>
     <g id="text_7">
      <!-- 3000 -->
      <defs>
       <path d="M 3.765625 19 
L 17.046875 20.609375 
Q 17.671875 15.53125 20.453125 12.84375 
Q 23.25 10.15625 27.203125 10.15625 
Q 31.453125 10.15625 34.34375 13.375 
Q 37.25 16.609375 37.25 22.078125 
Q 37.25 27.25 34.46875 30.265625 
Q 31.6875 33.296875 27.6875 33.296875 
Q 25.046875 33.296875 21.390625 32.28125 
L 22.90625 43.453125 
Q 28.46875 43.3125 31.390625 45.875 
Q 34.328125 48.4375 34.328125 52.6875 
Q 34.328125 56.296875 32.171875 58.4375 
Q 30.03125 60.59375 26.46875 60.59375 
Q 22.953125 60.59375 20.453125 58.15625 
Q 17.96875 55.71875 17.4375 51.03125 
L 4.78125 53.171875 
Q 6.109375 59.671875 8.765625 63.546875 
Q 11.421875 67.4375 16.1875 69.65625 
Q 20.953125 71.875 26.859375 71.875 
Q 36.96875 71.875 43.0625 65.4375 
Q 48.09375 60.15625 48.09375 53.515625 
Q 48.09375 44.09375 37.796875 38.484375 
Q 43.953125 37.15625 47.625 32.5625 
Q 51.3125 27.984375 51.3125 21.484375 
Q 51.3125 12.0625 44.421875 5.421875 
Q 37.546875 -1.21875 27.296875 -1.21875 
Q 17.578125 -1.21875 11.171875 4.375 
Q 4.78125 9.96875 3.765625 19 
z
" id="Arial-BoldMT-33"/>
      </defs>
      <g style="fill:#262626;" transform="translate(2891.531875 907.247187)scale(0.22 -0.22)">
       <use xlink:href="#Arial-BoldMT-33"/>
       <use x="55.615234" xlink:href="#Arial-BoldMT-30"/>
       <use x="111.230469" xlink:href="#Arial-BoldMT-30"/>
       <use x="166.845703" xlink:href="#Arial-BoldMT-30"/>
      </g>
     </g>
    </g>
    <g id="text_8">
     <!-- time (ms) -->
     <defs>
      <path d="M 25.78125 7.859375 
L 27.046875 0.09375 
Q 23.34375 -0.6875 20.40625 -0.6875 
Q 15.625 -0.6875 12.984375 0.828125 
Q 10.359375 2.34375 9.28125 4.8125 
Q 8.203125 7.28125 8.203125 15.1875 
L 8.203125 45.015625 
L 1.765625 45.015625 
L 1.765625 51.859375 
L 8.203125 51.859375 
L 8.203125 64.703125 
L 16.9375 69.96875 
L 16.9375 51.859375 
L 25.78125 51.859375 
L 25.78125 45.015625 
L 16.9375 45.015625 
L 16.9375 14.703125 
Q 16.9375 10.9375 17.40625 9.859375 
Q 17.875 8.796875 18.921875 8.15625 
Q 19.96875 7.515625 21.921875 7.515625 
Q 23.390625 7.515625 25.78125 7.859375 
z
" id="ArialMT-74"/>
      <path d="M 6.640625 61.46875 
L 6.640625 71.578125 
L 15.4375 71.578125 
L 15.4375 61.46875 
z
M 6.640625 0 
L 6.640625 51.859375 
L 15.4375 51.859375 
L 15.4375 0 
z
" id="ArialMT-69"/>
      <path d="M 6.59375 0 
L 6.59375 51.859375 
L 14.453125 51.859375 
L 14.453125 44.578125 
Q 16.890625 48.390625 20.9375 50.703125 
Q 25 53.03125 30.171875 53.03125 
Q 35.9375 53.03125 39.625 50.640625 
Q 43.3125 48.25 44.828125 43.953125 
Q 50.984375 53.03125 60.84375 53.03125 
Q 68.5625 53.03125 72.703125 48.75 
Q 76.859375 44.484375 76.859375 35.59375 
L 76.859375 0 
L 68.109375 0 
L 68.109375 32.671875 
Q 68.109375 37.9375 67.25 40.25 
Q 66.40625 42.578125 64.15625 43.984375 
Q 61.921875 45.40625 58.890625 45.40625 
Q 53.421875 45.40625 49.796875 41.765625 
Q 46.1875 38.140625 46.1875 30.125 
L 46.1875 0 
L 37.40625 0 
L 37.40625 33.6875 
Q 37.40625 39.546875 35.25 42.46875 
Q 33.109375 45.40625 28.21875 45.40625 
Q 24.515625 45.40625 21.359375 43.453125 
Q 18.21875 41.5 16.796875 37.734375 
Q 15.375 33.984375 15.375 26.90625 
L 15.375 0 
z
" id="ArialMT-6d"/>
      <path d="M 42.09375 16.703125 
L 51.171875 15.578125 
Q 49.03125 7.625 43.21875 3.21875 
Q 37.40625 -1.171875 28.375 -1.171875 
Q 17 -1.171875 10.328125 5.828125 
Q 3.65625 12.84375 3.65625 25.484375 
Q 3.65625 38.578125 10.390625 45.796875 
Q 17.140625 53.03125 27.875 53.03125 
Q 38.28125 53.03125 44.875 45.953125 
Q 51.46875 38.875 51.46875 26.03125 
Q 51.46875 25.25 51.421875 23.6875 
L 12.75 23.6875 
Q 13.234375 15.140625 17.578125 10.59375 
Q 21.921875 6.0625 28.421875 6.0625 
Q 33.25 6.0625 36.671875 8.59375 
Q 40.09375 11.140625 42.09375 16.703125 
z
M 13.234375 30.90625 
L 42.1875 30.90625 
Q 41.609375 37.453125 38.875 40.71875 
Q 34.671875 45.796875 27.984375 45.796875 
Q 21.921875 45.796875 17.796875 41.75 
Q 13.671875 37.703125 13.234375 30.90625 
z
" id="ArialMT-65"/>
      <path id="ArialMT-20"/>
      <path d="M 23.390625 -21.046875 
Q 16.109375 -11.859375 11.078125 0.4375 
Q 6.0625 12.75 6.0625 25.921875 
Q 6.0625 37.546875 9.8125 48.1875 
Q 14.203125 60.546875 23.390625 72.796875 
L 29.6875 72.796875 
Q 23.78125 62.640625 21.875 58.296875 
Q 18.890625 51.5625 17.1875 44.234375 
Q 15.09375 35.109375 15.09375 25.875 
Q 15.09375 2.390625 29.6875 -21.046875 
z
" id="ArialMT-28"/>
      <path d="M 3.078125 15.484375 
L 11.765625 16.84375 
Q 12.5 11.625 15.84375 8.84375 
Q 19.1875 6.0625 25.203125 6.0625 
Q 31.25 6.0625 34.171875 8.515625 
Q 37.109375 10.984375 37.109375 14.3125 
Q 37.109375 17.28125 34.515625 19 
Q 32.71875 20.171875 25.53125 21.96875 
Q 15.875 24.421875 12.140625 26.203125 
Q 8.40625 27.984375 6.46875 31.125 
Q 4.546875 34.28125 4.546875 38.09375 
Q 4.546875 41.546875 6.125 44.5 
Q 7.71875 47.46875 10.453125 49.421875 
Q 12.5 50.921875 16.03125 51.96875 
Q 19.578125 53.03125 23.640625 53.03125 
Q 29.734375 53.03125 34.34375 51.265625 
Q 38.96875 49.515625 41.15625 46.5 
Q 43.359375 43.5 44.1875 38.484375 
L 35.59375 37.3125 
Q 35.015625 41.3125 32.203125 43.546875 
Q 29.390625 45.796875 24.265625 45.796875 
Q 18.21875 45.796875 15.625 43.796875 
Q 13.03125 41.796875 13.03125 39.109375 
Q 13.03125 37.40625 14.109375 36.03125 
Q 15.1875 34.625 17.484375 33.6875 
Q 18.796875 33.203125 25.25 31.453125 
Q 34.578125 28.953125 38.25 27.359375 
Q 41.9375 25.78125 44.03125 22.75 
Q 46.140625 19.734375 46.140625 15.234375 
Q 46.140625 10.84375 43.578125 6.953125 
Q 41.015625 3.078125 36.171875 0.953125 
Q 31.34375 -1.171875 25.25 -1.171875 
Q 15.140625 -1.171875 9.84375 3.03125 
Q 4.546875 7.234375 3.078125 15.484375 
z
" id="ArialMT-73"/>
      <path d="M 12.359375 -21.046875 
L 6.0625 -21.046875 
Q 20.65625 2.390625 20.65625 25.875 
Q 20.65625 35.0625 18.5625 44.09375 
Q 16.890625 51.421875 13.921875 58.15625 
Q 12.015625 62.546875 6.0625 72.796875 
L 12.359375 72.796875 
Q 21.53125 60.546875 25.921875 48.1875 
Q 29.6875 37.546875 29.6875 25.921875 
Q 29.6875 12.75 24.625 0.4375 
Q 19.578125 -11.859375 12.359375 -21.046875 
z
" id="ArialMT-29"/>
     </defs>
     <g style="fill:#262626;" transform="translate(1581.350156 943.251562)scale(0.38 -0.38)">
      <use xlink:href="#ArialMT-74"/>
      <use x="27.783203" xlink:href="#ArialMT-69"/>
      <use x="50" xlink:href="#ArialMT-6d"/>
      <use x="133.300781" xlink:href="#ArialMT-65"/>
      <use x="188.916016" xlink:href="#ArialMT-20"/>
      <use x="216.699219" xlink:href="#ArialMT-28"/>
      <use x="250" xlink:href="#ArialMT-6d"/>
      <use x="333.300781" xlink:href="#ArialMT-73"/>
      <use x="383.300781" xlink:href="#ArialMT-29"/>
     </g>
    </g>
   </g>
   <g id="matplotlib.axis_2">
    <g id="ytick_1">
     <g id="line2d_8">
      <path clip-path="url(#pd1b4800cbd)" d="M 405 854.587458 
L 2916 854.587458 
" style="fill:none;stroke:#ffffff;stroke-linecap:round;"/>
     </g>
     <g id="text_9">
      <!-- 10 -->
      <g style="fill:#262626;" transform="translate(371.031875 862.461052)scale(0.22 -0.22)">
       <use xlink:href="#Arial-BoldMT-31"/>
       <use x="55.615234" xlink:href="#Arial-BoldMT-30"/>
      </g>
     </g>
    </g>
    <g id="ytick_2">
     <g id="line2d_9">
      <path clip-path="url(#pd1b4800cbd)" d="M 405 712.58984 
L 2916 712.58984 
" style="fill:none;stroke:#ffffff;stroke-linecap:round;"/>
     </g>
     <g id="text_10">
      <!-- 20 -->
      <g style="fill:#262626;" transform="translate(371.031875 720.463433)scale(0.22 -0.22)">
       <use xlink:href="#Arial-BoldMT-32"/>
       <use x="55.615234" xlink:href="#Arial-BoldMT-30"/>
      </g>
     </g>
    </g>
    <g id="ytick_3">
     <g id="line2d_10">
      <path clip-path="url(#pd1b4800cbd)" d="M 405 570.592221 
L 2916 570.592221 
" style="fill:none;stroke:#ffffff;stroke-linecap:round;"/>
     </g>
     <g id="text_11">
      <!-- 30 -->
      <g style="fill:#262626;" transform="translate(371.031875 578.465814)scale(0.22 -0.22)">
       <use xlink:href="#Arial-BoldMT-33"/>
       <use x="55.615234" xlink:href="#Arial-BoldMT-30"/>
      </g>
     </g>
    </g>
    <g id="ytick_4">
     <g id="line2d_11">
      <path clip-path="url(#pd1b4800cbd)" d="M 405 428.594602 
L 2916 428.594602 
" style="fill:none;stroke:#ffffff;stroke-linecap:round;"/>
     </g>
     <g id="text_12">
      <!-- 40 -->
      <defs>
       <path d="M 31.15625 0 
L 31.15625 14.40625 
L 1.859375 14.40625 
L 1.859375 26.421875 
L 32.90625 71.875 
L 44.4375 71.875 
L 44.4375 26.46875 
L 53.328125 26.46875 
L 53.328125 14.40625 
L 44.4375 14.40625 
L 44.4375 0 
z
M 31.15625 26.46875 
L 31.15625 50.921875 
L 14.703125 26.46875 
z
" id="Arial-BoldMT-34"/>
      </defs>
      <g style="fill:#262626;" transform="translate(371.031875 436.468195)scale(0.22 -0.22)">
       <use xlink:href="#Arial-BoldMT-34"/>
       <use x="55.615234" xlink:href="#Arial-BoldMT-30"/>
      </g>
     </g>
    </g>
    <g id="ytick_5">
     <g id="line2d_12">
      <path clip-path="url(#pd1b4800cbd)" d="M 405 286.596983 
L 2916 286.596983 
" style="fill:none;stroke:#ffffff;stroke-linecap:round;"/>
     </g>
     <g id="text_13">
      <!-- 50 -->
      <g style="fill:#262626;" transform="translate(371.031875 294.470576)scale(0.22 -0.22)">
       <use xlink:href="#Arial-BoldMT-35"/>
       <use x="55.615234" xlink:href="#Arial-BoldMT-30"/>
      </g>
     </g>
    </g>
    <g id="ytick_6">
     <g id="line2d_13">
      <path clip-path="url(#pd1b4800cbd)" d="M 405 144.599364 
L 2916 144.599364 
" style="fill:none;stroke:#ffffff;stroke-linecap:round;"/>
     </g>
     <g id="text_14">
      <!-- 60 -->
      <defs>
       <path d="M 50.734375 54.046875 
L 37.453125 52.59375 
Q 36.96875 56.6875 34.90625 58.640625 
Q 32.859375 60.59375 29.59375 60.59375 
Q 25.25 60.59375 22.234375 56.6875 
Q 19.234375 52.78125 18.453125 40.4375 
Q 23.578125 46.484375 31.203125 46.484375 
Q 39.796875 46.484375 45.921875 39.9375 
Q 52.046875 33.40625 52.046875 23.046875 
Q 52.046875 12.0625 45.59375 5.421875 
Q 39.15625 -1.21875 29.046875 -1.21875 
Q 18.21875 -1.21875 11.234375 7.203125 
Q 4.25 15.625 4.25 34.8125 
Q 4.25 54.5 11.515625 63.1875 
Q 18.796875 71.875 30.421875 71.875 
Q 38.578125 71.875 43.921875 67.3125 
Q 49.265625 62.75 50.734375 54.046875 
z
M 19.625 24.125 
Q 19.625 17.4375 22.703125 13.796875 
Q 25.78125 10.15625 29.734375 10.15625 
Q 33.546875 10.15625 36.078125 13.125 
Q 38.625 16.109375 38.625 22.90625 
Q 38.625 29.890625 35.890625 33.125 
Q 33.15625 36.375 29.046875 36.375 
Q 25.09375 36.375 22.359375 33.265625 
Q 19.625 30.171875 19.625 24.125 
z
" id="Arial-BoldMT-36"/>
      </defs>
      <g style="fill:#262626;" transform="translate(371.031875 152.472957)scale(0.22 -0.22)">
       <use xlink:href="#Arial-BoldMT-36"/>
       <use x="55.615234" xlink:href="#Arial-BoldMT-30"/>
      </g>
     </g>
    </g>
    <g id="text_15">
     <!-- rate (Hz) -->
     <defs>
      <path d="M 6.5 0 
L 6.5 51.859375 
L 14.40625 51.859375 
L 14.40625 44 
Q 17.4375 49.515625 20 51.265625 
Q 22.5625 53.03125 25.640625 53.03125 
Q 30.078125 53.03125 34.671875 50.203125 
L 31.640625 42.046875 
Q 28.421875 43.953125 25.203125 43.953125 
Q 22.3125 43.953125 20.015625 42.21875 
Q 17.71875 40.484375 16.75 37.40625 
Q 15.28125 32.71875 15.28125 27.15625 
L 15.28125 0 
z
" id="ArialMT-72"/>
      <path d="M 40.4375 6.390625 
Q 35.546875 2.25 31.03125 0.53125 
Q 26.515625 -1.171875 21.34375 -1.171875 
Q 12.796875 -1.171875 8.203125 3 
Q 3.609375 7.171875 3.609375 13.671875 
Q 3.609375 17.484375 5.34375 20.625 
Q 7.078125 23.78125 9.890625 25.6875 
Q 12.703125 27.59375 16.21875 28.5625 
Q 18.796875 29.25 24.03125 29.890625 
Q 34.671875 31.15625 39.703125 32.90625 
Q 39.75 34.71875 39.75 35.203125 
Q 39.75 40.578125 37.25 42.78125 
Q 33.890625 45.75 27.25 45.75 
Q 21.046875 45.75 18.09375 43.578125 
Q 15.140625 41.40625 13.71875 35.890625 
L 5.125 37.0625 
Q 6.296875 42.578125 8.984375 45.96875 
Q 11.671875 49.359375 16.75 51.1875 
Q 21.828125 53.03125 28.515625 53.03125 
Q 35.15625 53.03125 39.296875 51.46875 
Q 43.453125 49.90625 45.40625 47.53125 
Q 47.359375 45.171875 48.140625 41.546875 
Q 48.578125 39.3125 48.578125 33.453125 
L 48.578125 21.734375 
Q 48.578125 9.46875 49.140625 6.21875 
Q 49.703125 2.984375 51.375 0 
L 42.1875 0 
Q 40.828125 2.734375 40.4375 6.390625 
z
M 39.703125 26.03125 
Q 34.90625 24.078125 25.34375 22.703125 
Q 19.921875 21.921875 17.671875 20.9375 
Q 15.4375 19.96875 14.203125 18.09375 
Q 12.984375 16.21875 12.984375 13.921875 
Q 12.984375 10.40625 15.640625 8.0625 
Q 18.3125 5.71875 23.4375 5.71875 
Q 28.515625 5.71875 32.46875 7.9375 
Q 36.421875 10.15625 38.28125 14.015625 
Q 39.703125 17 39.703125 22.796875 
z
" id="ArialMT-61"/>
      <path d="M 8.015625 0 
L 8.015625 71.578125 
L 17.484375 71.578125 
L 17.484375 42.1875 
L 54.6875 42.1875 
L 54.6875 71.578125 
L 64.15625 71.578125 
L 64.15625 0 
L 54.6875 0 
L 54.6875 33.734375 
L 17.484375 33.734375 
L 17.484375 0 
z
" id="ArialMT-48"/>
      <path d="M 1.953125 0 
L 1.953125 7.125 
L 34.96875 45.015625 
Q 29.34375 44.734375 25.046875 44.734375 
L 3.90625 44.734375 
L 3.90625 51.859375 
L 46.296875 51.859375 
L 46.296875 46.046875 
L 18.21875 13.140625 
L 12.796875 7.125 
Q 18.703125 7.5625 23.875 7.5625 
L 47.859375 7.5625 
L 47.859375 0 
z
" id="ArialMT-7a"/>
     </defs>
     <g style="fill:#262626;" transform="translate(359.034063 575.369219)rotate(-90)scale(0.38 -0.38)">
      <use xlink:href="#ArialMT-72"/>
      <use x="33.300781" xlink:href="#ArialMT-61"/>
      <use x="88.916016" xlink:href="#ArialMT-74"/>
      <use x="116.699219" xlink:href="#ArialMT-65"/>
      <use x="172.314453" xlink:href="#ArialMT-20"/>
      <use x="200.097656" xlink:href="#ArialMT-28"/>
      <use x="233.398438" xlink:href="#ArialMT-48"/>
      <use x="305.615234" xlink:href="#ArialMT-7a"/>
      <use x="355.615234" xlink:href="#ArialMT-29"/>
     </g>
    </g>
   </g>
   <g id="line2d_14">
    <path clip-path="url(#pd1b4800cbd)" d="M 405 731.585278 
L 416.718 699.511207 
L 425.088 677.222594 
L 431.784 660.016508 
L 438.48 643.536709 
L 443.502 631.740291 
L 448.524 620.487207 
L 453.546 609.824542 
L 458.568 599.791717 
L 463.59 590.419707 
L 466.938 584.550009 
L 470.286 578.988038 
L 473.634 573.735949 
L 476.982 568.793899 
L 480.33 564.160023 
L 483.678 559.830421 
L 487.026 555.799165 
L 490.374 552.058322 
L 493.722 548.597988 
L 497.07 545.406339 
L 500.418 542.469698 
L 503.766 539.772618 
L 507.114 537.297975 
L 510.462 535.027078 
L 515.484 531.958349 
L 520.506 529.229106 
L 525.528 526.760517 
L 532.224 523.730453 
L 545.616 517.795068 
L 550.638 515.345662 
L 555.66 512.64269 
L 560.682 509.606939 
L 564.03 507.361641 
L 567.378 504.915507 
L 570.726 502.249979 
L 574.074 499.348209 
L 577.422 496.195201 
L 580.77 492.777952 
L 584.118 489.085565 
L 587.466 485.109365 
L 590.814 480.842987 
L 594.162 476.282459 
L 597.51 471.426261 
L 600.858 466.275374 
L 604.206 460.833306 
L 609.228 452.138162 
L 614.25 442.833139 
L 619.272 432.961901 
L 624.294 422.580287 
L 629.316 411.755689 
L 636.012 396.770282 
L 644.382 377.452954 
L 659.448 342.49454 
L 666.144 327.532149 
L 671.166 316.784656 
L 676.188 306.572605 
L 681.21 297.008698 
L 684.558 291.046339 
L 687.906 285.450505 
L 691.254 280.250103 
L 694.602 275.472344 
L 697.95 271.142559 
L 701.298 267.284027 
L 704.646 263.917814 
L 707.994 261.06263 
L 711.342 258.734707 
L 713.016 257.772835 
L 714.69 256.947686 
L 716.364 256.260547 
L 718.038 255.712532 
L 719.712 255.304581 
L 721.386 255.03746 
L 723.06 254.911759 
L 724.734 254.927891 
L 726.408 255.086092 
L 728.082 255.38642 
L 729.756 255.828758 
L 731.43 256.41281 
L 733.104 257.138106 
L 734.778 258.004003 
L 736.452 259.009682 
L 738.126 260.154156 
L 741.474 262.854699 
L 744.822 266.094404 
L 748.17 269.859483 
L 751.518 274.1337 
L 754.866 278.898506 
L 758.214 284.133178 
L 761.562 289.81499 
L 764.91 295.919384 
L 768.258 302.420159 
L 771.606 309.289673 
L 776.628 320.22187 
L 781.65 331.816965 
L 786.672 343.969912 
L 793.368 360.85688 
L 801.738 382.708342 
L 825.174 444.531062 
L 831.87 461.489185 
L 838.566 477.83959 
L 845.262 493.470641 
L 850.284 504.672678 
L 855.306 515.402609 
L 860.328 525.648181 
L 865.35 535.40638 
L 870.372 544.682822 
L 875.394 553.491014 
L 880.416 561.851513 
L 885.438 569.791005 
L 890.46 577.341329 
L 895.482 584.538472 
L 900.504 591.421556 
L 907.2 600.181969 
L 913.896 608.55818 
L 922.266 618.641119 
L 935.658 634.314912 
L 950.724 651.986627 
L 960.768 664.12453 
L 969.138 674.569965 
L 977.508 685.352852 
L 985.878 696.472437 
L 995.922 710.210618 
L 1009.314 728.990035 
L 1027.728 754.852127 
L 1036.098 766.214797 
L 1042.794 774.940924 
L 1047.816 781.198891 
L 1052.838 787.154586 
L 1057.86 792.754715 
L 1062.882 797.944182 
L 1066.23 801.147835 
L 1069.578 804.126912 
L 1072.926 806.864329 
L 1076.274 809.342966 
L 1079.622 811.545752 
L 1082.97 813.455754 
L 1086.318 815.056262 
L 1089.666 816.330894 
L 1093.014 817.263692 
L 1096.362 817.83923 
L 1099.71 818.042724 
L 1103.058 817.86014 
L 1106.406 817.278315 
L 1109.754 816.285065 
L 1113.102 814.869311 
L 1116.45 813.021184 
L 1119.798 810.732151 
L 1123.146 807.995118 
L 1126.494 804.804544 
L 1129.842 801.156547 
L 1133.19 797.048997 
L 1136.538 792.481613 
L 1139.886 787.456046 
L 1143.234 781.975951 
L 1146.582 776.047054 
L 1149.93 769.677206 
L 1153.278 762.876421 
L 1156.626 755.656905 
L 1159.974 748.03307 
L 1164.996 735.876159 
L 1170.018 722.912677 
L 1175.04 709.218633 
L 1180.062 694.880303 
L 1186.758 674.92728 
L 1193.454 654.251154 
L 1205.172 617.161159 
L 1216.89 580.280237 
L 1223.586 559.926741 
L 1228.608 545.234847 
L 1233.63 531.167851 
L 1238.652 517.838736 
L 1243.674 505.351934 
L 1247.022 497.54235 
L 1250.37 490.17433 
L 1253.718 483.27046 
L 1257.066 476.850663 
L 1260.414 470.932062 
L 1263.762 465.528854 
L 1267.11 460.652212 
L 1270.458 456.310212 
L 1273.806 452.507776 
L 1277.154 449.246652 
L 1280.502 446.525413 
L 1283.85 444.339479 
L 1285.524 443.444972 
L 1287.198 442.681176 
L 1288.872 442.046658 
L 1290.546 441.539805 
L 1292.22 441.158826 
L 1293.894 440.901753 
L 1295.568 440.76645 
L 1297.242 440.750613 
L 1298.916 440.851781 
L 1302.264 441.39451 
L 1305.612 442.371949 
L 1308.96 443.759229 
L 1312.308 445.529518 
L 1315.656 447.654248 
L 1319.004 450.103365 
L 1322.352 452.845576 
L 1325.7 455.848613 
L 1329.048 459.079499 
L 1334.07 464.279888 
L 1339.092 469.804462 
L 1347.462 479.42926 
L 1359.18 492.958089 
L 1365.876 500.302102 
L 1370.898 505.476545 
L 1375.92 510.289741 
L 1380.942 514.685921 
L 1384.29 517.362723 
L 1387.638 519.824098 
L 1390.986 522.062164 
L 1394.334 524.07133 
L 1397.682 525.848244 
L 1401.03 527.391734 
L 1404.378 528.702721 
L 1407.726 529.784121 
L 1411.074 530.640733 
L 1414.422 531.279106 
L 1417.77 531.70741 
L 1421.118 531.935285 
L 1424.466 531.973687 
L 1427.814 531.834731 
L 1431.162 531.531527 
L 1436.184 530.799435 
L 1441.206 529.778991 
L 1446.228 528.52202 
L 1452.924 526.569329 
L 1461.294 523.857676 
L 1476.36 518.899097 
L 1483.056 516.907948 
L 1489.752 515.161899 
L 1494.774 514.049027 
L 1499.796 513.125094 
L 1504.818 512.401912 
L 1509.84 511.885193 
L 1514.862 511.574548 
L 1519.884 511.463566 
L 1524.906 511.539954 
L 1531.602 511.901414 
L 1538.298 512.505943 
L 1546.668 513.490528 
L 1563.408 515.530821 
L 1570.104 516.073515 
L 1575.126 516.268057 
L 1580.148 516.222792 
L 1585.17 515.885666 
L 1588.518 515.473345 
L 1591.866 514.893537 
L 1595.214 514.131724 
L 1598.562 513.173869 
L 1601.91 512.006521 
L 1605.258 510.616909 
L 1608.606 508.993033 
L 1611.954 507.123762 
L 1615.302 504.998912 
L 1618.65 502.609329 
L 1621.998 499.946965 
L 1625.346 497.004939 
L 1628.694 493.777603 
L 1632.042 490.260586 
L 1635.39 486.45084 
L 1638.738 482.346672 
L 1642.086 477.947765 
L 1645.434 473.255192 
L 1648.782 468.271418 
L 1652.13 463.000298 
L 1657.152 454.566633 
L 1662.174 445.521764 
L 1667.196 435.895468 
L 1672.218 425.723669 
L 1677.24 415.047986 
L 1682.262 403.91522 
L 1688.958 388.449974 
L 1695.654 372.396715 
L 1704.024 351.721602 
L 1719.09 313.703938 
L 1730.808 284.390055 
L 1739.178 264.111678 
L 1745.874 248.521352 
L 1750.896 237.29886 
L 1755.918 226.550384 
L 1760.94 216.338462 
L 1765.962 206.724287 
L 1770.984 197.767569 
L 1774.332 192.19042 
L 1777.68 186.948063 
L 1781.028 182.056848 
L 1784.376 177.532683 
L 1787.724 173.390992 
L 1791.072 169.646664 
L 1794.42 166.313995 
L 1797.768 163.406629 
L 1801.116 160.937484 
L 1804.464 158.918682 
L 1807.812 157.361466 
L 1809.486 156.759206 
L 1811.16 156.276117 
L 1812.834 155.913321 
L 1814.508 155.671866 
L 1816.182 155.552727 
L 1817.856 155.556801 
L 1819.53 155.684905 
L 1821.204 155.937774 
L 1822.878 156.316055 
L 1824.552 156.820306 
L 1826.226 157.450996 
L 1827.9 158.208496 
L 1829.574 159.09308 
L 1832.922 161.244094 
L 1836.27 163.904177 
L 1839.618 167.071735 
L 1842.966 170.743368 
L 1846.314 174.913799 
L 1849.662 179.575821 
L 1853.01 184.720244 
L 1856.358 190.335866 
L 1859.706 196.409444 
L 1863.054 202.925695 
L 1866.402 209.867297 
L 1869.75 217.214916 
L 1873.098 224.947245 
L 1878.12 237.215771 
L 1883.142 250.211184 
L 1888.164 263.838884 
L 1894.86 282.815034 
L 1901.556 302.472904 
L 1914.948 342.725225 
L 1924.992 372.613592 
L 1931.688 391.872354 
L 1936.71 405.780016 
L 1941.732 419.115223 
L 1946.754 431.786217 
L 1951.776 443.7117 
L 1955.124 451.212991 
L 1958.472 458.334301 
L 1961.82 465.060825 
L 1965.168 471.380523 
L 1968.516 477.284202 
L 1971.864 482.765575 
L 1975.212 487.821294 
L 1978.56 492.450962 
L 1981.908 496.657125 
L 1985.256 500.445231 
L 1988.604 503.823576 
L 1991.952 506.803218 
L 1995.3 509.397878 
L 1998.648 511.623809 
L 2001.996 513.499651 
L 2005.344 515.046267 
L 2008.692 516.286558 
L 2012.04 517.245263 
L 2015.388 517.948745 
L 2018.736 518.424765 
L 2022.084 518.702243 
L 2025.432 518.811013 
L 2030.454 518.724668 
L 2037.15 518.306381 
L 2050.542 517.347732 
L 2055.564 517.245896 
L 2060.586 517.423405 
L 2063.934 517.735741 
L 2067.282 518.227668 
L 2070.63 518.917754 
L 2073.978 519.822352 
L 2077.326 520.955496 
L 2080.674 522.328821 
L 2084.022 523.95151 
L 2087.37 525.830254 
L 2090.718 527.969247 
L 2094.066 530.370197 
L 2097.414 533.03236 
L 2100.762 535.952598 
L 2104.11 539.125457 
L 2107.458 542.543264 
L 2110.806 546.196245 
L 2115.828 552.090481 
L 2120.85 558.439888 
L 2125.872 565.189412 
L 2130.894 572.277459 
L 2137.59 582.139027 
L 2145.96 594.890017 
L 2162.7 620.53983 
L 2169.396 630.406315 
L 2176.092 639.833364 
L 2181.114 646.543899 
L 2186.136 652.89959 
L 2191.158 658.866761 
L 2196.18 664.419487 
L 2201.202 669.539599 
L 2206.224 674.216495 
L 2209.572 677.086235 
L 2212.92 679.758012 
L 2216.268 682.233737 
L 2219.616 684.516461 
L 2222.964 686.610279 
L 2226.312 688.52021 
L 2229.66 690.252082 
L 2233.008 691.81241 
L 2238.03 693.846844 
L 2243.052 695.536852 
L 2248.074 696.909169 
L 2253.096 697.990773 
L 2258.118 698.80798 
L 2263.14 699.385597 
L 2268.162 699.746172 
L 2273.184 699.909339 
L 2278.206 699.89127 
L 2284.902 699.605914 
L 2291.598 699.037272 
L 2298.294 698.189144 
L 2304.99 697.051705 
L 2310.012 695.995573 
L 2315.034 694.750303 
L 2320.056 693.29881 
L 2325.078 691.62132 
L 2330.1 689.695953 
L 2335.122 687.499353 
L 2340.144 685.007353 
L 2345.166 682.195656 
L 2350.188 679.040524 
L 2355.21 675.519457 
L 2360.232 671.611845 
L 2365.254 667.299586 
L 2370.276 662.56766 
L 2375.298 657.404646 
L 2380.32 651.803171 
L 2385.342 645.760293 
L 2390.364 639.277804 
L 2395.386 632.362455 
L 2400.408 625.026096 
L 2405.43 617.285732 
L 2410.452 609.163497 
L 2415.474 600.686544 
L 2422.17 588.8881 
L 2428.866 576.604711 
L 2437.236 560.723815 
L 2448.954 537.910671 
L 2464.02 508.583522 
L 2472.39 492.800828 
L 2479.086 480.660704 
L 2484.108 471.922952 
L 2489.13 463.557083 
L 2494.152 455.61153 
L 2499.174 448.131576 
L 2504.196 441.158962 
L 2507.544 436.811272 
L 2510.892 432.716175 
L 2514.24 428.883016 
L 2517.588 425.320264 
L 2520.936 422.035491 
L 2524.284 419.035358 
L 2527.632 416.325613 
L 2530.98 413.911085 
L 2534.328 411.795685 
L 2537.676 409.982421 
L 2541.024 408.473402 
L 2544.372 407.269865 
L 2547.72 406.372187 
L 2551.068 405.779919 
L 2554.416 405.49181 
L 2557.764 405.505841 
L 2561.112 405.81926 
L 2564.46 406.428619 
L 2567.808 407.329818 
L 2571.156 408.51814 
L 2574.504 409.988302 
L 2577.852 411.734494 
L 2581.2 413.750427 
L 2584.548 416.029379 
L 2587.896 418.56424 
L 2591.244 421.347558 
L 2594.592 424.371586 
L 2597.94 427.628323 
L 2601.288 431.109564 
L 2606.31 436.734021 
L 2611.332 442.816003 
L 2616.354 449.326432 
L 2621.376 456.236156 
L 2626.398 463.516189 
L 2631.42 471.137922 
L 2638.116 481.783366 
L 2644.812 492.921918 
L 2651.508 504.491585 
L 2659.878 519.469937 
L 2668.248 534.919793 
L 2678.292 553.936179 
L 2691.684 579.820809 
L 2723.49 641.55272 
L 2733.534 660.468351 
L 2741.904 675.790456 
L 2750.274 690.598528 
L 2756.97 702.005302 
L 2763.666 712.966937 
L 2770.362 723.437755 
L 2775.384 730.944548 
L 2780.406 738.138586 
L 2785.428 745.008487 
L 2790.45 751.545939 
L 2795.472 757.746006 
L 2800.494 763.607376 
L 2805.516 769.132547 
L 2810.538 774.327945 
L 2815.56 779.203958 
L 2820.582 783.774891 
L 2825.604 788.058829 
L 2830.626 792.07742 
L 2835.648 795.855566 
L 2842.344 800.567434 
L 2849.04 804.973783 
L 2857.41 810.170744 
L 2870.802 818.13878 
L 2882.52 825.189188 
L 2890.89 830.489465 
L 2897.586 834.974398 
L 2904.282 839.724052 
L 2910.978 844.768608 
L 2914.326 847.407273 
L 2914.326 847.407273 
" style="fill:none;stroke:#4c72b0;stroke-linecap:round;stroke-width:1.5;"/>
   </g>
   <g id="patch_3">
    <path d="M 405 882 
L 405 120.96 
" style="fill:none;stroke:#ffffff;stroke-linecap:square;stroke-linejoin:miter;stroke-width:1.25;"/>
   </g>
   <g id="patch_4">
    <path d="M 2916 882 
L 2916 120.96 
" style="fill:none;stroke:#ffffff;stroke-linecap:square;stroke-linejoin:miter;stroke-width:1.25;"/>
   </g>
   <g id="patch_5">
    <path d="M 405 882 
L 2916 882 
" style="fill:none;stroke:#ffffff;stroke-linecap:square;stroke-linejoin:miter;stroke-width:1.25;"/>
   </g>
   <g id="patch_6">
    <path d="M 405 120.96 
L 2916 120.96 
" style="fill:none;stroke:#ffffff;stroke-linecap:square;stroke-linejoin:miter;stroke-width:1.25;"/>
   </g>
   <g id="text_16">
    <!-- gaussian window -->
    <defs>
     <path d="M 4.984375 -4.296875 
L 13.53125 -5.5625 
Q 14.0625 -9.515625 16.5 -11.328125 
Q 19.78125 -13.765625 25.4375 -13.765625 
Q 31.546875 -13.765625 34.859375 -11.328125 
Q 38.1875 -8.890625 39.359375 -4.5 
Q 40.046875 -1.8125 39.984375 6.78125 
Q 34.234375 0 25.640625 0 
Q 14.9375 0 9.078125 7.71875 
Q 3.21875 15.4375 3.21875 26.21875 
Q 3.21875 33.640625 5.90625 39.90625 
Q 8.59375 46.1875 13.6875 49.609375 
Q 18.796875 53.03125 25.6875 53.03125 
Q 34.859375 53.03125 40.828125 45.609375 
L 40.828125 51.859375 
L 48.921875 51.859375 
L 48.921875 7.03125 
Q 48.921875 -5.078125 46.453125 -10.125 
Q 44 -15.1875 38.640625 -18.109375 
Q 33.296875 -21.046875 25.484375 -21.046875 
Q 16.21875 -21.046875 10.5 -16.875 
Q 4.78125 -12.703125 4.984375 -4.296875 
z
M 12.25 26.859375 
Q 12.25 16.65625 16.296875 11.96875 
Q 20.359375 7.28125 26.46875 7.28125 
Q 32.515625 7.28125 36.609375 11.9375 
Q 40.71875 16.609375 40.71875 26.5625 
Q 40.71875 36.078125 36.5 40.90625 
Q 32.28125 45.75 26.3125 45.75 
Q 20.453125 45.75 16.34375 40.984375 
Q 12.25 36.234375 12.25 26.859375 
z
" id="ArialMT-67"/>
     <path d="M 40.578125 0 
L 40.578125 7.625 
Q 34.515625 -1.171875 24.125 -1.171875 
Q 19.53125 -1.171875 15.546875 0.578125 
Q 11.578125 2.34375 9.640625 5 
Q 7.71875 7.671875 6.9375 11.53125 
Q 6.390625 14.109375 6.390625 19.734375 
L 6.390625 51.859375 
L 15.1875 51.859375 
L 15.1875 23.09375 
Q 15.1875 16.21875 15.71875 13.8125 
Q 16.546875 10.359375 19.234375 8.375 
Q 21.921875 6.390625 25.875 6.390625 
Q 29.828125 6.390625 33.296875 8.421875 
Q 36.765625 10.453125 38.203125 13.9375 
Q 39.65625 17.4375 39.65625 24.078125 
L 39.65625 51.859375 
L 48.4375 51.859375 
L 48.4375 0 
z
" id="ArialMT-75"/>
     <path d="M 6.59375 0 
L 6.59375 51.859375 
L 14.5 51.859375 
L 14.5 44.484375 
Q 20.21875 53.03125 31 53.03125 
Q 35.6875 53.03125 39.625 51.34375 
Q 43.5625 49.65625 45.515625 46.921875 
Q 47.46875 44.1875 48.25 40.4375 
Q 48.734375 37.984375 48.734375 31.890625 
L 48.734375 0 
L 39.9375 0 
L 39.9375 31.546875 
Q 39.9375 36.921875 38.90625 39.578125 
Q 37.890625 42.234375 35.28125 43.8125 
Q 32.671875 45.40625 29.15625 45.40625 
Q 23.53125 45.40625 19.453125 41.84375 
Q 15.375 38.28125 15.375 28.328125 
L 15.375 0 
z
" id="ArialMT-6e"/>
     <path d="M 16.15625 0 
L 0.296875 51.859375 
L 9.375 51.859375 
L 17.625 21.921875 
L 20.703125 10.796875 
Q 20.90625 11.625 23.390625 21.484375 
L 31.640625 51.859375 
L 40.671875 51.859375 
L 48.4375 21.78125 
L 51.03125 11.859375 
L 54 21.875 
L 62.890625 51.859375 
L 71.4375 51.859375 
L 55.21875 0 
L 46.09375 0 
L 37.84375 31.0625 
L 35.84375 39.890625 
L 25.34375 0 
z
" id="ArialMT-77"/>
     <path d="M 40.234375 0 
L 40.234375 6.546875 
Q 35.296875 -1.171875 25.734375 -1.171875 
Q 19.53125 -1.171875 14.328125 2.25 
Q 9.125 5.671875 6.265625 11.796875 
Q 3.421875 17.921875 3.421875 25.875 
Q 3.421875 33.640625 6 39.96875 
Q 8.59375 46.296875 13.765625 49.65625 
Q 18.953125 53.03125 25.34375 53.03125 
Q 30.03125 53.03125 33.6875 51.046875 
Q 37.359375 49.078125 39.65625 45.90625 
L 39.65625 71.578125 
L 48.390625 71.578125 
L 48.390625 0 
z
M 12.453125 25.875 
Q 12.453125 15.921875 16.640625 10.984375 
Q 20.84375 6.0625 26.5625 6.0625 
Q 32.328125 6.0625 36.34375 10.765625 
Q 40.375 15.484375 40.375 25.140625 
Q 40.375 35.796875 36.265625 40.765625 
Q 32.171875 45.75 26.171875 45.75 
Q 20.3125 45.75 16.375 40.96875 
Q 12.453125 36.1875 12.453125 25.875 
z
" id="ArialMT-64"/>
     <path d="M 3.328125 25.921875 
Q 3.328125 40.328125 11.328125 47.265625 
Q 18.015625 53.03125 27.640625 53.03125 
Q 38.328125 53.03125 45.109375 46.015625 
Q 51.90625 39.015625 51.90625 26.65625 
Q 51.90625 16.65625 48.90625 10.90625 
Q 45.90625 5.171875 40.15625 2 
Q 34.421875 -1.171875 27.640625 -1.171875 
Q 16.75 -1.171875 10.03125 5.8125 
Q 3.328125 12.796875 3.328125 25.921875 
z
M 12.359375 25.921875 
Q 12.359375 15.96875 16.703125 11.015625 
Q 21.046875 6.0625 27.640625 6.0625 
Q 34.1875 6.0625 38.53125 11.03125 
Q 42.875 16.015625 42.875 26.21875 
Q 42.875 35.84375 38.5 40.796875 
Q 34.125 45.75 27.640625 45.75 
Q 21.046875 45.75 16.703125 40.8125 
Q 12.359375 35.890625 12.359375 25.921875 
z
" id="ArialMT-6f"/>
    </defs>
    <g style="fill:#262626;" transform="translate(1515.809062 114.96)scale(0.38 -0.38)">
     <use xlink:href="#ArialMT-67"/>
     <use x="55.615234" xlink:href="#ArialMT-61"/>
     <use x="111.230469" xlink:href="#ArialMT-75"/>
     <use x="166.845703" xlink:href="#ArialMT-73"/>
     <use x="216.845703" xlink:href="#ArialMT-73"/>
     <use x="266.845703" xlink:href="#ArialMT-69"/>
     <use x="289.0625" xlink:href="#ArialMT-61"/>
     <use x="344.677734" xlink:href="#ArialMT-6e"/>
     <use x="400.292969" xlink:href="#ArialMT-20"/>
     <use x="428.076172" xlink:href="#ArialMT-77"/>
     <use x="500.292969" xlink:href="#ArialMT-69"/>
     <use x="522.509766" xlink:href="#ArialMT-6e"/>
     <use x="578.125" xlink:href="#ArialMT-64"/>
     <use x="633.740234" xlink:href="#ArialMT-6f"/>
     <use x="689.355469" xlink:href="#ArialMT-77"/>
    </g>
   </g>
  </g>
 </g>
 <defs>
  <clipPath id="pd1b4800cbd">
   <rect height="761.04" width="2511" x="405" y="120.96"/>
  </clipPath>
 </defs>
</svg>
