<?xml version="1.0" encoding="utf-8" standalone="no"?>
<!DOCTYPE svg PUBLIC "-//W3C//DTD SVG 1.1//EN"
  "http://www.w3.org/Graphics/SVG/1.1/DTD/svg11.dtd">
<!-- Created with matplotlib (http://matplotlib.org/) -->
<svg height="1008pt" version="1.1" viewBox="0 0 3240 1008" width="3240pt" xmlns="http://www.w3.org/2000/svg" xmlns:xlink="http://www.w3.org/1999/xlink">
 <defs>
  <style type="text/css">
*{stroke-linecap:butt;stroke-linejoin:round;}
  </style>
 </defs>
 <g id="figure_1">
  <g id="patch_1">
   <path d="M 0 1008 
L 3240 1008 
L 3240 0 
L 0 0 
z
" style="fill:#ffffff;"/>
  </g>
  <g id="axes_1">
   <g id="patch_2">
    <path d="M 405 882 
L 2916 882 
L 2916 120.96 
L 405 120.96 
z
" style="fill:#eaeaf2;"/>
   </g>
   <g id="matplotlib.axis_1">
    <g id="xtick_1">
     <g id="line2d_1">
      <path clip-path="url(#p0f6fe5d5c2)" d="M 405 882 
L 405 120.96 
" style="fill:none;stroke:#ffffff;stroke-linecap:round;"/>
     </g>
     <g id="text_1">
      <!-- 0 -->
      <defs>
       <path d="M 27.4375 71.875 
Q 37.84375 71.875 43.703125 64.453125 
Q 50.6875 55.671875 50.6875 35.296875 
Q 50.6875 14.984375 43.65625 6.109375 
Q 37.84375 -1.21875 27.4375 -1.21875 
Q 17 -1.21875 10.59375 6.8125 
Q 4.203125 14.84375 4.203125 35.453125 
Q 4.203125 55.671875 11.234375 64.546875 
Q 17.046875 71.875 27.4375 71.875 
z
M 27.4375 60.5 
Q 24.953125 60.5 23 58.90625 
Q 21.046875 57.328125 19.96875 53.21875 
Q 18.5625 47.90625 18.5625 35.296875 
Q 18.5625 22.703125 19.828125 17.984375 
Q 21.09375 13.28125 23.015625 11.71875 
Q 24.953125 10.15625 27.4375 10.15625 
Q 29.9375 10.15625 31.890625 11.734375 
Q 33.84375 13.328125 34.90625 17.4375 
Q 36.328125 22.703125 36.328125 35.296875 
Q 36.328125 47.90625 35.0625 52.609375 
Q 33.796875 57.328125 31.859375 58.90625 
Q 29.9375 60.5 27.4375 60.5 
z
" id="Arial-BoldMT-30"/>
      </defs>
      <g style="fill:#262626;" transform="translate(398.882969 907.247187)scale(0.22 -0.22)">
       <use xlink:href="#Arial-BoldMT-30"/>
      </g>
     </g>
    </g>
    <g id="xtick_2">
     <g id="line2d_2">
      <path clip-path="url(#p0f6fe5d5c2)" d="M 823.5 882 
L 823.5 120.96 
" style="fill:none;stroke:#ffffff;stroke-linecap:round;"/>
     </g>
     <g id="text_2">
      <!-- 500 -->
      <defs>
       <path d="M 4.4375 18.40625 
L 18.109375 19.828125 
Q 18.703125 15.1875 21.578125 12.46875 
Q 24.46875 9.765625 28.21875 9.765625 
Q 32.515625 9.765625 35.5 13.25 
Q 38.484375 16.75 38.484375 23.78125 
Q 38.484375 30.375 35.515625 33.671875 
Q 32.5625 36.96875 27.828125 36.96875 
Q 21.921875 36.96875 17.234375 31.734375 
L 6.109375 33.34375 
L 13.140625 70.609375 
L 49.421875 70.609375 
L 49.421875 57.765625 
L 23.53125 57.765625 
L 21.390625 45.609375 
Q 25.984375 47.90625 30.765625 47.90625 
Q 39.890625 47.90625 46.234375 41.265625 
Q 52.59375 34.625 52.59375 24.03125 
Q 52.59375 15.1875 47.46875 8.25 
Q 40.484375 -1.21875 28.078125 -1.21875 
Q 18.171875 -1.21875 11.921875 4.09375 
Q 5.671875 9.421875 4.4375 18.40625 
z
" id="Arial-BoldMT-35"/>
      </defs>
      <g style="fill:#262626;" transform="translate(805.148906 907.247187)scale(0.22 -0.22)">
       <use xlink:href="#Arial-BoldMT-35"/>
       <use x="55.615234" xlink:href="#Arial-BoldMT-30"/>
       <use x="111.230469" xlink:href="#Arial-BoldMT-30"/>
      </g>
     </g>
    </g>
    <g id="xtick_3">
     <g id="line2d_3">
      <path clip-path="url(#p0f6fe5d5c2)" d="M 1242 882 
L 1242 120.96 
" style="fill:none;stroke:#ffffff;stroke-linecap:round;"/>
     </g>
     <g id="text_3">
      <!-- 1000 -->
      <defs>
       <path d="M 39.359375 0 
L 25.640625 0 
L 25.640625 51.703125 
Q 18.109375 44.671875 7.90625 41.3125 
L 7.90625 53.765625 
Q 13.28125 55.515625 19.578125 60.421875 
Q 25.875 65.328125 28.21875 71.875 
L 39.359375 71.875 
z
" id="Arial-BoldMT-31"/>
      </defs>
      <g style="fill:#262626;" transform="translate(1217.531875 907.247187)scale(0.22 -0.22)">
       <use xlink:href="#Arial-BoldMT-31"/>
       <use x="55.615234" xlink:href="#Arial-BoldMT-30"/>
       <use x="111.230469" xlink:href="#Arial-BoldMT-30"/>
       <use x="166.845703" xlink:href="#Arial-BoldMT-30"/>
      </g>
     </g>
    </g>
    <g id="xtick_4">
     <g id="line2d_4">
      <path clip-path="url(#p0f6fe5d5c2)" d="M 1660.5 882 
L 1660.5 120.96 
" style="fill:none;stroke:#ffffff;stroke-linecap:round;"/>
     </g>
     <g id="text_4">
      <!-- 1500 -->
      <g style="fill:#262626;" transform="translate(1636.031875 907.247187)scale(0.22 -0.22)">
       <use xlink:href="#Arial-BoldMT-31"/>
       <use x="55.615234" xlink:href="#Arial-BoldMT-35"/>
       <use x="111.230469" xlink:href="#Arial-BoldMT-30"/>
       <use x="166.845703" xlink:href="#Arial-BoldMT-30"/>
      </g>
     </g>
    </g>
    <g id="xtick_5">
     <g id="line2d_5">
      <path clip-path="url(#p0f6fe5d5c2)" d="M 2079 882 
L 2079 120.96 
" style="fill:none;stroke:#ffffff;stroke-linecap:round;"/>
     </g>
     <g id="text_5">
      <!-- 2000 -->
      <defs>
       <path d="M 50.59375 12.75 
L 50.59375 0 
L 2.484375 0 
Q 3.265625 7.234375 7.171875 13.703125 
Q 11.078125 20.171875 22.609375 30.859375 
Q 31.890625 39.5 33.984375 42.578125 
Q 36.8125 46.828125 36.8125 50.984375 
Q 36.8125 55.5625 34.34375 58.03125 
Q 31.890625 60.5 27.546875 60.5 
Q 23.25 60.5 20.703125 57.90625 
Q 18.171875 55.328125 17.78125 49.3125 
L 4.109375 50.6875 
Q 5.328125 62.015625 11.765625 66.9375 
Q 18.21875 71.875 27.875 71.875 
Q 38.484375 71.875 44.53125 66.15625 
Q 50.59375 60.453125 50.59375 51.953125 
Q 50.59375 47.125 48.859375 42.75 
Q 47.125 38.375 43.359375 33.59375 
Q 40.875 30.421875 34.375 24.453125 
Q 27.875 18.5 26.140625 16.546875 
Q 24.421875 14.59375 23.34375 12.75 
z
" id="Arial-BoldMT-32"/>
      </defs>
      <g style="fill:#262626;" transform="translate(2054.531875 907.247187)scale(0.22 -0.22)">
       <use xlink:href="#Arial-BoldMT-32"/>
       <use x="55.615234" xlink:href="#Arial-BoldMT-30"/>
       <use x="111.230469" xlink:href="#Arial-BoldMT-30"/>
       <use x="166.845703" xlink:href="#Arial-BoldMT-30"/>
      </g>
     </g>
    </g>
    <g id="xtick_6">
     <g id="line2d_6">
      <path clip-path="url(#p0f6fe5d5c2)" d="M 2497.5 882 
L 2497.5 120.96 
" style="fill:none;stroke:#ffffff;stroke-linecap:round;"/>
     </g>
     <g id="text_6">
      <!-- 2500 -->
      <g style="fill:#262626;" transform="translate(2473.031875 907.247187)scale(0.22 -0.22)">
       <use xlink:href="#Arial-BoldMT-32"/>
       <use x="55.615234" xlink:href="#Arial-BoldMT-35"/>
       <use x="111.230469" xlink:href="#Arial-BoldMT-30"/>
       <use x="166.845703" xlink:href="#Arial-BoldMT-30"/>
      </g>
     </g>
    </g>
    <g id="xtick_7">
     <g id="line2d_7">
      <path clip-path="url(#p0f6fe5d5c2)" d="M 2916 882 
L 2916 120.96 
" style="fill:none;stroke:#ffffff;stroke-linecap:round;"/>
     </g>
     <g id="text_7">
      <!-- 3000 -->
      <defs>
       <path d="M 3.765625 19 
L 17.046875 20.609375 
Q 17.671875 15.53125 20.453125 12.84375 
Q 23.25 10.15625 27.203125 10.15625 
Q 31.453125 10.15625 34.34375 13.375 
Q 37.25 16.609375 37.25 22.078125 
Q 37.25 27.25 34.46875 30.265625 
Q 31.6875 33.296875 27.6875 33.296875 
Q 25.046875 33.296875 21.390625 32.28125 
L 22.90625 43.453125 
Q 28.46875 43.3125 31.390625 45.875 
Q 34.328125 48.4375 34.328125 52.6875 
Q 34.328125 56.296875 32.171875 58.4375 
Q 30.03125 60.59375 26.46875 60.59375 
Q 22.953125 60.59375 20.453125 58.15625 
Q 17.96875 55.71875 17.4375 51.03125 
L 4.78125 53.171875 
Q 6.109375 59.671875 8.765625 63.546875 
Q 11.421875 67.4375 16.1875 69.65625 
Q 20.953125 71.875 26.859375 71.875 
Q 36.96875 71.875 43.0625 65.4375 
Q 48.09375 60.15625 48.09375 53.515625 
Q 48.09375 44.09375 37.796875 38.484375 
Q 43.953125 37.15625 47.625 32.5625 
Q 51.3125 27.984375 51.3125 21.484375 
Q 51.3125 12.0625 44.421875 5.421875 
Q 37.546875 -1.21875 27.296875 -1.21875 
Q 17.578125 -1.21875 11.171875 4.375 
Q 4.78125 9.96875 3.765625 19 
z
" id="Arial-BoldMT-33"/>
      </defs>
      <g style="fill:#262626;" transform="translate(2891.531875 907.247187)scale(0.22 -0.22)">
       <use xlink:href="#Arial-BoldMT-33"/>
       <use x="55.615234" xlink:href="#Arial-BoldMT-30"/>
       <use x="111.230469" xlink:href="#Arial-BoldMT-30"/>
       <use x="166.845703" xlink:href="#Arial-BoldMT-30"/>
      </g>
     </g>
    </g>
    <g id="text_8">
     <!-- time (ms) -->
     <defs>
      <path d="M 25.78125 7.859375 
L 27.046875 0.09375 
Q 23.34375 -0.6875 20.40625 -0.6875 
Q 15.625 -0.6875 12.984375 0.828125 
Q 10.359375 2.34375 9.28125 4.8125 
Q 8.203125 7.28125 8.203125 15.1875 
L 8.203125 45.015625 
L 1.765625 45.015625 
L 1.765625 51.859375 
L 8.203125 51.859375 
L 8.203125 64.703125 
L 16.9375 69.96875 
L 16.9375 51.859375 
L 25.78125 51.859375 
L 25.78125 45.015625 
L 16.9375 45.015625 
L 16.9375 14.703125 
Q 16.9375 10.9375 17.40625 9.859375 
Q 17.875 8.796875 18.921875 8.15625 
Q 19.96875 7.515625 21.921875 7.515625 
Q 23.390625 7.515625 25.78125 7.859375 
z
" id="ArialMT-74"/>
      <path d="M 6.640625 61.46875 
L 6.640625 71.578125 
L 15.4375 71.578125 
L 15.4375 61.46875 
z
M 6.640625 0 
L 6.640625 51.859375 
L 15.4375 51.859375 
L 15.4375 0 
z
" id="ArialMT-69"/>
      <path d="M 6.59375 0 
L 6.59375 51.859375 
L 14.453125 51.859375 
L 14.453125 44.578125 
Q 16.890625 48.390625 20.9375 50.703125 
Q 25 53.03125 30.171875 53.03125 
Q 35.9375 53.03125 39.625 50.640625 
Q 43.3125 48.25 44.828125 43.953125 
Q 50.984375 53.03125 60.84375 53.03125 
Q 68.5625 53.03125 72.703125 48.75 
Q 76.859375 44.484375 76.859375 35.59375 
L 76.859375 0 
L 68.109375 0 
L 68.109375 32.671875 
Q 68.109375 37.9375 67.25 40.25 
Q 66.40625 42.578125 64.15625 43.984375 
Q 61.921875 45.40625 58.890625 45.40625 
Q 53.421875 45.40625 49.796875 41.765625 
Q 46.1875 38.140625 46.1875 30.125 
L 46.1875 0 
L 37.40625 0 
L 37.40625 33.6875 
Q 37.40625 39.546875 35.25 42.46875 
Q 33.109375 45.40625 28.21875 45.40625 
Q 24.515625 45.40625 21.359375 43.453125 
Q 18.21875 41.5 16.796875 37.734375 
Q 15.375 33.984375 15.375 26.90625 
L 15.375 0 
z
" id="ArialMT-6d"/>
      <path d="M 42.09375 16.703125 
L 51.171875 15.578125 
Q 49.03125 7.625 43.21875 3.21875 
Q 37.40625 -1.171875 28.375 -1.171875 
Q 17 -1.171875 10.328125 5.828125 
Q 3.65625 12.84375 3.65625 25.484375 
Q 3.65625 38.578125 10.390625 45.796875 
Q 17.140625 53.03125 27.875 53.03125 
Q 38.28125 53.03125 44.875 45.953125 
Q 51.46875 38.875 51.46875 26.03125 
Q 51.46875 25.25 51.421875 23.6875 
L 12.75 23.6875 
Q 13.234375 15.140625 17.578125 10.59375 
Q 21.921875 6.0625 28.421875 6.0625 
Q 33.25 6.0625 36.671875 8.59375 
Q 40.09375 11.140625 42.09375 16.703125 
z
M 13.234375 30.90625 
L 42.1875 30.90625 
Q 41.609375 37.453125 38.875 40.71875 
Q 34.671875 45.796875 27.984375 45.796875 
Q 21.921875 45.796875 17.796875 41.75 
Q 13.671875 37.703125 13.234375 30.90625 
z
" id="ArialMT-65"/>
      <path id="ArialMT-20"/>
      <path d="M 23.390625 -21.046875 
Q 16.109375 -11.859375 11.078125 0.4375 
Q 6.0625 12.75 6.0625 25.921875 
Q 6.0625 37.546875 9.8125 48.1875 
Q 14.203125 60.546875 23.390625 72.796875 
L 29.6875 72.796875 
Q 23.78125 62.640625 21.875 58.296875 
Q 18.890625 51.5625 17.1875 44.234375 
Q 15.09375 35.109375 15.09375 25.875 
Q 15.09375 2.390625 29.6875 -21.046875 
z
" id="ArialMT-28"/>
      <path d="M 3.078125 15.484375 
L 11.765625 16.84375 
Q 12.5 11.625 15.84375 8.84375 
Q 19.1875 6.0625 25.203125 6.0625 
Q 31.25 6.0625 34.171875 8.515625 
Q 37.109375 10.984375 37.109375 14.3125 
Q 37.109375 17.28125 34.515625 19 
Q 32.71875 20.171875 25.53125 21.96875 
Q 15.875 24.421875 12.140625 26.203125 
Q 8.40625 27.984375 6.46875 31.125 
Q 4.546875 34.28125 4.546875 38.09375 
Q 4.546875 41.546875 6.125 44.5 
Q 7.71875 47.46875 10.453125 49.421875 
Q 12.5 50.921875 16.03125 51.96875 
Q 19.578125 53.03125 23.640625 53.03125 
Q 29.734375 53.03125 34.34375 51.265625 
Q 38.96875 49.515625 41.15625 46.5 
Q 43.359375 43.5 44.1875 38.484375 
L 35.59375 37.3125 
Q 35.015625 41.3125 32.203125 43.546875 
Q 29.390625 45.796875 24.265625 45.796875 
Q 18.21875 45.796875 15.625 43.796875 
Q 13.03125 41.796875 13.03125 39.109375 
Q 13.03125 37.40625 14.109375 36.03125 
Q 15.1875 34.625 17.484375 33.6875 
Q 18.796875 33.203125 25.25 31.453125 
Q 34.578125 28.953125 38.25 27.359375 
Q 41.9375 25.78125 44.03125 22.75 
Q 46.140625 19.734375 46.140625 15.234375 
Q 46.140625 10.84375 43.578125 6.953125 
Q 41.015625 3.078125 36.171875 0.953125 
Q 31.34375 -1.171875 25.25 -1.171875 
Q 15.140625 -1.171875 9.84375 3.03125 
Q 4.546875 7.234375 3.078125 15.484375 
z
" id="ArialMT-73"/>
      <path d="M 12.359375 -21.046875 
L 6.0625 -21.046875 
Q 20.65625 2.390625 20.65625 25.875 
Q 20.65625 35.0625 18.5625 44.09375 
Q 16.890625 51.421875 13.921875 58.15625 
Q 12.015625 62.546875 6.0625 72.796875 
L 12.359375 72.796875 
Q 21.53125 60.546875 25.921875 48.1875 
Q 29.6875 37.546875 29.6875 25.921875 
Q 29.6875 12.75 24.625 0.4375 
Q 19.578125 -11.859375 12.359375 -21.046875 
z
" id="ArialMT-29"/>
     </defs>
     <g style="fill:#262626;" transform="translate(1581.350156 943.251562)scale(0.38 -0.38)">
      <use xlink:href="#ArialMT-74"/>
      <use x="27.783203" xlink:href="#ArialMT-69"/>
      <use x="50" xlink:href="#ArialMT-6d"/>
      <use x="133.300781" xlink:href="#ArialMT-65"/>
      <use x="188.916016" xlink:href="#ArialMT-20"/>
      <use x="216.699219" xlink:href="#ArialMT-28"/>
      <use x="250" xlink:href="#ArialMT-6d"/>
      <use x="333.300781" xlink:href="#ArialMT-73"/>
      <use x="383.300781" xlink:href="#ArialMT-29"/>
     </g>
    </g>
   </g>
   <g id="matplotlib.axis_2">
    <g id="ytick_1">
     <g id="line2d_8">
      <path clip-path="url(#p0f6fe5d5c2)" d="M 405 847.407273 
L 2916 847.407273 
" style="fill:none;stroke:#ffffff;stroke-linecap:round;"/>
     </g>
     <g id="text_9">
      <!-- 0 -->
      <g style="fill:#262626;" transform="translate(383.265938 855.280866)scale(0.22 -0.22)">
       <use xlink:href="#Arial-BoldMT-30"/>
      </g>
     </g>
    </g>
    <g id="ytick_2">
     <g id="line2d_9">
      <path clip-path="url(#p0f6fe5d5c2)" d="M 405 754.55311 
L 2916 754.55311 
" style="fill:none;stroke:#ffffff;stroke-linecap:round;"/>
     </g>
     <g id="text_10">
      <!-- 25 -->
      <g style="fill:#262626;" transform="translate(371.031875 762.426704)scale(0.22 -0.22)">
       <use xlink:href="#Arial-BoldMT-32"/>
       <use x="55.615234" xlink:href="#Arial-BoldMT-35"/>
      </g>
     </g>
    </g>
    <g id="ytick_3">
     <g id="line2d_10">
      <path clip-path="url(#p0f6fe5d5c2)" d="M 405 661.698947 
L 2916 661.698947 
" style="fill:none;stroke:#ffffff;stroke-linecap:round;"/>
     </g>
     <g id="text_11">
      <!-- 50 -->
      <g style="fill:#262626;" transform="translate(371.031875 669.572541)scale(0.22 -0.22)">
       <use xlink:href="#Arial-BoldMT-35"/>
       <use x="55.615234" xlink:href="#Arial-BoldMT-30"/>
      </g>
     </g>
    </g>
    <g id="ytick_4">
     <g id="line2d_11">
      <path clip-path="url(#p0f6fe5d5c2)" d="M 405 568.844785 
L 2916 568.844785 
" style="fill:none;stroke:#ffffff;stroke-linecap:round;"/>
     </g>
     <g id="text_12">
      <!-- 75 -->
      <defs>
       <path d="M 4.25 57.859375 
L 4.25 70.609375 
L 51.171875 70.609375 
L 51.171875 60.640625 
Q 45.359375 54.9375 39.34375 44.234375 
Q 33.34375 33.546875 30.1875 21.5 
Q 27.046875 9.46875 27.09375 0 
L 13.875 0 
Q 14.203125 14.84375 19.984375 30.265625 
Q 25.78125 45.703125 35.453125 57.859375 
z
" id="Arial-BoldMT-37"/>
      </defs>
      <g style="fill:#262626;" transform="translate(371.031875 576.718378)scale(0.22 -0.22)">
       <use xlink:href="#Arial-BoldMT-37"/>
       <use x="55.615234" xlink:href="#Arial-BoldMT-35"/>
      </g>
     </g>
    </g>
    <g id="ytick_5">
     <g id="line2d_12">
      <path clip-path="url(#p0f6fe5d5c2)" d="M 405 475.990622 
L 2916 475.990622 
" style="fill:none;stroke:#ffffff;stroke-linecap:round;"/>
     </g>
     <g id="text_13">
      <!-- 100 -->
      <g style="fill:#262626;" transform="translate(358.797813 483.864216)scale(0.22 -0.22)">
       <use xlink:href="#Arial-BoldMT-31"/>
       <use x="55.615234" xlink:href="#Arial-BoldMT-30"/>
       <use x="111.230469" xlink:href="#Arial-BoldMT-30"/>
      </g>
     </g>
    </g>
    <g id="ytick_6">
     <g id="line2d_13">
      <path clip-path="url(#p0f6fe5d5c2)" d="M 405 383.136459 
L 2916 383.136459 
" style="fill:none;stroke:#ffffff;stroke-linecap:round;"/>
     </g>
     <g id="text_14">
      <!-- 125 -->
      <g style="fill:#262626;" transform="translate(358.797813 391.010053)scale(0.22 -0.22)">
       <use xlink:href="#Arial-BoldMT-31"/>
       <use x="55.615234" xlink:href="#Arial-BoldMT-32"/>
       <use x="111.230469" xlink:href="#Arial-BoldMT-35"/>
      </g>
     </g>
    </g>
    <g id="ytick_7">
     <g id="line2d_14">
      <path clip-path="url(#p0f6fe5d5c2)" d="M 405 290.282297 
L 2916 290.282297 
" style="fill:none;stroke:#ffffff;stroke-linecap:round;"/>
     </g>
     <g id="text_15">
      <!-- 150 -->
      <g style="fill:#262626;" transform="translate(358.797813 298.15589)scale(0.22 -0.22)">
       <use xlink:href="#Arial-BoldMT-31"/>
       <use x="55.615234" xlink:href="#Arial-BoldMT-35"/>
       <use x="111.230469" xlink:href="#Arial-BoldMT-30"/>
      </g>
     </g>
    </g>
    <g id="ytick_8">
     <g id="line2d_15">
      <path clip-path="url(#p0f6fe5d5c2)" d="M 405 197.428134 
L 2916 197.428134 
" style="fill:none;stroke:#ffffff;stroke-linecap:round;"/>
     </g>
     <g id="text_16">
      <!-- 175 -->
      <g style="fill:#262626;" transform="translate(358.797813 205.301728)scale(0.22 -0.22)">
       <use xlink:href="#Arial-BoldMT-31"/>
       <use x="55.615234" xlink:href="#Arial-BoldMT-37"/>
       <use x="111.230469" xlink:href="#Arial-BoldMT-35"/>
      </g>
     </g>
    </g>
    <g id="text_17">
     <!-- rate (Hz) -->
     <defs>
      <path d="M 6.5 0 
L 6.5 51.859375 
L 14.40625 51.859375 
L 14.40625 44 
Q 17.4375 49.515625 20 51.265625 
Q 22.5625 53.03125 25.640625 53.03125 
Q 30.078125 53.03125 34.671875 50.203125 
L 31.640625 42.046875 
Q 28.421875 43.953125 25.203125 43.953125 
Q 22.3125 43.953125 20.015625 42.21875 
Q 17.71875 40.484375 16.75 37.40625 
Q 15.28125 32.71875 15.28125 27.15625 
L 15.28125 0 
z
" id="ArialMT-72"/>
      <path d="M 40.4375 6.390625 
Q 35.546875 2.25 31.03125 0.53125 
Q 26.515625 -1.171875 21.34375 -1.171875 
Q 12.796875 -1.171875 8.203125 3 
Q 3.609375 7.171875 3.609375 13.671875 
Q 3.609375 17.484375 5.34375 20.625 
Q 7.078125 23.78125 9.890625 25.6875 
Q 12.703125 27.59375 16.21875 28.5625 
Q 18.796875 29.25 24.03125 29.890625 
Q 34.671875 31.15625 39.703125 32.90625 
Q 39.75 34.71875 39.75 35.203125 
Q 39.75 40.578125 37.25 42.78125 
Q 33.890625 45.75 27.25 45.75 
Q 21.046875 45.75 18.09375 43.578125 
Q 15.140625 41.40625 13.71875 35.890625 
L 5.125 37.0625 
Q 6.296875 42.578125 8.984375 45.96875 
Q 11.671875 49.359375 16.75 51.1875 
Q 21.828125 53.03125 28.515625 53.03125 
Q 35.15625 53.03125 39.296875 51.46875 
Q 43.453125 49.90625 45.40625 47.53125 
Q 47.359375 45.171875 48.140625 41.546875 
Q 48.578125 39.3125 48.578125 33.453125 
L 48.578125 21.734375 
Q 48.578125 9.46875 49.140625 6.21875 
Q 49.703125 2.984375 51.375 0 
L 42.1875 0 
Q 40.828125 2.734375 40.4375 6.390625 
z
M 39.703125 26.03125 
Q 34.90625 24.078125 25.34375 22.703125 
Q 19.921875 21.921875 17.671875 20.9375 
Q 15.4375 19.96875 14.203125 18.09375 
Q 12.984375 16.21875 12.984375 13.921875 
Q 12.984375 10.40625 15.640625 8.0625 
Q 18.3125 5.71875 23.4375 5.71875 
Q 28.515625 5.71875 32.46875 7.9375 
Q 36.421875 10.15625 38.28125 14.015625 
Q 39.703125 17 39.703125 22.796875 
z
" id="ArialMT-61"/>
      <path d="M 8.015625 0 
L 8.015625 71.578125 
L 17.484375 71.578125 
L 17.484375 42.1875 
L 54.6875 42.1875 
L 54.6875 71.578125 
L 64.15625 71.578125 
L 64.15625 0 
L 54.6875 0 
L 54.6875 33.734375 
L 17.484375 33.734375 
L 17.484375 0 
z
" id="ArialMT-48"/>
      <path d="M 1.953125 0 
L 1.953125 7.125 
L 34.96875 45.015625 
Q 29.34375 44.734375 25.046875 44.734375 
L 3.90625 44.734375 
L 3.90625 51.859375 
L 46.296875 51.859375 
L 46.296875 46.046875 
L 18.21875 13.140625 
L 12.796875 7.125 
Q 18.703125 7.5625 23.875 7.5625 
L 47.859375 7.5625 
L 47.859375 0 
z
" id="ArialMT-7a"/>
     </defs>
     <g style="fill:#262626;" transform="translate(346.8 575.369219)rotate(-90)scale(0.38 -0.38)">
      <use xlink:href="#ArialMT-72"/>
      <use x="33.300781" xlink:href="#ArialMT-61"/>
      <use x="88.916016" xlink:href="#ArialMT-74"/>
      <use x="116.699219" xlink:href="#ArialMT-65"/>
      <use x="172.314453" xlink:href="#ArialMT-20"/>
      <use x="200.097656" xlink:href="#ArialMT-28"/>
      <use x="233.398438" xlink:href="#ArialMT-48"/>
      <use x="305.615234" xlink:href="#ArialMT-7a"/>
      <use x="355.615234" xlink:href="#ArialMT-29"/>
     </g>
    </g>
   </g>
   <g id="line2d_16">
    <path clip-path="url(#p0f6fe5d5c2)" d="M 405 738.167081 
L 413.37 738.167081 
L 415.044 701.753684 
L 418.392 701.753684 
L 420.066 665.340287 
L 426.762 665.340287 
L 428.436 628.92689 
L 435.132 628.92689 
L 436.806 592.513493 
L 441.828 592.513493 
L 443.502 556.100096 
L 445.176 556.100096 
L 446.85 519.686699 
L 455.22 519.686699 
L 456.894 483.273301 
L 463.59 483.273301 
L 465.264 446.859904 
L 471.96 446.859904 
L 473.634 410.446507 
L 475.308 410.446507 
L 476.982 446.859904 
L 480.33 446.859904 
L 482.004 410.446507 
L 483.678 410.446507 
L 485.352 446.859904 
L 488.7 446.859904 
L 490.374 483.273301 
L 497.07 483.273301 
L 498.744 446.859904 
L 500.418 483.273301 
L 503.766 483.273301 
L 505.44 519.686699 
L 512.136 519.686699 
L 513.81 556.100096 
L 520.506 556.100096 
L 522.18 592.513493 
L 527.202 592.513493 
L 528.876 628.92689 
L 530.55 628.92689 
L 532.224 665.340287 
L 533.898 628.92689 
L 540.594 628.92689 
L 542.268 665.340287 
L 543.942 665.340287 
L 545.616 628.92689 
L 548.964 628.92689 
L 550.638 665.340287 
L 565.704 665.340287 
L 567.378 701.753684 
L 572.4 701.753684 
L 574.074 665.340287 
L 582.444 665.340287 
L 584.118 701.753684 
L 617.598 701.753684 
L 619.272 738.167081 
L 625.968 738.167081 
L 627.642 701.753684 
L 632.664 701.753684 
L 634.338 665.340287 
L 636.012 665.340287 
L 637.686 628.92689 
L 639.36 628.92689 
L 641.034 592.513493 
L 647.73 592.513493 
L 649.404 556.100096 
L 651.078 556.100096 
L 652.752 519.686699 
L 656.1 519.686699 
L 657.774 483.273301 
L 659.448 519.686699 
L 661.122 519.686699 
L 662.796 483.273301 
L 667.818 483.273301 
L 669.492 446.859904 
L 672.84 446.859904 
L 674.514 410.446507 
L 679.536 410.446507 
L 681.21 374.03311 
L 686.232 374.03311 
L 687.906 337.619713 
L 689.58 337.619713 
L 691.254 301.206316 
L 696.276 301.206316 
L 697.95 264.792919 
L 701.298 264.792919 
L 702.972 228.379522 
L 707.994 228.379522 
L 709.668 191.966124 
L 711.342 191.966124 
L 713.016 228.379522 
L 714.69 228.379522 
L 716.364 264.792919 
L 718.038 228.379522 
L 719.712 264.792919 
L 721.386 228.379522 
L 723.06 264.792919 
L 724.734 228.379522 
L 726.408 264.792919 
L 728.082 228.379522 
L 729.756 264.792919 
L 731.43 228.379522 
L 733.104 228.379522 
L 734.778 264.792919 
L 736.452 228.379522 
L 738.126 264.792919 
L 739.8 264.792919 
L 741.474 228.379522 
L 743.148 264.792919 
L 744.822 264.792919 
L 746.496 228.379522 
L 748.17 264.792919 
L 753.192 264.792919 
L 754.866 301.206316 
L 758.214 301.206316 
L 759.888 337.619713 
L 764.91 337.619713 
L 766.584 374.03311 
L 771.606 374.03311 
L 773.28 410.446507 
L 774.954 410.446507 
L 776.628 446.859904 
L 781.65 446.859904 
L 783.324 483.273301 
L 786.672 483.273301 
L 788.346 519.686699 
L 793.368 519.686699 
L 795.042 556.100096 
L 798.39 556.100096 
L 800.064 519.686699 
L 801.738 519.686699 
L 803.412 556.100096 
L 805.086 556.100096 
L 806.76 592.513493 
L 808.434 592.513493 
L 810.108 628.92689 
L 811.782 628.92689 
L 813.456 665.340287 
L 815.13 665.340287 
L 816.804 701.753684 
L 820.152 701.753684 
L 821.826 738.167081 
L 825.174 738.167081 
L 826.848 774.580478 
L 830.196 774.580478 
L 831.87 810.993876 
L 845.262 810.993876 
L 846.936 774.580478 
L 855.306 774.580478 
L 856.98 738.167081 
L 858.654 738.167081 
L 860.328 701.753684 
L 865.35 701.753684 
L 867.024 665.340287 
L 868.698 665.340287 
L 870.372 628.92689 
L 872.046 628.92689 
L 873.72 592.513493 
L 878.742 592.513493 
L 880.416 556.100096 
L 883.764 556.100096 
L 885.438 592.513493 
L 930.636 592.513493 
L 932.31 628.92689 
L 933.984 628.92689 
L 935.658 592.513493 
L 937.332 592.513493 
L 939.006 556.100096 
L 940.68 556.100096 
L 942.354 592.513493 
L 950.724 592.513493 
L 952.398 628.92689 
L 954.072 628.92689 
L 955.746 665.340287 
L 957.42 665.340287 
L 959.094 701.753684 
L 964.116 701.753684 
L 965.79 738.167081 
L 990.9 738.167081 
L 992.574 701.753684 
L 1002.618 701.753684 
L 1004.292 665.340287 
L 1007.64 665.340287 
L 1009.314 628.92689 
L 1019.358 628.92689 
L 1021.032 665.340287 
L 1022.706 665.340287 
L 1024.38 701.753684 
L 1029.402 701.753684 
L 1031.076 738.167081 
L 1076.274 738.167081 
L 1077.948 774.580478 
L 1087.992 774.580478 
L 1089.666 810.993876 
L 1093.014 810.993876 
L 1094.688 847.407273 
L 1193.454 847.407273 
L 1195.128 810.993876 
L 1196.802 810.993876 
L 1198.476 774.580478 
L 1201.824 774.580478 
L 1203.498 738.167081 
L 1208.52 738.167081 
L 1210.194 701.753684 
L 1211.868 701.753684 
L 1213.542 665.340287 
L 1215.216 665.340287 
L 1216.89 628.92689 
L 1220.238 628.92689 
L 1221.912 592.513493 
L 1225.26 592.513493 
L 1226.934 556.100096 
L 1228.608 556.100096 
L 1230.282 519.686699 
L 1233.63 519.686699 
L 1235.304 483.273301 
L 1238.652 483.273301 
L 1240.326 446.859904 
L 1242 446.859904 
L 1243.674 410.446507 
L 1248.696 410.446507 
L 1250.37 374.03311 
L 1258.74 374.03311 
L 1262.088 301.206316 
L 1263.762 301.206316 
L 1265.436 264.792919 
L 1267.11 264.792919 
L 1268.784 228.379522 
L 1272.132 228.379522 
L 1273.806 191.966124 
L 1278.828 191.966124 
L 1280.502 228.379522 
L 1282.176 191.966124 
L 1283.85 228.379522 
L 1287.198 228.379522 
L 1288.872 264.792919 
L 1293.894 264.792919 
L 1295.568 301.206316 
L 1297.242 301.206316 
L 1298.916 337.619713 
L 1300.59 337.619713 
L 1302.264 374.03311 
L 1305.612 374.03311 
L 1307.286 410.446507 
L 1310.634 410.446507 
L 1312.308 446.859904 
L 1313.982 446.859904 
L 1315.656 483.273301 
L 1319.004 483.273301 
L 1320.678 519.686699 
L 1324.026 519.686699 
L 1325.7 556.100096 
L 1327.374 556.100096 
L 1329.048 592.513493 
L 1334.07 592.513493 
L 1335.744 628.92689 
L 1344.114 628.92689 
L 1347.462 701.753684 
L 1349.136 701.753684 
L 1350.81 738.167081 
L 1352.484 738.167081 
L 1354.158 774.580478 
L 1357.506 774.580478 
L 1359.18 810.993876 
L 1365.876 810.993876 
L 1367.55 847.407273 
L 1387.638 847.407273 
L 1389.312 810.993876 
L 1392.66 810.993876 
L 1394.334 774.580478 
L 1397.682 774.580478 
L 1399.356 738.167081 
L 1402.704 738.167081 
L 1404.378 701.753684 
L 1406.052 701.753684 
L 1407.726 665.340287 
L 1412.748 665.340287 
L 1414.422 628.92689 
L 1416.096 628.92689 
L 1417.77 592.513493 
L 1421.118 592.513493 
L 1422.792 556.100096 
L 1427.814 556.100096 
L 1429.488 519.686699 
L 1437.858 519.686699 
L 1439.532 483.273301 
L 1473.012 483.273301 
L 1474.686 519.686699 
L 1478.034 519.686699 
L 1479.708 556.100096 
L 1483.056 556.100096 
L 1484.73 592.513493 
L 1488.078 592.513493 
L 1489.752 628.92689 
L 1491.426 628.92689 
L 1493.1 665.340287 
L 1496.448 665.340287 
L 1498.122 628.92689 
L 1501.47 628.92689 
L 1503.144 665.340287 
L 1504.818 628.92689 
L 1506.492 628.92689 
L 1508.166 665.340287 
L 1509.84 628.92689 
L 1513.188 628.92689 
L 1514.862 665.340287 
L 1516.536 628.92689 
L 1523.232 628.92689 
L 1524.906 665.340287 
L 1528.254 665.340287 
L 1529.928 628.92689 
L 1538.298 628.92689 
L 1541.646 556.100096 
L 1544.994 556.100096 
L 1546.668 519.686699 
L 1550.016 519.686699 
L 1551.69 483.273301 
L 1581.822 483.273301 
L 1585.17 556.100096 
L 1588.518 556.100096 
L 1590.192 592.513493 
L 1593.54 592.513493 
L 1595.214 628.92689 
L 1600.236 628.92689 
L 1601.91 665.340287 
L 1613.628 665.340287 
L 1615.302 701.753684 
L 1623.672 701.753684 
L 1627.02 774.580478 
L 1630.368 774.580478 
L 1632.042 810.993876 
L 1635.39 810.993876 
L 1637.064 847.407273 
L 1640.412 847.407273 
L 1642.086 810.993876 
L 1645.434 810.993876 
L 1647.108 774.580478 
L 1650.456 774.580478 
L 1652.13 738.167081 
L 1653.804 738.167081 
L 1655.478 701.753684 
L 1658.826 701.753684 
L 1660.5 665.340287 
L 1665.522 665.340287 
L 1667.196 628.92689 
L 1672.218 628.92689 
L 1673.892 592.513493 
L 1677.24 592.513493 
L 1678.914 556.100096 
L 1682.262 556.100096 
L 1683.936 519.686699 
L 1688.958 519.686699 
L 1690.632 483.273301 
L 1702.35 483.273301 
L 1704.024 446.859904 
L 1709.046 446.859904 
L 1710.72 410.446507 
L 1714.068 410.446507 
L 1715.742 374.03311 
L 1720.764 374.03311 
L 1722.438 337.619713 
L 1725.786 337.619713 
L 1727.46 374.03311 
L 1735.83 374.03311 
L 1737.504 410.446507 
L 1742.526 410.446507 
L 1744.2 374.03311 
L 1745.874 410.446507 
L 1747.548 374.03311 
L 1757.592 374.03311 
L 1759.266 410.446507 
L 1762.614 410.446507 
L 1764.288 446.859904 
L 1767.636 446.859904 
L 1769.31 483.273301 
L 1774.332 483.273301 
L 1776.006 519.686699 
L 1779.354 519.686699 
L 1782.702 446.859904 
L 1784.376 446.859904 
L 1786.05 410.446507 
L 1787.724 410.446507 
L 1789.398 446.859904 
L 1791.072 410.446507 
L 1799.442 410.446507 
L 1801.116 446.859904 
L 1802.79 410.446507 
L 1807.812 410.446507 
L 1809.486 374.03311 
L 1812.834 374.03311 
L 1816.182 301.206316 
L 1817.856 337.619713 
L 1819.53 301.206316 
L 1822.878 301.206316 
L 1824.552 264.792919 
L 1826.226 301.206316 
L 1831.248 301.206316 
L 1832.922 337.619713 
L 1834.596 301.206316 
L 1836.27 301.206316 
L 1837.944 337.619713 
L 1839.618 301.206316 
L 1844.64 301.206316 
L 1847.988 228.379522 
L 1851.336 228.379522 
L 1853.01 191.966124 
L 1858.032 191.966124 
L 1859.706 155.552727 
L 1866.402 155.552727 
L 1868.076 191.966124 
L 1874.772 191.966124 
L 1876.446 228.379522 
L 1879.794 228.379522 
L 1881.468 264.792919 
L 1886.49 264.792919 
L 1888.164 301.206316 
L 1891.512 301.206316 
L 1894.86 374.03311 
L 1898.208 374.03311 
L 1901.556 446.859904 
L 1903.23 446.859904 
L 1904.904 483.273301 
L 1908.252 483.273301 
L 1909.926 519.686699 
L 1913.274 519.686699 
L 1914.948 556.100096 
L 1918.296 556.100096 
L 1919.97 592.513493 
L 1923.318 592.513493 
L 1924.992 628.92689 
L 1930.014 628.92689 
L 1933.362 701.753684 
L 1936.71 701.753684 
L 1938.384 738.167081 
L 1946.754 738.167081 
L 1948.428 701.753684 
L 1950.102 701.753684 
L 1951.776 738.167081 
L 1955.124 738.167081 
L 1956.798 774.580478 
L 2008.692 774.580478 
L 2010.366 738.167081 
L 2013.714 738.167081 
L 2015.388 701.753684 
L 2017.062 701.753684 
L 2018.736 665.340287 
L 2022.084 665.340287 
L 2023.758 628.92689 
L 2033.802 628.92689 
L 2035.476 592.513493 
L 2038.824 592.513493 
L 2040.498 556.100096 
L 2043.846 556.100096 
L 2045.52 519.686699 
L 2050.542 519.686699 
L 2052.216 483.273301 
L 2060.586 483.273301 
L 2062.26 446.859904 
L 2063.934 446.859904 
L 2065.608 410.446507 
L 2067.282 410.446507 
L 2068.956 374.03311 
L 2073.978 374.03311 
L 2075.652 337.619713 
L 2094.066 337.619713 
L 2095.74 374.03311 
L 2099.088 374.03311 
L 2100.762 410.446507 
L 2102.436 410.446507 
L 2104.11 446.859904 
L 2107.458 446.859904 
L 2109.132 483.273301 
L 2114.154 483.273301 
L 2115.828 519.686699 
L 2117.502 519.686699 
L 2120.85 592.513493 
L 2124.198 592.513493 
L 2125.872 628.92689 
L 2129.22 628.92689 
L 2130.894 665.340287 
L 2135.916 665.340287 
L 2137.59 701.753684 
L 2139.264 701.753684 
L 2140.938 665.340287 
L 2145.96 665.340287 
L 2147.634 701.753684 
L 2149.308 701.753684 
L 2150.982 738.167081 
L 2152.656 738.167081 
L 2154.33 774.580478 
L 2159.352 774.580478 
L 2161.026 810.993876 
L 2192.832 810.993876 
L 2194.506 774.580478 
L 2212.92 774.580478 
L 2214.594 738.167081 
L 2216.268 738.167081 
L 2217.942 701.753684 
L 2224.638 701.753684 
L 2226.312 738.167081 
L 2241.378 738.167081 
L 2243.052 701.753684 
L 2244.726 701.753684 
L 2246.4 665.340287 
L 2248.074 665.340287 
L 2249.748 628.92689 
L 2253.096 628.92689 
L 2254.77 592.513493 
L 2278.206 592.513493 
L 2279.88 628.92689 
L 2298.294 628.92689 
L 2299.968 665.340287 
L 2301.642 665.340287 
L 2303.316 701.753684 
L 2326.752 701.753684 
L 2328.426 738.167081 
L 2330.1 738.167081 
L 2331.774 774.580478 
L 2333.448 774.580478 
L 2335.122 810.993876 
L 2336.796 810.993876 
L 2338.47 774.580478 
L 2340.144 810.993876 
L 2341.818 810.993876 
L 2343.492 774.580478 
L 2346.84 774.580478 
L 2348.514 738.167081 
L 2358.558 738.167081 
L 2360.232 701.753684 
L 2420.496 701.753684 
L 2422.17 665.340287 
L 2423.844 701.753684 
L 2425.518 701.753684 
L 2427.192 665.340287 
L 2428.866 701.753684 
L 2430.54 701.753684 
L 2432.214 665.340287 
L 2433.888 701.753684 
L 2438.91 701.753684 
L 2440.584 665.340287 
L 2443.932 665.340287 
L 2445.606 701.753684 
L 2447.28 701.753684 
L 2448.954 665.340287 
L 2453.976 665.340287 
L 2455.65 628.92689 
L 2458.998 628.92689 
L 2460.672 592.513493 
L 2464.02 592.513493 
L 2465.694 556.100096 
L 2469.042 556.100096 
L 2470.716 519.686699 
L 2479.086 519.686699 
L 2480.76 483.273301 
L 2490.804 483.273301 
L 2492.478 446.859904 
L 2495.826 446.859904 
L 2497.5 410.446507 
L 2505.87 410.446507 
L 2507.544 446.859904 
L 2510.892 446.859904 
L 2512.566 483.273301 
L 2515.914 483.273301 
L 2517.588 519.686699 
L 2519.262 519.686699 
L 2520.936 483.273301 
L 2522.61 483.273301 
L 2524.284 446.859904 
L 2525.958 483.273301 
L 2527.632 446.859904 
L 2530.98 446.859904 
L 2532.654 410.446507 
L 2534.328 446.859904 
L 2544.372 446.859904 
L 2546.046 483.273301 
L 2549.394 483.273301 
L 2551.068 519.686699 
L 2554.416 519.686699 
L 2556.09 556.100096 
L 2564.46 556.100096 
L 2566.134 592.513493 
L 2569.482 592.513493 
L 2572.83 519.686699 
L 2581.2 519.686699 
L 2582.874 556.100096 
L 2584.548 519.686699 
L 2586.222 519.686699 
L 2587.896 483.273301 
L 2591.244 483.273301 
L 2592.918 446.859904 
L 2599.614 446.859904 
L 2601.288 410.446507 
L 2604.636 410.446507 
L 2606.31 446.859904 
L 2607.984 446.859904 
L 2609.658 483.273301 
L 2611.332 483.273301 
L 2613.006 519.686699 
L 2616.354 519.686699 
L 2618.028 556.100096 
L 2624.724 556.100096 
L 2626.398 592.513493 
L 2631.42 592.513493 
L 2633.094 556.100096 
L 2654.856 556.100096 
L 2658.204 628.92689 
L 2661.552 628.92689 
L 2663.226 665.340287 
L 2668.248 665.340287 
L 2669.922 701.753684 
L 2671.596 701.753684 
L 2673.27 738.167081 
L 2674.944 701.753684 
L 2681.64 701.753684 
L 2683.314 665.340287 
L 2684.988 665.340287 
L 2686.662 701.753684 
L 2688.336 665.340287 
L 2691.684 665.340287 
L 2693.358 628.92689 
L 2703.402 628.92689 
L 2705.076 592.513493 
L 2716.794 592.513493 
L 2718.468 628.92689 
L 2758.644 628.92689 
L 2760.318 665.340287 
L 2761.992 665.340287 
L 2763.666 701.753684 
L 2767.014 701.753684 
L 2768.688 738.167081 
L 2772.036 738.167081 
L 2773.71 774.580478 
L 2777.058 774.580478 
L 2778.732 810.993876 
L 2788.776 810.993876 
L 2790.45 847.407273 
L 2802.168 847.407273 
L 2803.842 810.993876 
L 2852.388 810.993876 
L 2854.062 774.580478 
L 2857.41 774.580478 
L 2859.084 738.167081 
L 2862.432 738.167081 
L 2864.106 701.753684 
L 2867.454 701.753684 
L 2869.128 665.340287 
L 2887.542 665.340287 
L 2889.216 701.753684 
L 2914.326 701.753684 
L 2914.326 701.753684 
" style="fill:none;stroke:#4c72b0;stroke-linecap:round;stroke-width:1.5;"/>
   </g>
   <g id="patch_3">
    <path d="M 405 882 
L 405 120.96 
" style="fill:none;stroke:#ffffff;stroke-linecap:square;stroke-linejoin:miter;stroke-width:1.25;"/>
   </g>
   <g id="patch_4">
    <path d="M 2916 882 
L 2916 120.96 
" style="fill:none;stroke:#ffffff;stroke-linecap:square;stroke-linejoin:miter;stroke-width:1.25;"/>
   </g>
   <g id="patch_5">
    <path d="M 405 882 
L 2916 882 
" style="fill:none;stroke:#ffffff;stroke-linecap:square;stroke-linejoin:miter;stroke-width:1.25;"/>
   </g>
   <g id="patch_6">
    <path d="M 405 120.96 
L 2916 120.96 
" style="fill:none;stroke:#ffffff;stroke-linecap:square;stroke-linejoin:miter;stroke-width:1.25;"/>
   </g>
   <g id="text_18">
    <!-- rectangular window -->
    <defs>
     <path d="M 40.4375 19 
L 49.078125 17.875 
Q 47.65625 8.9375 41.8125 3.875 
Q 35.984375 -1.171875 27.484375 -1.171875 
Q 16.84375 -1.171875 10.375 5.78125 
Q 3.90625 12.75 3.90625 25.734375 
Q 3.90625 34.125 6.6875 40.421875 
Q 9.46875 46.734375 15.15625 49.875 
Q 20.84375 53.03125 27.546875 53.03125 
Q 35.984375 53.03125 41.359375 48.75 
Q 46.734375 44.484375 48.25 36.625 
L 39.703125 35.296875 
Q 38.484375 40.53125 35.375 43.15625 
Q 32.28125 45.796875 27.875 45.796875 
Q 21.234375 45.796875 17.078125 41.03125 
Q 12.9375 36.28125 12.9375 25.984375 
Q 12.9375 15.53125 16.9375 10.796875 
Q 20.953125 6.0625 27.390625 6.0625 
Q 32.5625 6.0625 36.03125 9.234375 
Q 39.5 12.40625 40.4375 19 
z
" id="ArialMT-63"/>
     <path d="M 6.59375 0 
L 6.59375 51.859375 
L 14.5 51.859375 
L 14.5 44.484375 
Q 20.21875 53.03125 31 53.03125 
Q 35.6875 53.03125 39.625 51.34375 
Q 43.5625 49.65625 45.515625 46.921875 
Q 47.46875 44.1875 48.25 40.4375 
Q 48.734375 37.984375 48.734375 31.890625 
L 48.734375 0 
L 39.9375 0 
L 39.9375 31.546875 
Q 39.9375 36.921875 38.90625 39.578125 
Q 37.890625 42.234375 35.28125 43.8125 
Q 32.671875 45.40625 29.15625 45.40625 
Q 23.53125 45.40625 19.453125 41.84375 
Q 15.375 38.28125 15.375 28.328125 
L 15.375 0 
z
" id="ArialMT-6e"/>
     <path d="M 4.984375 -4.296875 
L 13.53125 -5.5625 
Q 14.0625 -9.515625 16.5 -11.328125 
Q 19.78125 -13.765625 25.4375 -13.765625 
Q 31.546875 -13.765625 34.859375 -11.328125 
Q 38.1875 -8.890625 39.359375 -4.5 
Q 40.046875 -1.8125 39.984375 6.78125 
Q 34.234375 0 25.640625 0 
Q 14.9375 0 9.078125 7.71875 
Q 3.21875 15.4375 3.21875 26.21875 
Q 3.21875 33.640625 5.90625 39.90625 
Q 8.59375 46.1875 13.6875 49.609375 
Q 18.796875 53.03125 25.6875 53.03125 
Q 34.859375 53.03125 40.828125 45.609375 
L 40.828125 51.859375 
L 48.921875 51.859375 
L 48.921875 7.03125 
Q 48.921875 -5.078125 46.453125 -10.125 
Q 44 -15.1875 38.640625 -18.109375 
Q 33.296875 -21.046875 25.484375 -21.046875 
Q 16.21875 -21.046875 10.5 -16.875 
Q 4.78125 -12.703125 4.984375 -4.296875 
z
M 12.25 26.859375 
Q 12.25 16.65625 16.296875 11.96875 
Q 20.359375 7.28125 26.46875 7.28125 
Q 32.515625 7.28125 36.609375 11.9375 
Q 40.71875 16.609375 40.71875 26.5625 
Q 40.71875 36.078125 36.5 40.90625 
Q 32.28125 45.75 26.3125 45.75 
Q 20.453125 45.75 16.34375 40.984375 
Q 12.25 36.234375 12.25 26.859375 
z
" id="ArialMT-67"/>
     <path d="M 40.578125 0 
L 40.578125 7.625 
Q 34.515625 -1.171875 24.125 -1.171875 
Q 19.53125 -1.171875 15.546875 0.578125 
Q 11.578125 2.34375 9.640625 5 
Q 7.71875 7.671875 6.9375 11.53125 
Q 6.390625 14.109375 6.390625 19.734375 
L 6.390625 51.859375 
L 15.1875 51.859375 
L 15.1875 23.09375 
Q 15.1875 16.21875 15.71875 13.8125 
Q 16.546875 10.359375 19.234375 8.375 
Q 21.921875 6.390625 25.875 6.390625 
Q 29.828125 6.390625 33.296875 8.421875 
Q 36.765625 10.453125 38.203125 13.9375 
Q 39.65625 17.4375 39.65625 24.078125 
L 39.65625 51.859375 
L 48.4375 51.859375 
L 48.4375 0 
z
" id="ArialMT-75"/>
     <path d="M 6.390625 0 
L 6.390625 71.578125 
L 15.1875 71.578125 
L 15.1875 0 
z
" id="ArialMT-6c"/>
     <path d="M 16.15625 0 
L 0.296875 51.859375 
L 9.375 51.859375 
L 17.625 21.921875 
L 20.703125 10.796875 
Q 20.90625 11.625 23.390625 21.484375 
L 31.640625 51.859375 
L 40.671875 51.859375 
L 48.4375 21.78125 
L 51.03125 11.859375 
L 54 21.875 
L 62.890625 51.859375 
L 71.4375 51.859375 
L 55.21875 0 
L 46.09375 0 
L 37.84375 31.0625 
L 35.84375 39.890625 
L 25.34375 0 
z
" id="ArialMT-77"/>
     <path d="M 40.234375 0 
L 40.234375 6.546875 
Q 35.296875 -1.171875 25.734375 -1.171875 
Q 19.53125 -1.171875 14.328125 2.25 
Q 9.125 5.671875 6.265625 11.796875 
Q 3.421875 17.921875 3.421875 25.875 
Q 3.421875 33.640625 6 39.96875 
Q 8.59375 46.296875 13.765625 49.65625 
Q 18.953125 53.03125 25.34375 53.03125 
Q 30.03125 53.03125 33.6875 51.046875 
Q 37.359375 49.078125 39.65625 45.90625 
L 39.65625 71.578125 
L 48.390625 71.578125 
L 48.390625 0 
z
M 12.453125 25.875 
Q 12.453125 15.921875 16.640625 10.984375 
Q 20.84375 6.0625 26.5625 6.0625 
Q 32.328125 6.0625 36.34375 10.765625 
Q 40.375 15.484375 40.375 25.140625 
Q 40.375 35.796875 36.265625 40.765625 
Q 32.171875 45.75 26.171875 45.75 
Q 20.3125 45.75 16.375 40.96875 
Q 12.453125 36.1875 12.453125 25.875 
z
" id="ArialMT-64"/>
     <path d="M 3.328125 25.921875 
Q 3.328125 40.328125 11.328125 47.265625 
Q 18.015625 53.03125 27.640625 53.03125 
Q 38.328125 53.03125 45.109375 46.015625 
Q 51.90625 39.015625 51.90625 26.65625 
Q 51.90625 16.65625 48.90625 10.90625 
Q 45.90625 5.171875 40.15625 2 
Q 34.421875 -1.171875 27.640625 -1.171875 
Q 16.75 -1.171875 10.03125 5.8125 
Q 3.328125 12.796875 3.328125 25.921875 
z
M 12.359375 25.921875 
Q 12.359375 15.96875 16.703125 11.015625 
Q 21.046875 6.0625 27.640625 6.0625 
Q 34.1875 6.0625 38.53125 11.03125 
Q 42.875 16.015625 42.875 26.21875 
Q 42.875 35.84375 38.5 40.796875 
Q 34.125 45.75 27.640625 45.75 
Q 21.046875 45.75 16.703125 40.8125 
Q 12.359375 35.890625 12.359375 25.921875 
z
" id="ArialMT-6f"/>
    </defs>
    <g style="fill:#262626;" transform="translate(1496.812031 114.96)scale(0.38 -0.38)">
     <use xlink:href="#ArialMT-72"/>
     <use x="33.300781" xlink:href="#ArialMT-65"/>
     <use x="88.916016" xlink:href="#ArialMT-63"/>
     <use x="138.916016" xlink:href="#ArialMT-74"/>
     <use x="166.699219" xlink:href="#ArialMT-61"/>
     <use x="222.314453" xlink:href="#ArialMT-6e"/>
     <use x="277.929688" xlink:href="#ArialMT-67"/>
     <use x="333.544922" xlink:href="#ArialMT-75"/>
     <use x="389.160156" xlink:href="#ArialMT-6c"/>
     <use x="411.376953" xlink:href="#ArialMT-61"/>
     <use x="466.992188" xlink:href="#ArialMT-72"/>
     <use x="500.292969" xlink:href="#ArialMT-20"/>
     <use x="528.076172" xlink:href="#ArialMT-77"/>
     <use x="600.292969" xlink:href="#ArialMT-69"/>
     <use x="622.509766" xlink:href="#ArialMT-6e"/>
     <use x="678.125" xlink:href="#ArialMT-64"/>
     <use x="733.740234" xlink:href="#ArialMT-6f"/>
     <use x="789.355469" xlink:href="#ArialMT-77"/>
    </g>
   </g>
  </g>
 </g>
 <defs>
  <clipPath id="p0f6fe5d5c2">
   <rect height="761.04" width="2511" x="405" y="120.96"/>
  </clipPath>
 </defs>
</svg>
