<?xml version="1.0" encoding="utf-8" standalone="no"?>
<!DOCTYPE svg PUBLIC "-//W3C//DTD SVG 1.1//EN"
  "http://www.w3.org/Graphics/SVG/1.1/DTD/svg11.dtd">
<!-- Created with matplotlib (http://matplotlib.org/) -->
<svg height="1008pt" version="1.1" viewBox="0 0 3240 1008" width="3240pt" xmlns="http://www.w3.org/2000/svg" xmlns:xlink="http://www.w3.org/1999/xlink">
 <defs>
  <style type="text/css">
*{stroke-linecap:butt;stroke-linejoin:round;}
  </style>
 </defs>
 <g id="figure_1">
  <g id="patch_1">
   <path d="M 0 1008 
L 3240 1008 
L 3240 0 
L 0 0 
z
" style="fill:#ffffff;"/>
  </g>
  <g id="axes_1">
   <g id="patch_2">
    <path d="M 405 882 
L 2916 882 
L 2916 120.96 
L 405 120.96 
z
" style="fill:#eaeaf2;"/>
   </g>
   <g id="matplotlib.axis_1">
    <g id="xtick_1">
     <g id="line2d_1">
      <path clip-path="url(#pbce320d42b)" d="M 405 882 
L 405 120.96 
" style="fill:none;stroke:#ffffff;stroke-linecap:round;"/>
     </g>
     <g id="text_1">
      <!-- 0 -->
      <defs>
       <path d="M 27.4375 71.875 
Q 37.84375 71.875 43.703125 64.453125 
Q 50.6875 55.671875 50.6875 35.296875 
Q 50.6875 14.984375 43.65625 6.109375 
Q 37.84375 -1.21875 27.4375 -1.21875 
Q 17 -1.21875 10.59375 6.8125 
Q 4.203125 14.84375 4.203125 35.453125 
Q 4.203125 55.671875 11.234375 64.546875 
Q 17.046875 71.875 27.4375 71.875 
z
M 27.4375 60.5 
Q 24.953125 60.5 23 58.90625 
Q 21.046875 57.328125 19.96875 53.21875 
Q 18.5625 47.90625 18.5625 35.296875 
Q 18.5625 22.703125 19.828125 17.984375 
Q 21.09375 13.28125 23.015625 11.71875 
Q 24.953125 10.15625 27.4375 10.15625 
Q 29.9375 10.15625 31.890625 11.734375 
Q 33.84375 13.328125 34.90625 17.4375 
Q 36.328125 22.703125 36.328125 35.296875 
Q 36.328125 47.90625 35.0625 52.609375 
Q 33.796875 57.328125 31.859375 58.90625 
Q 29.9375 60.5 27.4375 60.5 
z
" id="Arial-BoldMT-30"/>
      </defs>
      <g style="fill:#262626;" transform="translate(398.882969 907.247187)scale(0.22 -0.22)">
       <use xlink:href="#Arial-BoldMT-30"/>
      </g>
     </g>
    </g>
    <g id="xtick_2">
     <g id="line2d_2">
      <path clip-path="url(#pbce320d42b)" d="M 823.5 882 
L 823.5 120.96 
" style="fill:none;stroke:#ffffff;stroke-linecap:round;"/>
     </g>
     <g id="text_2">
      <!-- 500 -->
      <defs>
       <path d="M 4.4375 18.40625 
L 18.109375 19.828125 
Q 18.703125 15.1875 21.578125 12.46875 
Q 24.46875 9.765625 28.21875 9.765625 
Q 32.515625 9.765625 35.5 13.25 
Q 38.484375 16.75 38.484375 23.78125 
Q 38.484375 30.375 35.515625 33.671875 
Q 32.5625 36.96875 27.828125 36.96875 
Q 21.921875 36.96875 17.234375 31.734375 
L 6.109375 33.34375 
L 13.140625 70.609375 
L 49.421875 70.609375 
L 49.421875 57.765625 
L 23.53125 57.765625 
L 21.390625 45.609375 
Q 25.984375 47.90625 30.765625 47.90625 
Q 39.890625 47.90625 46.234375 41.265625 
Q 52.59375 34.625 52.59375 24.03125 
Q 52.59375 15.1875 47.46875 8.25 
Q 40.484375 -1.21875 28.078125 -1.21875 
Q 18.171875 -1.21875 11.921875 4.09375 
Q 5.671875 9.421875 4.4375 18.40625 
z
" id="Arial-BoldMT-35"/>
      </defs>
      <g style="fill:#262626;" transform="translate(805.148906 907.247187)scale(0.22 -0.22)">
       <use xlink:href="#Arial-BoldMT-35"/>
       <use x="55.615234" xlink:href="#Arial-BoldMT-30"/>
       <use x="111.230469" xlink:href="#Arial-BoldMT-30"/>
      </g>
     </g>
    </g>
    <g id="xtick_3">
     <g id="line2d_3">
      <path clip-path="url(#pbce320d42b)" d="M 1242 882 
L 1242 120.96 
" style="fill:none;stroke:#ffffff;stroke-linecap:round;"/>
     </g>
     <g id="text_3">
      <!-- 1000 -->
      <defs>
       <path d="M 39.359375 0 
L 25.640625 0 
L 25.640625 51.703125 
Q 18.109375 44.671875 7.90625 41.3125 
L 7.90625 53.765625 
Q 13.28125 55.515625 19.578125 60.421875 
Q 25.875 65.328125 28.21875 71.875 
L 39.359375 71.875 
z
" id="Arial-BoldMT-31"/>
      </defs>
      <g style="fill:#262626;" transform="translate(1217.531875 907.247187)scale(0.22 -0.22)">
       <use xlink:href="#Arial-BoldMT-31"/>
       <use x="55.615234" xlink:href="#Arial-BoldMT-30"/>
       <use x="111.230469" xlink:href="#Arial-BoldMT-30"/>
       <use x="166.845703" xlink:href="#Arial-BoldMT-30"/>
      </g>
     </g>
    </g>
    <g id="xtick_4">
     <g id="line2d_4">
      <path clip-path="url(#pbce320d42b)" d="M 1660.5 882 
L 1660.5 120.96 
" style="fill:none;stroke:#ffffff;stroke-linecap:round;"/>
     </g>
     <g id="text_4">
      <!-- 1500 -->
      <g style="fill:#262626;" transform="translate(1636.031875 907.247187)scale(0.22 -0.22)">
       <use xlink:href="#Arial-BoldMT-31"/>
       <use x="55.615234" xlink:href="#Arial-BoldMT-35"/>
       <use x="111.230469" xlink:href="#Arial-BoldMT-30"/>
       <use x="166.845703" xlink:href="#Arial-BoldMT-30"/>
      </g>
     </g>
    </g>
    <g id="xtick_5">
     <g id="line2d_5">
      <path clip-path="url(#pbce320d42b)" d="M 2079 882 
L 2079 120.96 
" style="fill:none;stroke:#ffffff;stroke-linecap:round;"/>
     </g>
     <g id="text_5">
      <!-- 2000 -->
      <defs>
       <path d="M 50.59375 12.75 
L 50.59375 0 
L 2.484375 0 
Q 3.265625 7.234375 7.171875 13.703125 
Q 11.078125 20.171875 22.609375 30.859375 
Q 31.890625 39.5 33.984375 42.578125 
Q 36.8125 46.828125 36.8125 50.984375 
Q 36.8125 55.5625 34.34375 58.03125 
Q 31.890625 60.5 27.546875 60.5 
Q 23.25 60.5 20.703125 57.90625 
Q 18.171875 55.328125 17.78125 49.3125 
L 4.109375 50.6875 
Q 5.328125 62.015625 11.765625 66.9375 
Q 18.21875 71.875 27.875 71.875 
Q 38.484375 71.875 44.53125 66.15625 
Q 50.59375 60.453125 50.59375 51.953125 
Q 50.59375 47.125 48.859375 42.75 
Q 47.125 38.375 43.359375 33.59375 
Q 40.875 30.421875 34.375 24.453125 
Q 27.875 18.5 26.140625 16.546875 
Q 24.421875 14.59375 23.34375 12.75 
z
" id="Arial-BoldMT-32"/>
      </defs>
      <g style="fill:#262626;" transform="translate(2054.531875 907.247187)scale(0.22 -0.22)">
       <use xlink:href="#Arial-BoldMT-32"/>
       <use x="55.615234" xlink:href="#Arial-BoldMT-30"/>
       <use x="111.230469" xlink:href="#Arial-BoldMT-30"/>
       <use x="166.845703" xlink:href="#Arial-BoldMT-30"/>
      </g>
     </g>
    </g>
    <g id="xtick_6">
     <g id="line2d_6">
      <path clip-path="url(#pbce320d42b)" d="M 2497.5 882 
L 2497.5 120.96 
" style="fill:none;stroke:#ffffff;stroke-linecap:round;"/>
     </g>
     <g id="text_6">
      <!-- 2500 -->
      <g style="fill:#262626;" transform="translate(2473.031875 907.247187)scale(0.22 -0.22)">
       <use xlink:href="#Arial-BoldMT-32"/>
       <use x="55.615234" xlink:href="#Arial-BoldMT-35"/>
       <use x="111.230469" xlink:href="#Arial-BoldMT-30"/>
       <use x="166.845703" xlink:href="#Arial-BoldMT-30"/>
      </g>
     </g>
    </g>
    <g id="xtick_7">
     <g id="line2d_7">
      <path clip-path="url(#pbce320d42b)" d="M 2916 882 
L 2916 120.96 
" style="fill:none;stroke:#ffffff;stroke-linecap:round;"/>
     </g>
     <g id="text_7">
      <!-- 3000 -->
      <defs>
       <path d="M 3.765625 19 
L 17.046875 20.609375 
Q 17.671875 15.53125 20.453125 12.84375 
Q 23.25 10.15625 27.203125 10.15625 
Q 31.453125 10.15625 34.34375 13.375 
Q 37.25 16.609375 37.25 22.078125 
Q 37.25 27.25 34.46875 30.265625 
Q 31.6875 33.296875 27.6875 33.296875 
Q 25.046875 33.296875 21.390625 32.28125 
L 22.90625 43.453125 
Q 28.46875 43.3125 31.390625 45.875 
Q 34.328125 48.4375 34.328125 52.6875 
Q 34.328125 56.296875 32.171875 58.4375 
Q 30.03125 60.59375 26.46875 60.59375 
Q 22.953125 60.59375 20.453125 58.15625 
Q 17.96875 55.71875 17.4375 51.03125 
L 4.78125 53.171875 
Q 6.109375 59.671875 8.765625 63.546875 
Q 11.421875 67.4375 16.1875 69.65625 
Q 20.953125 71.875 26.859375 71.875 
Q 36.96875 71.875 43.0625 65.4375 
Q 48.09375 60.15625 48.09375 53.515625 
Q 48.09375 44.09375 37.796875 38.484375 
Q 43.953125 37.15625 47.625 32.5625 
Q 51.3125 27.984375 51.3125 21.484375 
Q 51.3125 12.0625 44.421875 5.421875 
Q 37.546875 -1.21875 27.296875 -1.21875 
Q 17.578125 -1.21875 11.171875 4.375 
Q 4.78125 9.96875 3.765625 19 
z
" id="Arial-BoldMT-33"/>
      </defs>
      <g style="fill:#262626;" transform="translate(2891.531875 907.247187)scale(0.22 -0.22)">
       <use xlink:href="#Arial-BoldMT-33"/>
       <use x="55.615234" xlink:href="#Arial-BoldMT-30"/>
       <use x="111.230469" xlink:href="#Arial-BoldMT-30"/>
       <use x="166.845703" xlink:href="#Arial-BoldMT-30"/>
      </g>
     </g>
    </g>
    <g id="text_8">
     <!-- time (ms) -->
     <defs>
      <path d="M 25.78125 7.859375 
L 27.046875 0.09375 
Q 23.34375 -0.6875 20.40625 -0.6875 
Q 15.625 -0.6875 12.984375 0.828125 
Q 10.359375 2.34375 9.28125 4.8125 
Q 8.203125 7.28125 8.203125 15.1875 
L 8.203125 45.015625 
L 1.765625 45.015625 
L 1.765625 51.859375 
L 8.203125 51.859375 
L 8.203125 64.703125 
L 16.9375 69.96875 
L 16.9375 51.859375 
L 25.78125 51.859375 
L 25.78125 45.015625 
L 16.9375 45.015625 
L 16.9375 14.703125 
Q 16.9375 10.9375 17.40625 9.859375 
Q 17.875 8.796875 18.921875 8.15625 
Q 19.96875 7.515625 21.921875 7.515625 
Q 23.390625 7.515625 25.78125 7.859375 
z
" id="ArialMT-74"/>
      <path d="M 6.640625 61.46875 
L 6.640625 71.578125 
L 15.4375 71.578125 
L 15.4375 61.46875 
z
M 6.640625 0 
L 6.640625 51.859375 
L 15.4375 51.859375 
L 15.4375 0 
z
" id="ArialMT-69"/>
      <path d="M 6.59375 0 
L 6.59375 51.859375 
L 14.453125 51.859375 
L 14.453125 44.578125 
Q 16.890625 48.390625 20.9375 50.703125 
Q 25 53.03125 30.171875 53.03125 
Q 35.9375 53.03125 39.625 50.640625 
Q 43.3125 48.25 44.828125 43.953125 
Q 50.984375 53.03125 60.84375 53.03125 
Q 68.5625 53.03125 72.703125 48.75 
Q 76.859375 44.484375 76.859375 35.59375 
L 76.859375 0 
L 68.109375 0 
L 68.109375 32.671875 
Q 68.109375 37.9375 67.25 40.25 
Q 66.40625 42.578125 64.15625 43.984375 
Q 61.921875 45.40625 58.890625 45.40625 
Q 53.421875 45.40625 49.796875 41.765625 
Q 46.1875 38.140625 46.1875 30.125 
L 46.1875 0 
L 37.40625 0 
L 37.40625 33.6875 
Q 37.40625 39.546875 35.25 42.46875 
Q 33.109375 45.40625 28.21875 45.40625 
Q 24.515625 45.40625 21.359375 43.453125 
Q 18.21875 41.5 16.796875 37.734375 
Q 15.375 33.984375 15.375 26.90625 
L 15.375 0 
z
" id="ArialMT-6d"/>
      <path d="M 42.09375 16.703125 
L 51.171875 15.578125 
Q 49.03125 7.625 43.21875 3.21875 
Q 37.40625 -1.171875 28.375 -1.171875 
Q 17 -1.171875 10.328125 5.828125 
Q 3.65625 12.84375 3.65625 25.484375 
Q 3.65625 38.578125 10.390625 45.796875 
Q 17.140625 53.03125 27.875 53.03125 
Q 38.28125 53.03125 44.875 45.953125 
Q 51.46875 38.875 51.46875 26.03125 
Q 51.46875 25.25 51.421875 23.6875 
L 12.75 23.6875 
Q 13.234375 15.140625 17.578125 10.59375 
Q 21.921875 6.0625 28.421875 6.0625 
Q 33.25 6.0625 36.671875 8.59375 
Q 40.09375 11.140625 42.09375 16.703125 
z
M 13.234375 30.90625 
L 42.1875 30.90625 
Q 41.609375 37.453125 38.875 40.71875 
Q 34.671875 45.796875 27.984375 45.796875 
Q 21.921875 45.796875 17.796875 41.75 
Q 13.671875 37.703125 13.234375 30.90625 
z
" id="ArialMT-65"/>
      <path id="ArialMT-20"/>
      <path d="M 23.390625 -21.046875 
Q 16.109375 -11.859375 11.078125 0.4375 
Q 6.0625 12.75 6.0625 25.921875 
Q 6.0625 37.546875 9.8125 48.1875 
Q 14.203125 60.546875 23.390625 72.796875 
L 29.6875 72.796875 
Q 23.78125 62.640625 21.875 58.296875 
Q 18.890625 51.5625 17.1875 44.234375 
Q 15.09375 35.109375 15.09375 25.875 
Q 15.09375 2.390625 29.6875 -21.046875 
z
" id="ArialMT-28"/>
      <path d="M 3.078125 15.484375 
L 11.765625 16.84375 
Q 12.5 11.625 15.84375 8.84375 
Q 19.1875 6.0625 25.203125 6.0625 
Q 31.25 6.0625 34.171875 8.515625 
Q 37.109375 10.984375 37.109375 14.3125 
Q 37.109375 17.28125 34.515625 19 
Q 32.71875 20.171875 25.53125 21.96875 
Q 15.875 24.421875 12.140625 26.203125 
Q 8.40625 27.984375 6.46875 31.125 
Q 4.546875 34.28125 4.546875 38.09375 
Q 4.546875 41.546875 6.125 44.5 
Q 7.71875 47.46875 10.453125 49.421875 
Q 12.5 50.921875 16.03125 51.96875 
Q 19.578125 53.03125 23.640625 53.03125 
Q 29.734375 53.03125 34.34375 51.265625 
Q 38.96875 49.515625 41.15625 46.5 
Q 43.359375 43.5 44.1875 38.484375 
L 35.59375 37.3125 
Q 35.015625 41.3125 32.203125 43.546875 
Q 29.390625 45.796875 24.265625 45.796875 
Q 18.21875 45.796875 15.625 43.796875 
Q 13.03125 41.796875 13.03125 39.109375 
Q 13.03125 37.40625 14.109375 36.03125 
Q 15.1875 34.625 17.484375 33.6875 
Q 18.796875 33.203125 25.25 31.453125 
Q 34.578125 28.953125 38.25 27.359375 
Q 41.9375 25.78125 44.03125 22.75 
Q 46.140625 19.734375 46.140625 15.234375 
Q 46.140625 10.84375 43.578125 6.953125 
Q 41.015625 3.078125 36.171875 0.953125 
Q 31.34375 -1.171875 25.25 -1.171875 
Q 15.140625 -1.171875 9.84375 3.03125 
Q 4.546875 7.234375 3.078125 15.484375 
z
" id="ArialMT-73"/>
      <path d="M 12.359375 -21.046875 
L 6.0625 -21.046875 
Q 20.65625 2.390625 20.65625 25.875 
Q 20.65625 35.0625 18.5625 44.09375 
Q 16.890625 51.421875 13.921875 58.15625 
Q 12.015625 62.546875 6.0625 72.796875 
L 12.359375 72.796875 
Q 21.53125 60.546875 25.921875 48.1875 
Q 29.6875 37.546875 29.6875 25.921875 
Q 29.6875 12.75 24.625 0.4375 
Q 19.578125 -11.859375 12.359375 -21.046875 
z
" id="ArialMT-29"/>
     </defs>
     <g style="fill:#262626;" transform="translate(1581.350156 959.251562)scale(0.38 -0.38)">
      <use xlink:href="#ArialMT-74"/>
      <use x="27.783203" xlink:href="#ArialMT-69"/>
      <use x="50" xlink:href="#ArialMT-6d"/>
      <use x="133.300781" xlink:href="#ArialMT-65"/>
      <use x="188.916016" xlink:href="#ArialMT-20"/>
      <use x="216.699219" xlink:href="#ArialMT-28"/>
      <use x="250" xlink:href="#ArialMT-6d"/>
      <use x="333.300781" xlink:href="#ArialMT-73"/>
      <use x="383.300781" xlink:href="#ArialMT-29"/>
     </g>
    </g>
   </g>
   <g id="matplotlib.axis_2">
    <g id="ytick_1">
     <g id="line2d_8">
      <path clip-path="url(#pbce320d42b)" d="M 405 882 
L 2916 882 
" style="fill:none;stroke:#ffffff;stroke-linecap:round;"/>
     </g>
    </g>
    <g id="ytick_2">
     <g id="line2d_9">
      <path clip-path="url(#pbce320d42b)" d="M 405 729.792 
L 2916 729.792 
" style="fill:none;stroke:#ffffff;stroke-linecap:round;"/>
     </g>
    </g>
    <g id="ytick_3">
     <g id="line2d_10">
      <path clip-path="url(#pbce320d42b)" d="M 405 577.584 
L 2916 577.584 
" style="fill:none;stroke:#ffffff;stroke-linecap:round;"/>
     </g>
    </g>
    <g id="ytick_4">
     <g id="line2d_11">
      <path clip-path="url(#pbce320d42b)" d="M 405 425.376 
L 2916 425.376 
" style="fill:none;stroke:#ffffff;stroke-linecap:round;"/>
     </g>
    </g>
    <g id="ytick_5">
     <g id="line2d_12">
      <path clip-path="url(#pbce320d42b)" d="M 405 273.168 
L 2916 273.168 
" style="fill:none;stroke:#ffffff;stroke-linecap:round;"/>
     </g>
    </g>
    <g id="ytick_6">
     <g id="line2d_13">
      <path clip-path="url(#pbce320d42b)" d="M 405 120.96 
L 2916 120.96 
" style="fill:none;stroke:#ffffff;stroke-linecap:round;"/>
     </g>
    </g>
    <g id="text_9">
     <!-- spike event -->
     <defs>
      <path d="M 6.59375 -19.875 
L 6.59375 51.859375 
L 14.59375 51.859375 
L 14.59375 45.125 
Q 17.4375 49.078125 21 51.046875 
Q 24.5625 53.03125 29.640625 53.03125 
Q 36.28125 53.03125 41.359375 49.609375 
Q 46.4375 46.1875 49.015625 39.953125 
Q 51.609375 33.734375 51.609375 26.3125 
Q 51.609375 18.359375 48.75 11.984375 
Q 45.90625 5.609375 40.453125 2.21875 
Q 35.015625 -1.171875 29 -1.171875 
Q 24.609375 -1.171875 21.109375 0.6875 
Q 17.625 2.546875 15.375 5.375 
L 15.375 -19.875 
z
M 14.546875 25.640625 
Q 14.546875 15.625 18.59375 10.84375 
Q 22.65625 6.0625 28.421875 6.0625 
Q 34.28125 6.0625 38.453125 11.015625 
Q 42.625 15.96875 42.625 26.375 
Q 42.625 36.28125 38.546875 41.203125 
Q 34.46875 46.140625 28.8125 46.140625 
Q 23.1875 46.140625 18.859375 40.890625 
Q 14.546875 35.640625 14.546875 25.640625 
z
" id="ArialMT-70"/>
      <path d="M 6.640625 0 
L 6.640625 71.578125 
L 15.4375 71.578125 
L 15.4375 30.765625 
L 36.234375 51.859375 
L 47.609375 51.859375 
L 27.78125 32.625 
L 49.609375 0 
L 38.765625 0 
L 21.625 26.515625 
L 15.4375 20.5625 
L 15.4375 0 
z
" id="ArialMT-6b"/>
      <path d="M 21 0 
L 1.265625 51.859375 
L 10.546875 51.859375 
L 21.6875 20.796875 
Q 23.484375 15.765625 25 10.359375 
Q 26.171875 14.453125 28.265625 20.21875 
L 39.796875 51.859375 
L 48.828125 51.859375 
L 29.203125 0 
z
" id="ArialMT-76"/>
      <path d="M 6.59375 0 
L 6.59375 51.859375 
L 14.5 51.859375 
L 14.5 44.484375 
Q 20.21875 53.03125 31 53.03125 
Q 35.6875 53.03125 39.625 51.34375 
Q 43.5625 49.65625 45.515625 46.921875 
Q 47.46875 44.1875 48.25 40.4375 
Q 48.734375 37.984375 48.734375 31.890625 
L 48.734375 0 
L 39.9375 0 
L 39.9375 31.546875 
Q 39.9375 36.921875 38.90625 39.578125 
Q 37.890625 42.234375 35.28125 43.8125 
Q 32.671875 45.40625 29.15625 45.40625 
Q 23.53125 45.40625 19.453125 41.84375 
Q 15.375 38.28125 15.375 28.328125 
L 15.375 0 
z
" id="ArialMT-6e"/>
     </defs>
     <g style="fill:#262626;" transform="translate(365.9475 597.587344)rotate(-90)scale(0.38 -0.38)">
      <use xlink:href="#ArialMT-73"/>
      <use x="50" xlink:href="#ArialMT-70"/>
      <use x="105.615234" xlink:href="#ArialMT-69"/>
      <use x="127.832031" xlink:href="#ArialMT-6b"/>
      <use x="177.832031" xlink:href="#ArialMT-65"/>
      <use x="233.447266" xlink:href="#ArialMT-20"/>
      <use x="261.230469" xlink:href="#ArialMT-65"/>
      <use x="316.845703" xlink:href="#ArialMT-76"/>
      <use x="366.845703" xlink:href="#ArialMT-65"/>
      <use x="422.460938" xlink:href="#ArialMT-6e"/>
      <use x="478.076172" xlink:href="#ArialMT-74"/>
     </g>
    </g>
   </g>
   <g id="LineCollection_1">
    <path clip-path="url(#pbce320d42b)" d="M 433.458 882 
L 433.458 120.96 
" style="fill:none;stroke:#4c72b0;"/>
    <path clip-path="url(#pbce320d42b)" d="M 441.828 882 
L 441.828 120.96 
" style="fill:none;stroke:#4c72b0;"/>
    <path clip-path="url(#pbce320d42b)" d="M 446.85 882 
L 446.85 120.96 
" style="fill:none;stroke:#4c72b0;"/>
    <path clip-path="url(#pbce320d42b)" d="M 456.894 882 
L 456.894 120.96 
" style="fill:none;stroke:#4c72b0;"/>
    <path clip-path="url(#pbce320d42b)" d="M 461.916 882 
L 461.916 120.96 
" style="fill:none;stroke:#4c72b0;"/>
    <path clip-path="url(#pbce320d42b)" d="M 470.286 882 
L 470.286 120.96 
" style="fill:none;stroke:#4c72b0;"/>
    <path clip-path="url(#pbce320d42b)" d="M 478.656 882 
L 478.656 120.96 
" style="fill:none;stroke:#4c72b0;"/>
    <path clip-path="url(#pbce320d42b)" d="M 485.352 882 
L 485.352 120.96 
" style="fill:none;stroke:#4c72b0;"/>
    <path clip-path="url(#pbce320d42b)" d="M 488.7 882 
L 488.7 120.96 
" style="fill:none;stroke:#4c72b0;"/>
    <path clip-path="url(#pbce320d42b)" d="M 498.744 882 
L 498.744 120.96 
" style="fill:none;stroke:#4c72b0;"/>
    <path clip-path="url(#pbce320d42b)" d="M 507.114 882 
L 507.114 120.96 
" style="fill:none;stroke:#4c72b0;"/>
    <path clip-path="url(#pbce320d42b)" d="M 515.484 882 
L 515.484 120.96 
" style="fill:none;stroke:#4c72b0;"/>
    <path clip-path="url(#pbce320d42b)" d="M 523.854 882 
L 523.854 120.96 
" style="fill:none;stroke:#4c72b0;"/>
    <path clip-path="url(#pbce320d42b)" d="M 540.594 882 
L 540.594 120.96 
" style="fill:none;stroke:#4c72b0;"/>
    <path clip-path="url(#pbce320d42b)" d="M 575.748 882 
L 575.748 120.96 
" style="fill:none;stroke:#4c72b0;"/>
    <path clip-path="url(#pbce320d42b)" d="M 587.466 882 
L 587.466 120.96 
" style="fill:none;stroke:#4c72b0;"/>
    <path clip-path="url(#pbce320d42b)" d="M 600.858 882 
L 600.858 120.96 
" style="fill:none;stroke:#4c72b0;"/>
    <path clip-path="url(#pbce320d42b)" d="M 615.924 882 
L 615.924 120.96 
" style="fill:none;stroke:#4c72b0;"/>
    <path clip-path="url(#pbce320d42b)" d="M 669.492 882 
L 669.492 120.96 
" style="fill:none;stroke:#4c72b0;"/>
    <path clip-path="url(#pbce320d42b)" d="M 672.84 882 
L 672.84 120.96 
" style="fill:none;stroke:#4c72b0;"/>
    <path clip-path="url(#pbce320d42b)" d="M 676.188 882 
L 676.188 120.96 
" style="fill:none;stroke:#4c72b0;"/>
    <path clip-path="url(#pbce320d42b)" d="M 679.536 882 
L 679.536 120.96 
" style="fill:none;stroke:#4c72b0;"/>
    <path clip-path="url(#pbce320d42b)" d="M 682.884 882 
L 682.884 120.96 
" style="fill:none;stroke:#4c72b0;"/>
    <path clip-path="url(#pbce320d42b)" d="M 686.232 882 
L 686.232 120.96 
" style="fill:none;stroke:#4c72b0;"/>
    <path clip-path="url(#pbce320d42b)" d="M 691.254 882 
L 691.254 120.96 
" style="fill:none;stroke:#4c72b0;"/>
    <path clip-path="url(#pbce320d42b)" d="M 694.602 882 
L 694.602 120.96 
" style="fill:none;stroke:#4c72b0;"/>
    <path clip-path="url(#pbce320d42b)" d="M 699.624 882 
L 699.624 120.96 
" style="fill:none;stroke:#4c72b0;"/>
    <path clip-path="url(#pbce320d42b)" d="M 704.646 882 
L 704.646 120.96 
" style="fill:none;stroke:#4c72b0;"/>
    <path clip-path="url(#pbce320d42b)" d="M 711.342 882 
L 711.342 120.96 
" style="fill:none;stroke:#4c72b0;"/>
    <path clip-path="url(#pbce320d42b)" d="M 716.364 882 
L 716.364 120.96 
" style="fill:none;stroke:#4c72b0;"/>
    <path clip-path="url(#pbce320d42b)" d="M 723.06 882 
L 723.06 120.96 
" style="fill:none;stroke:#4c72b0;"/>
    <path clip-path="url(#pbce320d42b)" d="M 729.756 882 
L 729.756 120.96 
" style="fill:none;stroke:#4c72b0;"/>
    <path clip-path="url(#pbce320d42b)" d="M 733.104 882 
L 733.104 120.96 
" style="fill:none;stroke:#4c72b0;"/>
    <path clip-path="url(#pbce320d42b)" d="M 739.8 882 
L 739.8 120.96 
" style="fill:none;stroke:#4c72b0;"/>
    <path clip-path="url(#pbce320d42b)" d="M 744.822 882 
L 744.822 120.96 
" style="fill:none;stroke:#4c72b0;"/>
    <path clip-path="url(#pbce320d42b)" d="M 751.518 882 
L 751.518 120.96 
" style="fill:none;stroke:#4c72b0;"/>
    <path clip-path="url(#pbce320d42b)" d="M 759.888 882 
L 759.888 120.96 
" style="fill:none;stroke:#4c72b0;"/>
    <path clip-path="url(#pbce320d42b)" d="M 763.236 882 
L 763.236 120.96 
" style="fill:none;stroke:#4c72b0;"/>
    <path clip-path="url(#pbce320d42b)" d="M 766.584 882 
L 766.584 120.96 
" style="fill:none;stroke:#4c72b0;"/>
    <path clip-path="url(#pbce320d42b)" d="M 769.932 882 
L 769.932 120.96 
" style="fill:none;stroke:#4c72b0;"/>
    <path clip-path="url(#pbce320d42b)" d="M 773.28 882 
L 773.28 120.96 
" style="fill:none;stroke:#4c72b0;"/>
    <path clip-path="url(#pbce320d42b)" d="M 778.302 882 
L 778.302 120.96 
" style="fill:none;stroke:#4c72b0;"/>
    <path clip-path="url(#pbce320d42b)" d="M 783.324 882 
L 783.324 120.96 
" style="fill:none;stroke:#4c72b0;"/>
    <path clip-path="url(#pbce320d42b)" d="M 788.346 882 
L 788.346 120.96 
" style="fill:none;stroke:#4c72b0;"/>
    <path clip-path="url(#pbce320d42b)" d="M 841.914 882 
L 841.914 120.96 
" style="fill:none;stroke:#4c72b0;"/>
    <path clip-path="url(#pbce320d42b)" d="M 888.786 882 
L 888.786 120.96 
" style="fill:none;stroke:#4c72b0;"/>
    <path clip-path="url(#pbce320d42b)" d="M 898.83 882 
L 898.83 120.96 
" style="fill:none;stroke:#4c72b0;"/>
    <path clip-path="url(#pbce320d42b)" d="M 902.178 882 
L 902.178 120.96 
" style="fill:none;stroke:#4c72b0;"/>
    <path clip-path="url(#pbce320d42b)" d="M 908.874 882 
L 908.874 120.96 
" style="fill:none;stroke:#4c72b0;"/>
    <path clip-path="url(#pbce320d42b)" d="M 912.222 882 
L 912.222 120.96 
" style="fill:none;stroke:#4c72b0;"/>
    <path clip-path="url(#pbce320d42b)" d="M 915.57 882 
L 915.57 120.96 
" style="fill:none;stroke:#4c72b0;"/>
    <path clip-path="url(#pbce320d42b)" d="M 922.266 882 
L 922.266 120.96 
" style="fill:none;stroke:#4c72b0;"/>
    <path clip-path="url(#pbce320d42b)" d="M 977.508 882 
L 977.508 120.96 
" style="fill:none;stroke:#4c72b0;"/>
    <path clip-path="url(#pbce320d42b)" d="M 980.856 882 
L 980.856 120.96 
" style="fill:none;stroke:#4c72b0;"/>
    <path clip-path="url(#pbce320d42b)" d="M 987.552 882 
L 987.552 120.96 
" style="fill:none;stroke:#4c72b0;"/>
    <path clip-path="url(#pbce320d42b)" d="M 1034.424 882 
L 1034.424 120.96 
" style="fill:none;stroke:#4c72b0;"/>
    <path clip-path="url(#pbce320d42b)" d="M 1046.142 882 
L 1046.142 120.96 
" style="fill:none;stroke:#4c72b0;"/>
    <path clip-path="url(#pbce320d42b)" d="M 1051.164 882 
L 1051.164 120.96 
" style="fill:none;stroke:#4c72b0;"/>
    <path clip-path="url(#pbce320d42b)" d="M 1236.978 882 
L 1236.978 120.96 
" style="fill:none;stroke:#4c72b0;"/>
    <path clip-path="url(#pbce320d42b)" d="M 1240.326 882 
L 1240.326 120.96 
" style="fill:none;stroke:#4c72b0;"/>
    <path clip-path="url(#pbce320d42b)" d="M 1245.348 882 
L 1245.348 120.96 
" style="fill:none;stroke:#4c72b0;"/>
    <path clip-path="url(#pbce320d42b)" d="M 1252.044 882 
L 1252.044 120.96 
" style="fill:none;stroke:#4c72b0;"/>
    <path clip-path="url(#pbce320d42b)" d="M 1255.392 882 
L 1255.392 120.96 
" style="fill:none;stroke:#4c72b0;"/>
    <path clip-path="url(#pbce320d42b)" d="M 1258.74 882 
L 1258.74 120.96 
" style="fill:none;stroke:#4c72b0;"/>
    <path clip-path="url(#pbce320d42b)" d="M 1263.762 882 
L 1263.762 120.96 
" style="fill:none;stroke:#4c72b0;"/>
    <path clip-path="url(#pbce320d42b)" d="M 1268.784 882 
L 1268.784 120.96 
" style="fill:none;stroke:#4c72b0;"/>
    <path clip-path="url(#pbce320d42b)" d="M 1272.132 882 
L 1272.132 120.96 
" style="fill:none;stroke:#4c72b0;"/>
    <path clip-path="url(#pbce320d42b)" d="M 1277.154 882 
L 1277.154 120.96 
" style="fill:none;stroke:#4c72b0;"/>
    <path clip-path="url(#pbce320d42b)" d="M 1282.176 882 
L 1282.176 120.96 
" style="fill:none;stroke:#4c72b0;"/>
    <path clip-path="url(#pbce320d42b)" d="M 1285.524 882 
L 1285.524 120.96 
" style="fill:none;stroke:#4c72b0;"/>
    <path clip-path="url(#pbce320d42b)" d="M 1292.22 882 
L 1292.22 120.96 
" style="fill:none;stroke:#4c72b0;"/>
    <path clip-path="url(#pbce320d42b)" d="M 1302.264 882 
L 1302.264 120.96 
" style="fill:none;stroke:#4c72b0;"/>
    <path clip-path="url(#pbce320d42b)" d="M 1303.938 882 
L 1303.938 120.96 
" style="fill:none;stroke:#4c72b0;"/>
    <path clip-path="url(#pbce320d42b)" d="M 1307.286 882 
L 1307.286 120.96 
" style="fill:none;stroke:#4c72b0;"/>
    <path clip-path="url(#pbce320d42b)" d="M 1310.634 882 
L 1310.634 120.96 
" style="fill:none;stroke:#4c72b0;"/>
    <path clip-path="url(#pbce320d42b)" d="M 1315.656 882 
L 1315.656 120.96 
" style="fill:none;stroke:#4c72b0;"/>
    <path clip-path="url(#pbce320d42b)" d="M 1324.026 882 
L 1324.026 120.96 
" style="fill:none;stroke:#4c72b0;"/>
    <path clip-path="url(#pbce320d42b)" d="M 1431.162 882 
L 1431.162 120.96 
" style="fill:none;stroke:#4c72b0;"/>
    <path clip-path="url(#pbce320d42b)" d="M 1436.184 882 
L 1436.184 120.96 
" style="fill:none;stroke:#4c72b0;"/>
    <path clip-path="url(#pbce320d42b)" d="M 1441.206 882 
L 1441.206 120.96 
" style="fill:none;stroke:#4c72b0;"/>
    <path clip-path="url(#pbce320d42b)" d="M 1446.228 882 
L 1446.228 120.96 
" style="fill:none;stroke:#4c72b0;"/>
    <path clip-path="url(#pbce320d42b)" d="M 1449.576 882 
L 1449.576 120.96 
" style="fill:none;stroke:#4c72b0;"/>
    <path clip-path="url(#pbce320d42b)" d="M 1456.272 882 
L 1456.272 120.96 
" style="fill:none;stroke:#4c72b0;"/>
    <path clip-path="url(#pbce320d42b)" d="M 1459.62 882 
L 1459.62 120.96 
" style="fill:none;stroke:#4c72b0;"/>
    <path clip-path="url(#pbce320d42b)" d="M 1464.642 882 
L 1464.642 120.96 
" style="fill:none;stroke:#4c72b0;"/>
    <path clip-path="url(#pbce320d42b)" d="M 1471.338 882 
L 1471.338 120.96 
" style="fill:none;stroke:#4c72b0;"/>
    <path clip-path="url(#pbce320d42b)" d="M 1481.382 882 
L 1481.382 120.96 
" style="fill:none;stroke:#4c72b0;"/>
    <path clip-path="url(#pbce320d42b)" d="M 1539.972 882 
L 1539.972 120.96 
" style="fill:none;stroke:#4c72b0;"/>
    <path clip-path="url(#pbce320d42b)" d="M 1541.646 882 
L 1541.646 120.96 
" style="fill:none;stroke:#4c72b0;"/>
    <path clip-path="url(#pbce320d42b)" d="M 1546.668 882 
L 1546.668 120.96 
" style="fill:none;stroke:#4c72b0;"/>
    <path clip-path="url(#pbce320d42b)" d="M 1551.69 882 
L 1551.69 120.96 
" style="fill:none;stroke:#4c72b0;"/>
    <path clip-path="url(#pbce320d42b)" d="M 1558.386 882 
L 1558.386 120.96 
" style="fill:none;stroke:#4c72b0;"/>
    <path clip-path="url(#pbce320d42b)" d="M 1571.778 882 
L 1571.778 120.96 
" style="fill:none;stroke:#4c72b0;"/>
    <path clip-path="url(#pbce320d42b)" d="M 1581.822 882 
L 1581.822 120.96 
" style="fill:none;stroke:#4c72b0;"/>
    <path clip-path="url(#pbce320d42b)" d="M 1583.496 882 
L 1583.496 120.96 
" style="fill:none;stroke:#4c72b0;"/>
    <path clip-path="url(#pbce320d42b)" d="M 1588.518 882 
L 1588.518 120.96 
" style="fill:none;stroke:#4c72b0;"/>
    <path clip-path="url(#pbce320d42b)" d="M 1593.54 882 
L 1593.54 120.96 
" style="fill:none;stroke:#4c72b0;"/>
    <path clip-path="url(#pbce320d42b)" d="M 1683.936 882 
L 1683.936 120.96 
" style="fill:none;stroke:#4c72b0;"/>
    <path clip-path="url(#pbce320d42b)" d="M 1688.958 882 
L 1688.958 120.96 
" style="fill:none;stroke:#4c72b0;"/>
    <path clip-path="url(#pbce320d42b)" d="M 1693.98 882 
L 1693.98 120.96 
" style="fill:none;stroke:#4c72b0;"/>
    <path clip-path="url(#pbce320d42b)" d="M 1697.328 882 
L 1697.328 120.96 
" style="fill:none;stroke:#4c72b0;"/>
    <path clip-path="url(#pbce320d42b)" d="M 1702.35 882 
L 1702.35 120.96 
" style="fill:none;stroke:#4c72b0;"/>
    <path clip-path="url(#pbce320d42b)" d="M 1709.046 882 
L 1709.046 120.96 
" style="fill:none;stroke:#4c72b0;"/>
    <path clip-path="url(#pbce320d42b)" d="M 1715.742 882 
L 1715.742 120.96 
" style="fill:none;stroke:#4c72b0;"/>
    <path clip-path="url(#pbce320d42b)" d="M 1720.764 882 
L 1720.764 120.96 
" style="fill:none;stroke:#4c72b0;"/>
    <path clip-path="url(#pbce320d42b)" d="M 1725.786 882 
L 1725.786 120.96 
" style="fill:none;stroke:#4c72b0;"/>
    <path clip-path="url(#pbce320d42b)" d="M 1732.482 882 
L 1732.482 120.96 
" style="fill:none;stroke:#4c72b0;"/>
    <path clip-path="url(#pbce320d42b)" d="M 1745.874 882 
L 1745.874 120.96 
" style="fill:none;stroke:#4c72b0;"/>
    <path clip-path="url(#pbce320d42b)" d="M 1752.57 882 
L 1752.57 120.96 
" style="fill:none;stroke:#4c72b0;"/>
    <path clip-path="url(#pbce320d42b)" d="M 1757.592 882 
L 1757.592 120.96 
" style="fill:none;stroke:#4c72b0;"/>
    <path clip-path="url(#pbce320d42b)" d="M 1764.288 882 
L 1764.288 120.96 
" style="fill:none;stroke:#4c72b0;"/>
    <path clip-path="url(#pbce320d42b)" d="M 1774.332 882 
L 1774.332 120.96 
" style="fill:none;stroke:#4c72b0;"/>
    <path clip-path="url(#pbce320d42b)" d="M 1782.702 882 
L 1782.702 120.96 
" style="fill:none;stroke:#4c72b0;"/>
    <path clip-path="url(#pbce320d42b)" d="M 1786.05 882 
L 1786.05 120.96 
" style="fill:none;stroke:#4c72b0;"/>
    <path clip-path="url(#pbce320d42b)" d="M 1789.398 882 
L 1789.398 120.96 
" style="fill:none;stroke:#4c72b0;"/>
    <path clip-path="url(#pbce320d42b)" d="M 1794.42 882 
L 1794.42 120.96 
" style="fill:none;stroke:#4c72b0;"/>
    <path clip-path="url(#pbce320d42b)" d="M 1822.878 882 
L 1822.878 120.96 
" style="fill:none;stroke:#4c72b0;"/>
    <path clip-path="url(#pbce320d42b)" d="M 1824.552 882 
L 1824.552 120.96 
" style="fill:none;stroke:#4c72b0;"/>
    <path clip-path="url(#pbce320d42b)" d="M 1827.9 882 
L 1827.9 120.96 
" style="fill:none;stroke:#4c72b0;"/>
    <path clip-path="url(#pbce320d42b)" d="M 1832.922 882 
L 1832.922 120.96 
" style="fill:none;stroke:#4c72b0;"/>
    <path clip-path="url(#pbce320d42b)" d="M 1837.944 882 
L 1837.944 120.96 
" style="fill:none;stroke:#4c72b0;"/>
    <path clip-path="url(#pbce320d42b)" d="M 1844.64 882 
L 1844.64 120.96 
" style="fill:none;stroke:#4c72b0;"/>
    <path clip-path="url(#pbce320d42b)" d="M 1849.662 882 
L 1849.662 120.96 
" style="fill:none;stroke:#4c72b0;"/>
    <path clip-path="url(#pbce320d42b)" d="M 1851.336 882 
L 1851.336 120.96 
" style="fill:none;stroke:#4c72b0;"/>
    <path clip-path="url(#pbce320d42b)" d="M 1856.358 882 
L 1856.358 120.96 
" style="fill:none;stroke:#4c72b0;"/>
    <path clip-path="url(#pbce320d42b)" d="M 1858.032 882 
L 1858.032 120.96 
" style="fill:none;stroke:#4c72b0;"/>
    <path clip-path="url(#pbce320d42b)" d="M 1861.38 882 
L 1861.38 120.96 
" style="fill:none;stroke:#4c72b0;"/>
    <path clip-path="url(#pbce320d42b)" d="M 1866.402 882 
L 1866.402 120.96 
" style="fill:none;stroke:#4c72b0;"/>
    <path clip-path="url(#pbce320d42b)" d="M 1871.424 882 
L 1871.424 120.96 
" style="fill:none;stroke:#4c72b0;"/>
    <path clip-path="url(#pbce320d42b)" d="M 1876.446 882 
L 1876.446 120.96 
" style="fill:none;stroke:#4c72b0;"/>
    <path clip-path="url(#pbce320d42b)" d="M 1881.468 882 
L 1881.468 120.96 
" style="fill:none;stroke:#4c72b0;"/>
    <path clip-path="url(#pbce320d42b)" d="M 1888.164 882 
L 1888.164 120.96 
" style="fill:none;stroke:#4c72b0;"/>
    <path clip-path="url(#pbce320d42b)" d="M 1889.838 882 
L 1889.838 120.96 
" style="fill:none;stroke:#4c72b0;"/>
    <path clip-path="url(#pbce320d42b)" d="M 1894.86 882 
L 1894.86 120.96 
" style="fill:none;stroke:#4c72b0;"/>
    <path clip-path="url(#pbce320d42b)" d="M 1901.556 882 
L 1901.556 120.96 
" style="fill:none;stroke:#4c72b0;"/>
    <path clip-path="url(#pbce320d42b)" d="M 1908.252 882 
L 1908.252 120.96 
" style="fill:none;stroke:#4c72b0;"/>
    <path clip-path="url(#pbce320d42b)" d="M 1913.274 882 
L 1913.274 120.96 
" style="fill:none;stroke:#4c72b0;"/>
    <path clip-path="url(#pbce320d42b)" d="M 1986.93 882 
L 1986.93 120.96 
" style="fill:none;stroke:#4c72b0;"/>
    <path clip-path="url(#pbce320d42b)" d="M 1990.278 882 
L 1990.278 120.96 
" style="fill:none;stroke:#4c72b0;"/>
    <path clip-path="url(#pbce320d42b)" d="M 2052.216 882 
L 2052.216 120.96 
" style="fill:none;stroke:#4c72b0;"/>
    <path clip-path="url(#pbce320d42b)" d="M 2057.238 882 
L 2057.238 120.96 
" style="fill:none;stroke:#4c72b0;"/>
    <path clip-path="url(#pbce320d42b)" d="M 2060.586 882 
L 2060.586 120.96 
" style="fill:none;stroke:#4c72b0;"/>
    <path clip-path="url(#pbce320d42b)" d="M 2065.608 882 
L 2065.608 120.96 
" style="fill:none;stroke:#4c72b0;"/>
    <path clip-path="url(#pbce320d42b)" d="M 2072.304 882 
L 2072.304 120.96 
" style="fill:none;stroke:#4c72b0;"/>
    <path clip-path="url(#pbce320d42b)" d="M 2075.652 882 
L 2075.652 120.96 
" style="fill:none;stroke:#4c72b0;"/>
    <path clip-path="url(#pbce320d42b)" d="M 2077.326 882 
L 2077.326 120.96 
" style="fill:none;stroke:#4c72b0;"/>
    <path clip-path="url(#pbce320d42b)" d="M 2082.348 882 
L 2082.348 120.96 
" style="fill:none;stroke:#4c72b0;"/>
    <path clip-path="url(#pbce320d42b)" d="M 2087.37 882 
L 2087.37 120.96 
" style="fill:none;stroke:#4c72b0;"/>
    <path clip-path="url(#pbce320d42b)" d="M 2094.066 882 
L 2094.066 120.96 
" style="fill:none;stroke:#4c72b0;"/>
    <path clip-path="url(#pbce320d42b)" d="M 2104.11 882 
L 2104.11 120.96 
" style="fill:none;stroke:#4c72b0;"/>
    <path clip-path="url(#pbce320d42b)" d="M 2107.458 882 
L 2107.458 120.96 
" style="fill:none;stroke:#4c72b0;"/>
    <path clip-path="url(#pbce320d42b)" d="M 2110.806 882 
L 2110.806 120.96 
" style="fill:none;stroke:#4c72b0;"/>
    <path clip-path="url(#pbce320d42b)" d="M 2117.502 882 
L 2117.502 120.96 
" style="fill:none;stroke:#4c72b0;"/>
    <path clip-path="url(#pbce320d42b)" d="M 2182.788 882 
L 2182.788 120.96 
" style="fill:none;stroke:#4c72b0;"/>
    <path clip-path="url(#pbce320d42b)" d="M 2236.356 882 
L 2236.356 120.96 
" style="fill:none;stroke:#4c72b0;"/>
    <path clip-path="url(#pbce320d42b)" d="M 2256.444 882 
L 2256.444 120.96 
" style="fill:none;stroke:#4c72b0;"/>
    <path clip-path="url(#pbce320d42b)" d="M 2259.792 882 
L 2259.792 120.96 
" style="fill:none;stroke:#4c72b0;"/>
    <path clip-path="url(#pbce320d42b)" d="M 2284.902 882 
L 2284.902 120.96 
" style="fill:none;stroke:#4c72b0;"/>
    <path clip-path="url(#pbce320d42b)" d="M 2288.25 882 
L 2288.25 120.96 
" style="fill:none;stroke:#4c72b0;"/>
    <path clip-path="url(#pbce320d42b)" d="M 2291.598 882 
L 2291.598 120.96 
" style="fill:none;stroke:#4c72b0;"/>
    <path clip-path="url(#pbce320d42b)" d="M 2296.62 882 
L 2296.62 120.96 
" style="fill:none;stroke:#4c72b0;"/>
    <path clip-path="url(#pbce320d42b)" d="M 2380.32 882 
L 2380.32 120.96 
" style="fill:none;stroke:#4c72b0;"/>
    <path clip-path="url(#pbce320d42b)" d="M 2385.342 882 
L 2385.342 120.96 
" style="fill:none;stroke:#4c72b0;"/>
    <path clip-path="url(#pbce320d42b)" d="M 2390.364 882 
L 2390.364 120.96 
" style="fill:none;stroke:#4c72b0;"/>
    <path clip-path="url(#pbce320d42b)" d="M 2402.082 882 
L 2402.082 120.96 
" style="fill:none;stroke:#4c72b0;"/>
    <path clip-path="url(#pbce320d42b)" d="M 2464.02 882 
L 2464.02 120.96 
" style="fill:none;stroke:#4c72b0;"/>
    <path clip-path="url(#pbce320d42b)" d="M 2469.042 882 
L 2469.042 120.96 
" style="fill:none;stroke:#4c72b0;"/>
    <path clip-path="url(#pbce320d42b)" d="M 2474.064 882 
L 2474.064 120.96 
" style="fill:none;stroke:#4c72b0;"/>
    <path clip-path="url(#pbce320d42b)" d="M 2482.434 882 
L 2482.434 120.96 
" style="fill:none;stroke:#4c72b0;"/>
    <path clip-path="url(#pbce320d42b)" d="M 2490.804 882 
L 2490.804 120.96 
" style="fill:none;stroke:#4c72b0;"/>
    <path clip-path="url(#pbce320d42b)" d="M 2497.5 882 
L 2497.5 120.96 
" style="fill:none;stroke:#4c72b0;"/>
    <path clip-path="url(#pbce320d42b)" d="M 2502.522 882 
L 2502.522 120.96 
" style="fill:none;stroke:#4c72b0;"/>
    <path clip-path="url(#pbce320d42b)" d="M 2507.544 882 
L 2507.544 120.96 
" style="fill:none;stroke:#4c72b0;"/>
    <path clip-path="url(#pbce320d42b)" d="M 2512.566 882 
L 2512.566 120.96 
" style="fill:none;stroke:#4c72b0;"/>
    <path clip-path="url(#pbce320d42b)" d="M 2522.61 882 
L 2522.61 120.96 
" style="fill:none;stroke:#4c72b0;"/>
    <path clip-path="url(#pbce320d42b)" d="M 2534.328 882 
L 2534.328 120.96 
" style="fill:none;stroke:#4c72b0;"/>
    <path clip-path="url(#pbce320d42b)" d="M 2539.35 882 
L 2539.35 120.96 
" style="fill:none;stroke:#4c72b0;"/>
    <path clip-path="url(#pbce320d42b)" d="M 2562.786 882 
L 2562.786 120.96 
" style="fill:none;stroke:#4c72b0;"/>
    <path clip-path="url(#pbce320d42b)" d="M 2566.134 882 
L 2566.134 120.96 
" style="fill:none;stroke:#4c72b0;"/>
    <path clip-path="url(#pbce320d42b)" d="M 2569.482 882 
L 2569.482 120.96 
" style="fill:none;stroke:#4c72b0;"/>
    <path clip-path="url(#pbce320d42b)" d="M 2574.504 882 
L 2574.504 120.96 
" style="fill:none;stroke:#4c72b0;"/>
    <path clip-path="url(#pbce320d42b)" d="M 2582.874 882 
L 2582.874 120.96 
" style="fill:none;stroke:#4c72b0;"/>
    <path clip-path="url(#pbce320d42b)" d="M 2613.006 882 
L 2613.006 120.96 
" style="fill:none;stroke:#4c72b0;"/>
    <path clip-path="url(#pbce320d42b)" d="M 2614.68 882 
L 2614.68 120.96 
" style="fill:none;stroke:#4c72b0;"/>
    <path clip-path="url(#pbce320d42b)" d="M 2619.702 882 
L 2619.702 120.96 
" style="fill:none;stroke:#4c72b0;"/>
    <path clip-path="url(#pbce320d42b)" d="M 2626.398 882 
L 2626.398 120.96 
" style="fill:none;stroke:#4c72b0;"/>
    <path clip-path="url(#pbce320d42b)" d="M 2629.746 882 
L 2629.746 120.96 
" style="fill:none;stroke:#4c72b0;"/>
    <path clip-path="url(#pbce320d42b)" d="M 2634.768 882 
L 2634.768 120.96 
" style="fill:none;stroke:#4c72b0;"/>
    <path clip-path="url(#pbce320d42b)" d="M 2643.138 882 
L 2643.138 120.96 
" style="fill:none;stroke:#4c72b0;"/>
    <path clip-path="url(#pbce320d42b)" d="M 2674.944 882 
L 2674.944 120.96 
" style="fill:none;stroke:#4c72b0;"/>
    <path clip-path="url(#pbce320d42b)" d="M 2716.794 882 
L 2716.794 120.96 
" style="fill:none;stroke:#4c72b0;"/>
    <path clip-path="url(#pbce320d42b)" d="M 2720.142 882 
L 2720.142 120.96 
" style="fill:none;stroke:#4c72b0;"/>
    <path clip-path="url(#pbce320d42b)" d="M 2725.164 882 
L 2725.164 120.96 
" style="fill:none;stroke:#4c72b0;"/>
    <path clip-path="url(#pbce320d42b)" d="M 2730.186 882 
L 2730.186 120.96 
" style="fill:none;stroke:#4c72b0;"/>
    <path clip-path="url(#pbce320d42b)" d="M 2735.208 882 
L 2735.208 120.96 
" style="fill:none;stroke:#4c72b0;"/>
    <path clip-path="url(#pbce320d42b)" d="M 2746.926 882 
L 2746.926 120.96 
" style="fill:none;stroke:#4c72b0;"/>
    <path clip-path="url(#pbce320d42b)" d="M 2845.692 882 
L 2845.692 120.96 
" style="fill:none;stroke:#4c72b0;"/>
    <path clip-path="url(#pbce320d42b)" d="M 2895.912 882 
L 2895.912 120.96 
" style="fill:none;stroke:#4c72b0;"/>
    <path clip-path="url(#pbce320d42b)" d="M 2900.934 882 
L 2900.934 120.96 
" style="fill:none;stroke:#4c72b0;"/>
    <path clip-path="url(#pbce320d42b)" d="M 2905.956 882 
L 2905.956 120.96 
" style="fill:none;stroke:#4c72b0;"/>
    <path clip-path="url(#pbce320d42b)" d="M 2910.978 882 
L 2910.978 120.96 
" style="fill:none;stroke:#4c72b0;"/>
   </g>
   <g id="patch_3">
    <path d="M 405 882 
L 405 120.96 
" style="fill:none;stroke:#ffffff;stroke-linecap:square;stroke-linejoin:miter;stroke-width:1.25;"/>
   </g>
   <g id="patch_4">
    <path d="M 2916 882 
L 2916 120.96 
" style="fill:none;stroke:#ffffff;stroke-linecap:square;stroke-linejoin:miter;stroke-width:1.25;"/>
   </g>
   <g id="patch_5">
    <path d="M 405 882 
L 2916 882 
" style="fill:none;stroke:#ffffff;stroke-linecap:square;stroke-linejoin:miter;stroke-width:1.25;"/>
   </g>
   <g id="patch_6">
    <path d="M 405 120.96 
L 2916 120.96 
" style="fill:none;stroke:#ffffff;stroke-linecap:square;stroke-linejoin:miter;stroke-width:1.25;"/>
   </g>
   <g id="text_10">
    <!-- spike times (event data) -->
    <defs>
     <path d="M 40.234375 0 
L 40.234375 6.546875 
Q 35.296875 -1.171875 25.734375 -1.171875 
Q 19.53125 -1.171875 14.328125 2.25 
Q 9.125 5.671875 6.265625 11.796875 
Q 3.421875 17.921875 3.421875 25.875 
Q 3.421875 33.640625 6 39.96875 
Q 8.59375 46.296875 13.765625 49.65625 
Q 18.953125 53.03125 25.34375 53.03125 
Q 30.03125 53.03125 33.6875 51.046875 
Q 37.359375 49.078125 39.65625 45.90625 
L 39.65625 71.578125 
L 48.390625 71.578125 
L 48.390625 0 
z
M 12.453125 25.875 
Q 12.453125 15.921875 16.640625 10.984375 
Q 20.84375 6.0625 26.5625 6.0625 
Q 32.328125 6.0625 36.34375 10.765625 
Q 40.375 15.484375 40.375 25.140625 
Q 40.375 35.796875 36.265625 40.765625 
Q 32.171875 45.75 26.171875 45.75 
Q 20.3125 45.75 16.375 40.96875 
Q 12.453125 36.1875 12.453125 25.875 
z
" id="ArialMT-64"/>
     <path d="M 40.4375 6.390625 
Q 35.546875 2.25 31.03125 0.53125 
Q 26.515625 -1.171875 21.34375 -1.171875 
Q 12.796875 -1.171875 8.203125 3 
Q 3.609375 7.171875 3.609375 13.671875 
Q 3.609375 17.484375 5.34375 20.625 
Q 7.078125 23.78125 9.890625 25.6875 
Q 12.703125 27.59375 16.21875 28.5625 
Q 18.796875 29.25 24.03125 29.890625 
Q 34.671875 31.15625 39.703125 32.90625 
Q 39.75 34.71875 39.75 35.203125 
Q 39.75 40.578125 37.25 42.78125 
Q 33.890625 45.75 27.25 45.75 
Q 21.046875 45.75 18.09375 43.578125 
Q 15.140625 41.40625 13.71875 35.890625 
L 5.125 37.0625 
Q 6.296875 42.578125 8.984375 45.96875 
Q 11.671875 49.359375 16.75 51.1875 
Q 21.828125 53.03125 28.515625 53.03125 
Q 35.15625 53.03125 39.296875 51.46875 
Q 43.453125 49.90625 45.40625 47.53125 
Q 47.359375 45.171875 48.140625 41.546875 
Q 48.578125 39.3125 48.578125 33.453125 
L 48.578125 21.734375 
Q 48.578125 9.46875 49.140625 6.21875 
Q 49.703125 2.984375 51.375 0 
L 42.1875 0 
Q 40.828125 2.734375 40.4375 6.390625 
z
M 39.703125 26.03125 
Q 34.90625 24.078125 25.34375 22.703125 
Q 19.921875 21.921875 17.671875 20.9375 
Q 15.4375 19.96875 14.203125 18.09375 
Q 12.984375 16.21875 12.984375 13.921875 
Q 12.984375 10.40625 15.640625 8.0625 
Q 18.3125 5.71875 23.4375 5.71875 
Q 28.515625 5.71875 32.46875 7.9375 
Q 36.421875 10.15625 38.28125 14.015625 
Q 39.703125 17 39.703125 22.796875 
z
" id="ArialMT-61"/>
    </defs>
    <g style="fill:#262626;" transform="translate(1458.815 114.96)scale(0.38 -0.38)">
     <use xlink:href="#ArialMT-73"/>
     <use x="50" xlink:href="#ArialMT-70"/>
     <use x="105.615234" xlink:href="#ArialMT-69"/>
     <use x="127.832031" xlink:href="#ArialMT-6b"/>
     <use x="177.832031" xlink:href="#ArialMT-65"/>
     <use x="233.447266" xlink:href="#ArialMT-20"/>
     <use x="261.230469" xlink:href="#ArialMT-74"/>
     <use x="289.013672" xlink:href="#ArialMT-69"/>
     <use x="311.230469" xlink:href="#ArialMT-6d"/>
     <use x="394.53125" xlink:href="#ArialMT-65"/>
     <use x="450.146484" xlink:href="#ArialMT-73"/>
     <use x="500.146484" xlink:href="#ArialMT-20"/>
     <use x="527.929688" xlink:href="#ArialMT-28"/>
     <use x="561.230469" xlink:href="#ArialMT-65"/>
     <use x="616.845703" xlink:href="#ArialMT-76"/>
     <use x="666.845703" xlink:href="#ArialMT-65"/>
     <use x="722.460938" xlink:href="#ArialMT-6e"/>
     <use x="778.076172" xlink:href="#ArialMT-74"/>
     <use x="805.859375" xlink:href="#ArialMT-20"/>
     <use x="833.642578" xlink:href="#ArialMT-64"/>
     <use x="889.257812" xlink:href="#ArialMT-61"/>
     <use x="944.873047" xlink:href="#ArialMT-74"/>
     <use x="972.65625" xlink:href="#ArialMT-61"/>
     <use x="1028.271484" xlink:href="#ArialMT-29"/>
    </g>
   </g>
  </g>
 </g>
 <defs>
  <clipPath id="pbce320d42b">
   <rect height="761.04" width="2511" x="405" y="120.96"/>
  </clipPath>
 </defs>
</svg>
