<?xml version="1.0" encoding="UTF-8" standalone="no"?>
<svg
   xmlns:dc="http://purl.org/dc/elements/1.1/"
   xmlns:cc="http://creativecommons.org/ns#"
   xmlns:rdf="http://www.w3.org/1999/02/22-rdf-syntax-ns#"
   xmlns:svg="http://www.w3.org/2000/svg"
   xmlns="http://www.w3.org/2000/svg"
   xmlns:sodipodi="http://sodipodi.sourceforge.net/DTD/sodipodi-0.dtd"
   xmlns:inkscape="http://www.inkscape.org/namespaces/inkscape"
   version="1.0"
   width="1280.000000pt"
   height="682.000000pt"
   viewBox="0 0 1280.000000 682.000000"
   preserveAspectRatio="xMidYMid meet"
   id="svg4558"
   sodipodi:docname="main.svg"
   inkscape:version="0.92.3 (2405546, 2018-03-11)">
  <defs
     id="defs4562" />
  <sodipodi:namedview
     pagecolor="#ffffff"
     bordercolor="#666666"
     borderopacity="1"
     objecttolerance="10"
     gridtolerance="10"
     guidetolerance="10"
     inkscape:pageopacity="0"
     inkscape:pageshadow="2"
     inkscape:window-width="3840"
     inkscape:window-height="2104"
     id="namedview4560"
     showgrid="false"
     inkscape:zoom="1.28"
     inkscape:cx="733.86225"
     inkscape:cy="502.64215"
     inkscape:window-x="-16"
     inkscape:window-y="-16"
     inkscape:window-maximized="1"
     inkscape:current-layer="svg4558" />
  <metadata
     id="metadata4546">
Created by potrace 1.15, written by Peter Selinger 2001-2017
<rdf:RDF>
  <cc:Work
     rdf:about="">
    <dc:format>image/svg+xml</dc:format>
    <dc:type
       rdf:resource="http://purl.org/dc/dcmitype/StillImage" />
    <dc:title></dc:title>
    <dc:title></dc:title>
  </cc:Work>
</rdf:RDF>
</metadata>
  <g
     transform="matrix(-0.1,0,0,-0.1,1261.4121,682)"
     id="g4556"
     style="fill:#f56a6a;stroke:none;fill-opacity:0.74117649">
    <path
       d="m 9251,5679 c -13,-5 -49,-25 -81,-45 -43,-27 -69,-36 -102,-36 -56,0 -163,20 -207,38 -62,26 -124,10 -150,-39 -22,-42 -55,-49 -144,-32 -91,17 -262,20 -357,5 -446,-71 -820,-463 -926,-970 -25,-116 -25,-359 0,-490 37,-200 143,-455 246,-591 43,-57 84,-88 98,-74 10,9 2,55 -18,110 -28,75 -37,185 -20,256 15,67 62,158 100,194 l 28,27 16,-56 16,-56 -33,-49 c -95,-137 -85,-334 21,-445 42,-44 117,-83 178,-92 36,-5 121,10 175,31 12,5 20,-4 33,-35 9,-22 16,-42 16,-44 0,-9 -102,-46 -157,-55 -61,-12 -101,-9 -363,19 -187,21 -327,-22 -439,-132 -181,-178 -187,-422 -14,-609 44,-47 75,-69 147,-104 119,-56 178,-70 306,-69 257,1 477,126 647,367 30,42 57,77 60,77 10,0 -6,-321 -22,-435 -46,-331 -152,-563 -354,-778 -84,-90 -263,-323 -265,-346 -1,-15 90,-16 1160,-19 922,-2 1164,1 1172,10 22,27 75,376 92,613 17,240 61,450 106,513 27,39 52,42 195,21 359,-50 568,-48 669,7 53,29 76,56 120,142 42,83 41,136 -5,229 -38,78 -44,123 -19,144 9,8 42,28 73,44 39,21 56,36 56,50 0,20 -4,22 -109,50 -78,22 -108,52 -104,107 4,52 32,74 113,89 86,15 95,18 95,38 0,10 -8,29 -19,42 -83,107 -55,174 97,234 135,53 144,95 34,171 -37,26 -116,95 -177,154 -60,59 -145,137 -188,175 -106,93 -111,103 -108,250 2,141 -14,207 -84,345 -24,47 -59,128 -78,180 -19,52 -47,120 -61,150 -14,30 -26,66 -26,80 0,22 60,119 161,259 44,61 34,75 -57,76 -49,0 -82,7 -114,22 -25,12 -57,24 -72,27 -19,5 -32,17 -42,40 -21,50 -41,57 -93,34 -38,-17 -49,-18 -81,-7 -20,7 -58,13 -83,14 -37,1 -54,8 -83,33 -32,28 -44,32 -94,33 -74,0 -160,19 -192,42 -31,22 -87,22 -173,0 l -68,-18 -53,29 c -51,28 -55,28 -105,16 -70,-16 -134,-9 -202,23 -31,15 -58,27 -60,26 -2,0 -15,-5 -28,-10 z m -689,-163 c 134,-26 258,-83 345,-159 l 33,-29 -48,-39 c -213,-177 -361,-515 -365,-839 -1,-60 3,-103 11,-117 6,-12 9,-24 4,-27 -4,-2 -95,-12 -202,-21 -220,-18 -301,-29 -380,-51 -86,-25 -183,-81 -257,-148 -128,-118 -177,-229 -171,-389 3,-99 0,-99 -54,8 -47,91 -96,224 -124,338 -35,138 -44,386 -20,526 69,397 347,763 677,891 171,66 384,88 551,56 z m 1148,-81 c 285,-60 568,-280 714,-555 221,-417 30,-811 -383,-788 -62,4 -106,13 -156,33 -98,39 -97,38 -68,90 114,205 104,501 -28,755 -159,307 -460,444 -675,308 -26,-16 -47,-28 -48,-26 -2,2 -12,17 -25,35 l -22,32 83,40 c 193,93 403,119 608,76 z m -240,-181 c 133,-64 229,-167 305,-329 57,-121 76,-197 82,-340 4,-90 1,-137 -11,-188 -15,-62 -65,-179 -86,-201 -11,-11 -116,66 -255,185 -140,120 -254,202 -331,240 -48,24 -64,37 -60,48 38,114 47,164 48,256 0,83 -4,113 -27,180 -14,44 -31,85 -36,91 -12,14 24,47 81,74 37,17 61,20 135,18 77,-3 100,-8 155,-34 z m -460,-9 21,-34 -24,-43 c -51,-90 -60,-138 -55,-302 3,-83 9,-159 13,-168 6,-16 0,-18 -69,-18 -51,0 -93,-6 -130,-20 -63,-24 -139,-87 -166,-139 l -19,-36 -1,33 c -1,102 68,337 136,461 67,124 220,300 261,301 6,0 21,-16 33,-35 z m 69,-131 c 47,-123 47,-265 0,-389 -19,-50 -24,-56 -47,-53 -34,4 -41,31 -49,183 -4,94 -2,134 11,184 14,55 50,131 61,131 2,0 13,-25 24,-56 z m -130,-480 c 29,-6 31,-10 31,-48 0,-33 -7,-48 -35,-78 -96,-101 -203,-160 -348,-192 -24,-6 -26,-4 -19,11 5,10 17,43 27,73 38,119 119,199 229,226 62,15 75,16 115,8 z m 233,-70 c 60,-30 236,-162 348,-260 41,-36 101,-84 133,-105 31,-22 57,-44 57,-48 0,-5 -27,-34 -60,-64 -177,-164 -446,-204 -728,-110 -66,22 -219,93 -260,121 -8,5 15,9 60,8 89,0 137,22 196,90 53,59 81,136 89,238 4,66 11,89 35,128 33,53 29,53 130,2 z m -802,-494 c 41,-10 93,-26 115,-36 l 40,-18 -60,-6 c -75,-8 -112,-27 -162,-84 -50,-56 -61,-94 -73,-235 -13,-146 -24,-183 -77,-241 -104,-115 -278,-126 -392,-24 -136,122 -130,352 14,497 149,150 366,204 595,147 z m 302,-142 c 65,-28 150,-121 177,-193 24,-63 28,-183 10,-250 l -11,-39 -13,38 c -16,47 -40,73 -87,97 -31,16 -59,19 -164,19 -112,0 -131,2 -166,22 -76,43 -112,153 -73,228 50,97 200,133 327,78 z m -317,-458 c 22,-84 31,-315 16,-404 -46,-265 -225,-508 -456,-622 -116,-57 -187,-74 -305,-74 -170,0 -304,48 -410,146 -85,79 -124,161 -129,271 -4,106 18,177 79,257 55,73 134,129 219,156 77,24 198,26 351,5 125,-17 208,-19 281,-5 161,30 300,163 316,301 7,61 15,54 38,-31 z m 354,59 c 55,-31 73,-62 83,-148 5,-42 12,-91 14,-109 7,-47 57,-99 113,-116 l 46,-14 -59,-17 c -84,-25 -224,-18 -286,15 -105,54 -156,118 -167,209 -13,113 58,201 165,201 36,0 66,-7 91,-21 z"
       id="path4548"
       inkscape:connector-curvature="0"
       style="fill:#f56a6a;fill-opacity:0.74117649" />
    <path
       d="m 2920,5425 c -432,-60 -852,-286 -1067,-575 -154,-205 -212,-426 -180,-677 l 8,-63 h -50 c -65,0 -187,-39 -251,-80 -102,-65 -193,-201 -231,-346 -28,-105 -30,-292 -5,-419 87,-442 428,-863 822,-1013 396,-150 841,8 1096,390 122,183 214,449 248,718 28,227 21,485 -15,558 -9,17 -18,32 -20,32 -9,0 -27,-44 -31,-74 -27,-206 -98,-332 -223,-393 -49,-25 -67,-28 -151,-28 -80,0 -108,5 -174,29 -87,32 -87,33 14,56 137,32 293,120 393,222 73,75 124,155 85,132 -8,-4 -10,-3 -5,2 5,5 14,9 20,9 6,0 21,20 33,45 43,85 56,170 64,435 9,263 15,315 50,408 44,118 152,243 263,307 59,33 178,67 257,73 58,4 229,-15 269,-31 13,-5 35,-7 48,-4 19,4 22,9 17,26 -9,28 -25,39 -123,87 -166,81 -435,154 -653,178 -129,15 -390,12 -508,-4 z m 478,-46 c 148,-16 330,-55 465,-100 67,-22 125,-44 129,-47 4,-4 -37,-8 -90,-8 -56,-1 -125,-9 -162,-19 -176,-46 -342,-179 -419,-337 -56,-113 -69,-194 -76,-460 -7,-262 -22,-354 -72,-458 -45,-94 -165,-218 -269,-278 -83,-48 -224,-97 -305,-107 l -57,-7 -108,86 c -60,48 -149,123 -198,167 -161,145 -312,243 -426,275 -56,15 -61,19 -69,53 -31,121 -19,299 29,439 44,129 111,232 225,347 336,338 872,512 1403,454 z M 1725,3995 c 57,-142 148,-253 282,-341 137,-92 300,-144 448,-144 56,0 72,-5 122,-35 32,-20 95,-47 140,-61 72,-23 96,-26 180,-22 123,5 189,34 260,112 47,51 103,149 103,180 0,9 3,16 8,16 9,0 5,-157 -9,-285 -29,-273 -118,-540 -244,-730 -138,-208 -374,-367 -610,-412 -103,-20 -263,-12 -360,16 -348,103 -687,449 -814,831 -55,167 -68,390 -31,534 51,202 185,342 364,381 34,8 79,13 101,12 38,-2 41,-4 60,-52 z m 146,6 c 86,-36 193,-111 331,-230 61,-53 143,-123 182,-155 l 71,-59 -67,7 c -251,25 -505,204 -598,421 -18,42 -18,45 -2,45 9,0 47,-13 83,-29 z m 1309,-125 c 0,-2 -8,-10 -17,-17 -16,-13 -17,-12 -4,4 13,16 21,21 21,13 z m -1329,-53 c 13,-16 12,-17 -3,-4 -10,7 -18,15 -18,17 0,8 8,3 21,-13 z m 1299,13 c 0,-2 -8,-10 -17,-17 -16,-13 -17,-12 -4,4 13,16 21,21 21,13 z m -1269,-53 c 13,-16 12,-17 -3,-4 -17,13 -22,21 -14,21 2,0 10,-8 17,-17 z m 60,-60 c 13,-16 12,-17 -3,-4 -17,13 -22,21 -14,21 2,0 10,-8 17,-17 z"
       id="path4550"
       inkscape:connector-curvature="0"
       style="fill:#f56a6a;fill-opacity:0.74117649" />
    <path
       d="m 5009,5280 c -115,-18 -229,-81 -326,-182 -54,-56 -121,-154 -143,-210 -7,-18 -15,-35 -17,-37 -1,-2 -31,26 -64,63 -210,229 -506,298 -749,176 -116,-58 -244,-205 -303,-345 -95,-227 -98,-542 -7,-825 144,-447 573,-813 1050,-896 184,-32 463,-5 629,62 23,9 43,15 46,13 2,-2 -19,-33 -46,-69 -99,-131 -182,-299 -219,-445 -23,-88 -42,-269 -35,-325 2,-19 7,-59 10,-88 7,-75 19,-122 59,-237 62,-181 113,-276 242,-447 274,-362 711,-615 1217,-704 259,-45 558,-35 747,26 322,104 500,307 500,570 0,216 -137,450 -360,614 -46,34 -56,46 -43,49 10,3 54,13 98,22 103,22 258,76 360,126 93,45 120,65 130,97 9,31 -6,32 -104,6 -69,-18 -200,-20 -266,-3 -171,42 -307,176 -371,366 -24,71 -26,97 -35,337 -10,299 -22,379 -76,483 -73,143 -176,244 -323,315 -36,17 -59,33 -53,35 28,10 159,-19 206,-45 62,-34 131,-109 153,-170 48,-127 73,-37 35,123 -38,155 -133,337 -242,459 -181,203 -511,342 -766,322 -260,-21 -480,-160 -575,-363 -79,-166 -54,-348 65,-479 70,-77 125,-110 255,-150 10,-3 10,-8 -2,-26 -19,-30 -51,-117 -70,-195 -57,-221 -11,-489 116,-683 l 23,-35 -35,24 c -74,52 -197,187 -230,255 -46,95 -59,196 -36,279 18,65 71,160 106,192 11,10 20,30 20,45 0,14 4,30 9,36 4,5 11,21 15,37 6,24 3,27 -17,27 -14,0 -53,-13 -89,-29 -91,-42 -181,-56 -255,-41 -119,24 -211,82 -298,187 -46,56 -115,168 -115,187 0,4 29,-16 65,-43 127,-98 297,-177 452,-211 95,-21 189,-26 213,-10 20,12 8,23 -60,51 -142,59 -215,148 -240,292 -25,140 16,263 157,470 152,221 193,358 160,522 -41,200 -178,361 -347,408 -74,21 -153,27 -221,17 z m 201,-52 c 235,-70 387,-342 325,-582 -22,-83 -56,-150 -140,-274 -127,-189 -156,-250 -175,-368 -13,-79 2,-189 34,-260 26,-57 94,-137 141,-165 39,-24 18,-24 -79,1 -164,43 -345,141 -474,258 -53,47 -54,49 -78,152 -13,58 -33,170 -44,250 -33,232 -79,395 -143,512 l -31,56 38,76 c 71,144 175,252 301,313 105,49 223,61 325,31 z M 4103,5074 c 124,-32 275,-133 355,-237 l 42,-54 -12,-54 c -7,-30 -12,-108 -12,-174 1,-97 6,-139 27,-220 32,-121 116,-296 184,-387 28,-36 59,-90 68,-120 40,-120 110,-231 207,-324 115,-113 213,-156 350,-157 h 86 l -26,-21 c -15,-11 -44,-35 -64,-53 -73,-64 -262,-143 -428,-179 -105,-23 -363,-26 -455,-5 -392,87 -726,336 -897,667 -80,154 -122,306 -137,489 -16,195 11,358 86,514 74,154 211,277 354,315 72,20 197,20 272,0 z m 491,-494 c 31,-90 48,-172 81,-379 14,-86 28,-169 31,-186 8,-46 -72,81 -114,180 -54,129 -76,233 -76,370 -1,66 3,129 7,140 8,18 10,17 27,-15 11,-19 30,-69 44,-110 z m 1602,-125 c 128,-32 295,-115 392,-196 159,-131 296,-360 337,-559 l 7,-35 -31,42 c -79,109 -252,173 -391,145 -25,-5 -58,-5 -75,0 -52,15 -235,11 -301,-6 -152,-39 -301,-139 -396,-265 l -25,-33 -67,22 c -128,42 -230,143 -271,269 -26,79 -18,207 18,286 57,123 151,216 286,284 148,75 335,92 517,46 z m 163,-642 c 0,-10 -274,-190 -334,-221 -82,-41 -245,-70 -245,-42 0,18 115,127 173,164 68,44 167,83 240,95 67,11 167,13 166,4 z m 165,-37 c 154,-55 294,-176 358,-306 57,-117 69,-191 78,-485 9,-287 17,-334 76,-445 67,-126 184,-232 312,-281 38,-14 91,-23 162,-28 l 105,-6 -82,-32 c -107,-43 -234,-79 -336,-97 l -82,-14 -55,28 c -139,69 -409,158 -665,219 -134,31 -381,114 -457,152 -81,41 -137,108 -204,243 -65,133 -86,224 -86,376 0,140 20,238 72,348 l 29,62 h 54 c 131,0 226,37 395,153 119,83 216,137 243,137 10,0 48,-11 83,-24 z M 5386,3203 c -68,-194 19,-410 242,-598 42,-35 114,-85 159,-111 44,-25 89,-55 100,-66 24,-27 147,-127 204,-166 69,-46 232,-126 332,-161 161,-57 270,-74 485,-77 l 193,-2 57,-38 c 127,-83 267,-251 324,-385 186,-444 -223,-815 -867,-785 -609,28 -1162,318 -1467,771 -160,237 -238,472 -238,713 0,256 78,479 247,703 65,86 230,256 239,246 2,-2 -2,-22 -10,-44 z m 1004,-929 c 363,-97 579,-168 596,-196 11,-18 -246,-3 -363,21 -185,38 -358,110 -520,217 -45,30 -85,59 -88,64 -3,5 34,-5 82,-21 49,-16 180,-55 293,-85 z"
       id="path4552"
       inkscape:connector-curvature="0"
       style="fill:#f56a6a;fill-opacity:0.74117649" />
    <path
       d="m 9880,510 c 0,-5 5,-10 10,-10 6,0 10,5 10,10 0,6 -4,10 -10,10 -5,0 -10,-4 -10,-10 z"
       id="path4554"
       inkscape:connector-curvature="0"
       style="fill:#f56a6a;fill-opacity:0.74117649" />
  </g>
</svg>
